<?xml version="1.0" standalone="no"?>
<!DOCTYPE svg PUBLIC "-//W3C//DTD SVG 1.1//EN" "http://www.w3.org/Graphics/SVG/1.1/DTD/svg11.dtd" >
<svg xmlns="http://www.w3.org/2000/svg" xmlns:xlink="http://www.w3.org/1999/xlink" version="1.1">
<metadata></metadata>
<defs>
<font id="cabrito_didonenorm_regular" horiz-adv-x="1349" >
<font-face units-per-em="2048" ascent="1552" descent="-496" />
<missing-glyph horiz-adv-x="505" />
<glyph unicode="&#xfb01;" horiz-adv-x="1228" d="M78 18q0 21 20 21q7 0 29 -2t39 -2q49 0 64.5 14t15.5 55v885h-135q-13 0 -18 4.5t-5 18.5v4q0 22 23 22h135v49q0 230 117 347.5t339 117.5q175 0 264 -69.5t89 -186.5q0 -44 -29 -74t-72 -30q-40 0 -67 27t-27 71q0 45 29.5 75t71.5 30q15 0 30 -6q-63 120 -262 120 q-158 0 -234.5 -93.5t-76.5 -315.5v-62h321q65 0 161.5 9.5t127.5 9.5q27 0 37 -13t10 -43v-804q0 -164 96 -164q17 0 33 5.5t23 10t19.5 15t13.5 10.5q25 21 36 4q5 -8 1.5 -18.5t-13.5 -18.5q-59 -51 -168 -51q-108 0 -160.5 64.5t-52.5 203.5v653q0 33 -8 47.5t-40 22.5 t-101 8h-336v-885q0 -41 15.5 -55t64.5 -14q19 0 40 2t27 2q23 0 23 -21q0 -20 -23 -20q-5 0 -27 2t-40 2q-26 0 -81.5 2t-84.5 2t-84 -2t-82 -2q-16 0 -39.5 -2t-28.5 -2q-20 0 -20 20z" />
<glyph unicode="&#xfb02;" horiz-adv-x="1325" d="M63 1014q0 24 29 24h146v41q0 232 114 352.5t330 120.5q159 0 248 -96q34 7 65 26t50 34.5t28 15.5q14 0 14 -27v-1308q0 -164 97 -164q12 0 23 2.5t18.5 5.5t16 8.5t12 8.5l10.5 9t8 7q27 23 37 4q5 -8 1 -18.5t-14 -18.5q-59 -51 -168 -51q-108 0 -160.5 64.5 t-52.5 203.5v889q0 108 -23.5 187.5t-79 129t-138.5 49.5q-130 0 -196 -89.5t-66 -293.5v-92h254q28 0 28 -24q0 -25 -26 -25h-256v-885q0 -41 15.5 -55t64.5 -14q18 0 38 2t25 2q25 0 25 -21q0 -20 -25 -20q-2 0 -30.5 2t-41.5 2q-22 0 -74.5 2t-82.5 2q-29 0 -85 -2 t-83 -2q-16 -1 -30 -2t-21.5 -1.5t-12.5 -0.5q-24 0 -24 20q0 21 22 21q5 0 26.5 -2t39.5 -2q49 0 64.5 14t15.5 55v885h-146q-18 0 -23.5 6t-5.5 19z" />
<glyph unicode="&#xfb03;" horiz-adv-x="1660" d="M-6 1012v4q0 22 18 22h146q15 189 116.5 286t280.5 97q164 0 242 -100q89 231 381 231q155 0 236.5 -67t84.5 -180v-9q0 -44 -27.5 -74t-68.5 -30q-39 0 -64.5 27t-25.5 71q0 45 27.5 75t66.5 30q20 0 35 -9q-27 58 -87.5 90.5t-148.5 32.5q-139 0 -207.5 -94t-68.5 -315 v-62h270q59 0 151.5 9.5t123.5 9.5q24 0 33.5 -13t9.5 -43v-804q0 -164 84 -164q16 0 30 5.5t20.5 10t17 14.5t11.5 11q23 23 33 4q4 -7 0 -19t-12 -18q-59 -51 -156 -51q-102 0 -151 64t-49 204v653q0 48 -21 63t-106 15h-289v-885q0 -40 14.5 -54.5t56.5 -14.5 q16 0 35.5 2t24.5 2q20 0 20 -21q0 -20 -20 -20q-3 0 -26.5 2t-33.5 2q-37 0 -88 2t-69 2q-26 0 -78 -2t-78 -2q-9 0 -32.5 -2t-26.5 -2q-21 0 -21 20q0 9 6 15t15 6q5 0 24 -2t35 -2q42 0 56 14.5t14 54.5v885h-432v-885q0 -40 14.5 -54.5t58.5 -14.5q16 0 34.5 2t23.5 2 q9 0 15.5 -6t6.5 -15q0 -20 -22 -20q-4 0 -11 0.5t-19.5 1.5t-27.5 2q-26 0 -78 2t-81 2q-27 0 -79 -2t-77 -2q-17 -1 -29.5 -2t-18.5 -1.5t-9 -0.5q-23 0 -23 20q0 21 23 21q4 0 22 -2t35 -2q42 0 57 14.5t15 54.5v885h-144q-12 0 -15 4.5t-3 18.5zM326 1038h432v49 q0 60 4 87q-14 94 -66 149t-139 55q-109 0 -166.5 -78.5t-64.5 -261.5z" />
<glyph unicode="&#xfb04;" horiz-adv-x="1839" d="M-16 1012v4q0 22 22 22h164q17 190 127 286.5t305 96.5q194 0 277 -110q95 241 405 241q161 0 250 -96q34 7 65 26t50 34.5t28 15.5q15 0 15 -27v-1308q0 -164 96 -164q17 0 32.5 5.5t23 10t19.5 14.5t13 11q25 22 37 4q11 -14 -12 -37q-59 -51 -168 -51t-162 64.5 t-53 203.5v920q-5 152 -64 243.5t-176 91.5q-130 0 -197 -90t-67 -293v-92h307q18 0 18 -16v-14q0 -19 -16 -19h-309v-885q0 -40 16.5 -54.5t65.5 -14.5q16 0 37.5 2t27.5 2q23 0 23 -21q0 -20 -23 -20q-5 0 -27.5 2t-37.5 2q-28 0 -83 2t-83 2q-30 0 -85 -2t-81 -2 q-18 0 -40.5 -2t-27.5 -2q-22 0 -22 20q0 21 22 21q6 0 27.5 -2t40.5 -2q47 0 62.5 14.5t15.5 54.5v885h-502v-885q0 -41 15.5 -55t64.5 -14q19 0 39 2t26 2q11 0 18 -6t7 -15q0 -20 -25 -20q-4 0 -26 2t-39 2q-27 0 -82 2t-84 2t-84 -2t-82 -2q-16 0 -39.5 -2t-28.5 -2 q-22 0 -22 20q0 21 22 21q6 0 27.5 -2t40.5 -2q47 0 63.5 14.5t16.5 54.5v885h-162q-13 0 -17.5 4.5t-4.5 18.5zM340 1038h502v41q0 43 2 66q-8 106 -69.5 169.5t-172.5 63.5q-126 0 -189.5 -78t-72.5 -262z" />
<glyph horiz-adv-x="0" />
<glyph horiz-adv-x="682" />
<glyph horiz-adv-x="0" />
<glyph horiz-adv-x="0" />
<glyph unicode="&#xd;" horiz-adv-x="505" />
<glyph unicode=" "  horiz-adv-x="505" />
<glyph unicode="&#x09;" horiz-adv-x="505" />
<glyph unicode="&#xa0;" horiz-adv-x="505" />
<glyph unicode="!" horiz-adv-x="550" d="M164 1354q0 68 26 99.5t84 31.5q60 0 86.5 -31.5t26.5 -99.5t-13.5 -162t-29.5 -185.5t-29.5 -262.5t-13.5 -375q0 -27 -22 -27q-9 0 -15 7.5t-6 19.5q0 205 -14.5 376t-32.5 262t-32.5 185t-14.5 162zM166 92q0 51 33 85t77 34t74.5 -30t30.5 -81q0 -50 -33 -82t-80 -32 q-44 0 -73 29t-29 77z" />
<glyph unicode="&#x22;" horiz-adv-x="708" d="M106 1366q0 96 93 96q40 0 66 -24.5t26 -75.5q0 -23 -10 -68l-54 -268q-5 -17 -7.5 -23.5t-7.5 -12t-13 -5.5q-19 0 -31 41l-51 268q-11 37 -11 72zM420 1366q0 96 92 96q40 0 65 -24t25 -74q0 -36 -10 -70l-51 -268q-7 -23 -12.5 -32t-16.5 -9q-19 0 -31 41l-51 268 q-10 34 -10 72z" />
<glyph unicode="#" horiz-adv-x="1030" d="M72 453l2 12q0 10 3.5 12t16.5 2h209l51 365h-211q-12 0 -16 2.5t-4 9.5l4 21q1 9 4 10.5t14 1.5h215l56 373q0 5 0.5 8.5t1 6.5t2 4.5t1.5 2.5t3 1.5t3.5 0.5h5.5h7h15h4q6 0 8 -0.5t4 -5.5t0 -16l-55 -375h264l53 373q1 9 2.5 14t4 7.5t4.5 2.5h8h4h16q15 0 17 -3 q1 -4 -1 -19l-55 -375h213q12 0 17 -3.5t2 -11.5l-4 -20q-1 -7 -4.5 -8.5t-14.5 -1.5h-215l-51 -365h217q12 0 16.5 -3t1.5 -11l-4 -16q-2 -10 -5 -13.5t-13 -3.5h-221l-58 -405q-1 -21 -4 -24t-16 -3h-19q-8 0 -10 0.5t-5 6t1 18.5l57 407h-264l-57 -405l-3 -16.5t-4.5 -8 t-5.5 -2.5h-10h-16q-9 0 -11.5 0.5t-4 6t-0.5 18.5l57 407h-205q-12 0 -16 4.5t-2 16.5zM358 479h265l51 365h-264z" />
<glyph unicode="$" horiz-adv-x="1114" d="M90 317q0 55 32 89t85 34q49 0 79.5 -29.5t30.5 -82.5q0 -55 -32.5 -83t-75.5 -28q-40 0 -70 23q25 -99 115 -155t221 -65l8 668q-64 23 -107.5 42.5t-94.5 53t-81 71.5t-50.5 95t-20.5 127q0 162 98 258t267 115l2 160q0 20 4 25t16 5q15 0 19 -5t4 -23l-2 -160 q10 2 34 2q42 0 62 -2l2 158q0 20 3.5 25t16.5 5t17 -5.5t4 -22.5l-2 -166q153 -23 236 -113t83 -229q0 -50 -33.5 -79.5t-78.5 -29.5q-42 0 -73.5 30.5t-31.5 76.5q0 52 34 84.5t79 32.5q23 0 49 -15q-26 84 -97 132.5t-169 62.5l-6 -592q60 -24 105 -46.5t92.5 -59 t77.5 -79t49.5 -104t19.5 -135.5q0 -176 -96.5 -275t-258.5 -124l-2 -193q0 -22 -3.5 -27.5t-18.5 -5.5q-13 0 -17 6t-4 25l2 188q-54 -4 -77 -4h-19l-2 -182q0 -22 -3.5 -27.5t-16.5 -5.5t-17 6t-4 25l2 186q-177 12 -281 99t-104 243zM213 1143q0 -56 20 -100t61 -76 t84 -54t107 -45l7 533q-128 -16 -203.5 -82t-75.5 -176zM516 18h21q44 0 75 5l9 616l-95 35zM528 854q59 -19 95 -33l8 584q-18 2 -60 2q-24 0 -36 -2zM655 29q125 22 194 94.5t69 193.5q0 62 -19.5 112t-56.5 86t-79 61t-99 49z" />
<glyph unicode="%" horiz-adv-x="1839" d="M74 1049q0 87 20 159t61 129.5t112 90t165 32.5t165.5 -32.5t113 -90t62 -130t20.5 -158.5t-20.5 -158.5t-62 -131t-113 -91.5t-165.5 -33t-165 33t-112 91.5t-61 131t-20 158.5zM233 1047q0 -181 45.5 -277t153.5 -96q59 0 99 26t62 77t31 116t9 154q0 180 -46.5 277 t-154.5 97q-199 0 -199 -374zM420.5 -12.5q0.5 8.5 13.5 28.5l946 1457q19 28 25 32t18 -4q11 -8 12 -15t-12 -32l-952 -1466q-18 -26 -39 -15q-12 6 -11.5 14.5zM1049 397q0 86 20 158t61 130t112 91t165 33t165 -33t112.5 -91t62 -130t20.5 -158t-20.5 -159t-62 -131.5 t-112.5 -91.5t-165 -33t-165 33t-112 91.5t-61 131t-20 159.5zM1208 395q0 -182 45 -277t154 -95q58 0 98 25.5t62 76.5t31.5 116t9.5 154q0 375 -201 375q-199 0 -199 -375z" />
<glyph unicode="&#x26;" horiz-adv-x="1382" d="M102 385q0 114 53.5 197.5t138.5 126.5t193 51q-42 6 -80.5 17.5t-81.5 35.5t-73.5 58t-51 88t-20.5 122q0 171 124.5 272t346.5 101q183 0 290.5 -83t107.5 -222q0 -51 -30 -83t-81 -32q-47 0 -78 30.5t-31 80.5q0 52 33.5 85.5t79.5 33.5q29 0 49 -17 q-36 73 -118 118.5t-183 45.5q-157 0 -244.5 -82t-87.5 -237q0 -157 87 -234t237 -80h561q33 0 43 -9.5t12 -39.5l13 -178q2 -39 5 -61.5t3 -30.5q0 -31 -21 -31q-10 0 -14.5 5.5t-5.5 21.5q-1 7 -1.5 34.5t-2.5 55.5q-11 99 -63 142t-191 50v-639q0 -40 14.5 -52.5 t63.5 -12.5q18 0 36.5 1t22.5 1q25 0 25 -21q0 -20 -25 -20q-3 0 -6 0.5t-7 1.5t-16.5 1.5t-31.5 0.5q-18 0 -79.5 1t-82.5 1h-283q-273 0 -411 94t-138 291zM297 389q0 -179 81.5 -263t266.5 -85l195 -2v700h-164q-178 -5 -278.5 -94t-100.5 -256z" />
<glyph unicode="'" horiz-adv-x="395" d="M106 1366q0 96 93 96q40 0 66 -24.5t26 -75.5q0 -23 -10 -68l-54 -268q-5 -17 -7.5 -23.5t-7.5 -12t-13 -5.5q-19 0 -31 41l-51 268q-11 37 -11 72z" />
<glyph unicode="(" horiz-adv-x="608" d="M98 606h144q0 -270 63.5 -486t220.5 -368q27 -27 15 -41q-6 -8 -15 -7t-30 15q-188 148 -293 381t-105 506zM98 606q0 271 105 504t293 381q19 16 29 17t16 -9q12 -14 -15 -41q-82 -79 -139 -178t-88 -211.5t-44 -223.5t-13 -239h-144z" />
<glyph unicode=")" horiz-adv-x="612" d="M72 -289q13 -16 45 8q188 148 292.5 381t104.5 506h-149q0 -580 -279 -854q-26 -26 -14 -41zM72 1499q6 10 16 9t29 -17q188 -148 292.5 -381t104.5 -504h-149q0 578 -279 852q-26 26 -14 41z" />
<glyph unicode="*" horiz-adv-x="901" d="M121.5 939q9.5 24 36.5 42q45 26 140 56t122 46q-24 14 -118 45t-140 62q-29 20 -39 44t6 48q17 24 44.5 25.5t53.5 -17.5q45 -29 115.5 -98.5t91.5 -85.5q-2 25 -27.5 123t-25.5 155q0 33 17.5 54.5t45.5 21.5t44 -22.5t16 -55.5q0 -55 -20.5 -152.5t-22.5 -125.5 q27 16 98.5 87.5t118.5 98.5q27 16 54.5 13t41.5 -27q13 -25 2 -51t-39 -41q-47 -29 -141.5 -59.5t-118.5 -43.5l-2 -2q25 -14 118.5 -46t139.5 -62q28 -19 37.5 -45.5t-4.5 -51.5q-15 -24 -44 -26t-56 16q-45 30 -112 103t-93 90q2 -28 23.5 -124t21.5 -149 q0 -32 -17 -54.5t-45 -22.5t-45.5 21.5t-17.5 53.5q0 54 25.5 150.5t27.5 122.5q-21 -15 -92.5 -83t-116.5 -95q-27 -18 -55 -15t-45 29q-13 24 -3.5 48z" />
<glyph unicode="+" horiz-adv-x="948" d="M72 578q0 22 24 22h350v348q0 25 23 25q18 0 22.5 -6t4.5 -27v-340h356q16 0 20.5 -5t4.5 -15q0 -14 -6.5 -18.5t-26.5 -4.5h-348v-373q0 -16 -5.5 -21t-17.5 -5q-17 0 -22 5t-5 19v375h-348q-18 0 -22 3t-4 18z" />
<glyph unicode="," horiz-adv-x="442" d="M109 -242q-14 17 12 37q50 40 96 106.5t57 131.5q-24 -47 -77 -47q-35 0 -59.5 30t-24.5 78q0 53 29.5 85t80.5 32q49 0 80 -34.5t31 -90.5q0 -91 -62 -183t-125 -139q-25 -19 -38 -6z" />
<glyph unicode="-" horiz-adv-x="825" d="M137 625q0 12 10 16t35 4h463q29 0 36 -4t7 -16t-10 -16.5t-41 -4.5h-455q-29 0 -37 3.5t-8 17.5z" />
<glyph unicode="." horiz-adv-x="444" d="M113 92q0 52 33 85.5t79 33.5q44 0 74.5 -30t30.5 -81t-34 -82.5t-81 -31.5q-45 0 -73.5 28.5t-28.5 77.5z" />
<glyph unicode="/" horiz-adv-x="698" d="M84 -35l479 1508q8 24 15 30t26 2q25 -5 12 -45l-485 -1509q-12 -33 -39 -25q-21 6 -8 39z" />
<glyph unicode="0" horiz-adv-x="1243" d="M115 721q0 213 56 376.5t172 260t280 96.5q99 0 181.5 -36t141.5 -101t100 -156t60.5 -201.5t19.5 -236.5q0 -216 -55.5 -383t-171 -267t-276.5 -100q-122 0 -219.5 57.5t-160 159t-95.5 237t-33 294.5zM305 721q0 -219 34.5 -375.5t106.5 -243t177 -86.5 q157 0 237 186.5t80 520.5q0 325 -80 506.5t-237 181.5q-155 0 -236.5 -183t-81.5 -507z" />
<glyph unicode="1" horiz-adv-x="772" d="M78 1227q-3 20 24 28q53 8 103 25q126 41 237 156q21 18 37 18q8 0 13.5 -7.5t5.5 -19.5v-1306q0 -49 21 -67.5t75 -18.5q26 0 63.5 2t49.5 2q22 0 22 -21q0 -11 -4.5 -15.5t-17.5 -4.5q-9 0 -49 2t-64 2q-28 0 -92 2t-94 2t-94.5 -2t-92.5 -2q-25 0 -65.5 -2t-49.5 -2 q-22 0 -22 20q0 21 22 21q11 0 49.5 -2t65.5 -2q54 0 75 18.5t21 67.5v1061q0 53 -20 67.5t-80 -0.5q-21 -6 -59 -20.5t-52 -16.5q-25 -7 -28 15z" />
<glyph unicode="2" horiz-adv-x="1077" d="M70 16q0 10 6.5 19.5t27.5 32.5l129 137q293 320 405 504t112 362q0 162 -74 246t-209 84q-124 0 -203 -55t-106 -148q27 19 59 19q48 0 80.5 -31t32.5 -84t-35 -85t-82 -32t-78 31.5t-31 83.5q0 74 23.5 136.5t70.5 111.5t126.5 76.5t183.5 27.5q196 0 308 -100 t112 -283q0 -43 -7 -83.5t-26 -83t-38.5 -78.5t-57.5 -84t-69.5 -85t-88.5 -96.5t-100 -103t-119 -120t-131 -132.5l-70 -76h506q100 0 139.5 28.5t51.5 104.5q6 49 6 100q0 46 22 46q19 0 19 -35q0 -7 -0.5 -13.5t-3 -27t-5.5 -48.5t-10.5 -91t-15.5 -140q-3 -30 -13 -40.5 t-38 -10.5h-789q-20 0 -20 16z" />
<glyph unicode="3" horiz-adv-x="1077" d="M86 289q0 52 29 84.5t80 32.5q50 0 80 -30t30 -79q0 -56 -29 -86.5t-77 -30.5q-46 0 -74 39q29 -88 119.5 -141t210.5 -53q159 0 254.5 93t95.5 269q0 183 -87 275t-247 92q-13 0 -33.5 -2t-23.5 -2q-33 0 -33 20q0 21 31 21q6 0 26 -1.5t29 -1.5q134 0 212.5 84.5 t78.5 237.5q0 144 -76.5 221.5t-212.5 77.5q-99 0 -171.5 -44.5t-100.5 -121.5q28 21 61 21q48 0 75 -31t27 -86q0 -51 -29.5 -82t-80.5 -31q-52 0 -80.5 30.5t-28.5 84.5q0 140 99.5 222.5t273.5 82.5q195 0 304.5 -93t109.5 -255q0 -71 -21 -127.5t-52.5 -91.5t-75 -60.5 t-81.5 -37t-80 -17.5q164 -14 264.5 -111t100.5 -274q0 -189 -131 -298t-354 -109q-197 0 -304.5 81.5t-107.5 227.5z" />
<glyph unicode="4" horiz-adv-x="1112" d="M18 309q0 3 1.5 7t4.5 8.5t6.5 8.5t10 11.5t10.5 13.5l205 267q130 164 193.5 263.5t82.5 159.5t19 136q0 20 -2 73.5t-2 90.5q0 48 29 77t81 29q49 0 76 -29t27 -79q0 -31 -5.5 -62t-12.5 -58t-26 -63.5t-32 -61.5t-44.5 -69.5t-50 -70.5t-62.5 -81t-68.5 -84.5t-81 -98 t-86.5 -105.5l-185 -238h472v412q0 22 4.5 34t19.5 29q82 69 115 113q19 25 26 25q15 0 15 -29v-584h39q119 0 159 23.5t52 99.5q4 41 4 107q0 30 22 30q21 0 21 -30q0 -5 -1.5 -14t-6 -39t-9.5 -74l-12 -107q-11 -98 -57 -98h-211v-152q2 -37 19.5 -51t66.5 -14 q20 0 42.5 2t28.5 2q11 0 18 -6t7 -15q0 -20 -25 -20q-5 0 -29 2t-42 2q-28 0 -87 2t-87 2q-31 0 -90 -2t-86 -2q-18 0 -42.5 -2t-29.5 -2q-25 0 -25 20q0 21 25 21q6 0 29 -2t43 -2q46 0 63.5 13t20.5 48v156h-527q-13 0 -23 16t-10 41z" />
<glyph unicode="5" horiz-adv-x="1060" d="M88 272q0 53 29.5 86t79.5 33q48 0 80 -31t32 -81q0 -52 -32.5 -80.5t-83.5 -28.5q-36 0 -56 14q31 -75 108.5 -117t180.5 -42q164 0 251 96t87 282q0 383 -424 383h-150q-25 0 -22 27l80 590q6 29 33 29h563q28 0 36.5 -10.5t10.5 -41.5l12 -225q6 -85 6 -86 q0 -19 -3.5 -26t-14.5 -7q-18 0 -21 29q-1 10 -1 35.5t-1 40.5q-8 85 -55.5 124.5t-157.5 39.5h-370l-60 -406h117q142 0 250 -25t189 -80.5t123 -149t42 -224.5q0 -204 -127.5 -322t-355.5 -118q-179 0 -277 76.5t-98 215.5z" />
<glyph unicode="6" horiz-adv-x="1148" d="M121 647q0 161 31.5 302.5t94.5 256t169 181.5t243 67q148 0 233 -62.5t85 -168.5q0 -52 -29.5 -82.5t-81.5 -30.5q-48 0 -78 30t-30 79q0 54 31.5 86t84.5 32q9 0 21 -4q-73 76 -203 76q-70 0 -126.5 -24t-96.5 -64.5t-70 -102t-48.5 -128t-29.5 -150.5t-15.5 -162 t-4.5 -170q12 85 45.5 146.5t81 94t97 47.5t104.5 15q84 0 155 -25.5t128.5 -77.5t90.5 -141.5t33 -207.5q0 -238 -124 -360t-330 -122q-238 0 -349.5 158t-111.5 512zM322 442q0 -201 69 -312.5t193 -111.5q121 0 194.5 112t73.5 321q0 198 -69 305.5t-193 107.5 q-126 0 -197 -110t-71 -312z" />
<glyph unicode="7" horiz-adv-x="958" d="M57 1071q0 4 2 12.5t5 33.5t6 63l24 200q3 30 12.5 41t36.5 11h783q22 0 22 -17t-20 -51l-250 -424q-217 -373 -217 -618q0 -56 27.5 -128t27.5 -104q0 -46 -30.5 -76t-79.5 -30q-48 0 -75.5 30t-27.5 78q0 333 336 881l188 332h-528q-99 0 -142.5 -31t-52.5 -103 q-4 -39 -4 -94q0 -37 -22 -37q-21 0 -21 31z" />
<glyph unicode="8" horiz-adv-x="1169" d="M104 387q0 83 23.5 152t60 113t84 75t92 45.5t87.5 18.5q-113 16 -185.5 94t-72.5 219q0 167 104.5 258.5t286.5 91.5t287.5 -92.5t105.5 -259.5q0 -139 -72 -215.5t-188 -95.5q44 -4 89.5 -19t92.5 -47t82.5 -76.5t58.5 -113t23 -150.5q0 -103 -37.5 -183t-104 -129.5 t-152 -74.5t-185.5 -25t-186 25.5t-152 75t-104 130t-38 183.5zM285 391q0 -100 23.5 -174t65 -117t94 -63.5t116.5 -20.5q134 0 217.5 91.5t83.5 281.5q0 177 -74 279t-227 102q-154 0 -226.5 -101t-72.5 -278zM356 1104q0 -293 226 -293q117 0 173 76.5t56 214.5 q0 149 -59.5 230t-169.5 81q-109 0 -167.5 -79t-58.5 -230z" />
<glyph unicode="9" horiz-adv-x="1161" d="M121 979q0 118 35 210t96.5 149.5t142.5 86.5t176 29q242 0 355.5 -156t113.5 -503q0 -179 -31.5 -325.5t-96 -258t-170 -173t-244.5 -61.5q-166 0 -263.5 77.5t-97.5 207.5q0 52 29.5 83.5t81.5 31.5q48 0 78 -30t30 -79q0 -52 -34 -86.5t-78 -34.5q-35 0 -54 19 q34 -65 107 -104t166 -39q71 0 128 23.5t97.5 63.5t71 100.5t48.5 126t29 148.5t15 160.5t4 169.5q-11 -80 -43.5 -139.5t-79 -92t-98 -48t-109.5 -15.5q-83 0 -153.5 25.5t-128 78.5t-90.5 144t-33 211zM307 983q0 -201 69 -308.5t193 -107.5q125 0 197 110.5t72 319.5 q0 197 -68 306.5t-199 109.5q-121 0 -192.5 -111t-71.5 -319z" />
<glyph unicode=":" horiz-adv-x="493" d="M139 92q0 51 33 85t78 34q43 0 73.5 -30t30.5 -81q0 -50 -33 -82t-79 -32q-45 0 -74 28.5t-29 77.5zM139 928q0 51 33 85t78 34q43 0 73.5 -31t30.5 -80q0 -50 -33 -82.5t-79 -32.5q-45 0 -74 29t-29 78z" />
<glyph unicode=";" horiz-adv-x="534" d="M160 928q0 51 33.5 85t78.5 34q43 0 74 -31t31 -80q0 -50 -34 -82.5t-81 -32.5q-44 0 -73 29.5t-29 77.5zM162 -242q-14 17 12 37q51 40 97 106.5t57 131.5q-24 -47 -78 -47q-35 0 -59.5 30t-24.5 78q0 53 29.5 85t80.5 32q49 0 80 -34.5t31 -90.5q0 -91 -62 -183 t-124 -139q-25 -20 -39 -6z" />
<glyph unicode="&#x3c;" horiz-adv-x="1173" d="M59 553h64l905 -403q21 -11 27 -19t0 -22q-11 -26 -62 -3l-884 402q-29 15 -39.5 23.5t-10.5 21.5zM59 553q0 13 11.5 22.5t38.5 22.5l882 401q53 24 64 -2q6 -15 0.5 -22.5t-27.5 -16.5l-905 -405h-64z" />
<glyph unicode="=" horiz-adv-x="1150" d="M150 418q0 13 5 17.5t17 4.5h803q16 0 20 -4.5t4 -13.5q0 -15 -5 -19t-25 -4h-795q-16 0 -20 3.5t-4 15.5zM150 772q0 23 22 23h803q11 0 16.5 -3t6.5 -6.5t1 -9.5q0 -15 -5 -18.5t-25 -3.5h-795q-14 0 -19 4t-5 14z" />
<glyph unicode="&#x3e;" horiz-adv-x="1171" d="M118 131.5q-5 -7.5 1 -22.5q5 -11 17 -12.5t25 3t36 15.5l866 393q28 12 39.5 22t11.5 23h-65l-904 -403q-22 -11 -27 -18.5zM118 974.5q-5 7.5 1 22.5q4 9 10.5 12.5t19 0.5t21.5 -6.5t29 -12.5l864 -393q28 -12 39.5 -22t11.5 -23h-65l-904 405q-22 9 -27 16.5z" />
<glyph unicode="?" horiz-adv-x="1042" d="M63 1102q0 67 24.5 128t73.5 112t135 81.5t198 30.5q214 0 336 -109t122 -276q0 -73 -25 -137.5t-64.5 -112t-87.5 -90.5t-96 -82t-87.5 -77t-64.5 -85t-25 -98v-20q0 -23 -3 -29t-14 -6q-15 0 -18.5 6.5t-3.5 28.5v26q0 63 22.5 123.5t55.5 106t72.5 99t72.5 102.5 t55.5 116.5t22.5 140.5q0 145 -76.5 232.5t-234.5 87.5q-126 0 -209.5 -54t-118.5 -139q31 17 61 17q47 0 81 -33.5t34 -87.5t-36.5 -86.5t-86.5 -32.5q-49 0 -82 32t-33 85zM375 92q0 51 33.5 85t78.5 34q43 0 74 -30.5t31 -80.5t-33.5 -82t-79.5 -32q-44 0 -74 29t-30 77z " />
<glyph unicode="@" horiz-adv-x="1724" d="M106 690q0 160 57.5 300.5t161 243.5t255 162.5t331.5 59.5q205 0 369.5 -75.5t263 -224t98.5 -345.5q0 -145 -54.5 -267t-147 -192.5t-199.5 -70.5q-86 0 -135 42.5t-57 120.5q-44 -76 -111 -119.5t-141 -43.5q-61 0 -116.5 20.5t-100.5 59.5t-72 103.5t-27 145.5 q0 96 30 187t84.5 163t138.5 116t184 44q175 0 252 -81.5t77 -229.5q0 -87 -30.5 -229t-30.5 -177q0 -45 18 -63t64 -18q45 0 87.5 27t79.5 82t59 152t22 224q0 125 -33 228t-89.5 173.5t-134 118.5t-164.5 70t-182 22q-209 0 -362 -91t-232 -255.5t-79 -384.5 q0 -335 177.5 -509.5t481.5 -174.5q93 0 197 17.5t186 48.5q19 7 66 34q39 21 47 0q7 -20 -27 -38q-8 -6 -61 -29q-72 -31 -188 -51.5t-232 -20.5q-169 0 -313.5 52t-247.5 145.5t-161.5 229.5t-58.5 298zM629 596q0 -137 49.5 -203.5t138.5 -66.5q70 0 135 64t106.5 178 t41.5 247q0 137 -45.5 201.5t-139.5 64.5q-83 0 -149.5 -70.5t-101.5 -181t-35 -233.5z" />
<glyph unicode="A" d="M-23 20q0 19 29 19q9 0 30.5 -2t29.5 -2q38 0 66 25.5t56 103.5l447 1233q11 32 19 44.5t18 12.5t17 -11t18 -44l450 -1217q36 -98 58.5 -122.5t70.5 -24.5q14 0 32 2t25 2q31 0 31 -19q0 -22 -31 -22q-28 0 -106.5 4t-108.5 4q-74 0 -164 -4t-98 -4q-30 0 -30 22 q0 7 7 13t19 6q7 0 31 -2t41 -2q63 0 63 47q0 22 -16 68l-109 301h-526l-108 -304q-17 -44 -17 -69t15.5 -34t50.5 -9q16 0 40.5 3t32.5 3q29 0 29 -18q0 -25 -33 -25q-8 0 -60 4t-126 4q-30 0 -83 -4t-81 -4q-29 0 -29 22zM362 496h494l-248 688z" />
<glyph unicode="B" horiz-adv-x="1316" d="M88 12q0 21 23 21q5 0 26 -2t39 -2q49 0 65.5 14.5t16.5 54.5v1235q0 40 -16.5 54t-65.5 14q-18 0 -39 -1t-26 -1q-23 0 -23 20q0 21 25 21q23 0 107.5 -3t129.5 -3q49 0 126.5 3t101.5 3h47q252 0 380 -82.5t128 -267.5q0 -61 -17.5 -112.5t-45.5 -87t-67 -62t-79 -40.5 t-84 -20v-2q191 -26 284 -114t93 -263q0 -70 -17 -127t-45.5 -97t-72 -70t-91 -48t-108.5 -28.5t-117.5 -14.5t-124.5 -4h-293q-52 0 -132 -4t-103 -4q-25 0 -25 20zM436 123q0 -53 19 -67.5t88 -14.5h114q60 0 111.5 10t100 34.5t82.5 63t54.5 100t20.5 140.5 q0 175 -98 263.5t-307 88.5h-185v-618zM436 782h189q160 0 240.5 79.5t80.5 230.5q0 168 -80.5 237.5t-236.5 69.5h-39q-102 0 -128 -11.5t-26 -62.5v-543z" />
<glyph unicode="C" horiz-adv-x="1335" d="M109 715q0 218 76.5 384t227.5 260.5t359 94.5q105 0 188.5 -24t135.5 -62t86 -89.5t47.5 -103t13.5 -106.5q0 -53 -33.5 -85t-85.5 -32q-50 0 -80 31t-30 84q0 54 31.5 86.5t82.5 32.5q28 0 58 -15q-30 104 -130.5 172t-262.5 68q-105 0 -189 -37t-140.5 -100.5 t-94 -153t-54 -190.5t-16.5 -217q0 -165 28 -290.5t87 -217.5t155.5 -139.5t229.5 -47.5q195 0 377 91q14 7 32 19.5t29 18.5q25 17 37 -4q5 -11 -1.5 -21.5t-17.5 -15.5q-6 -4 -32 -15t-37 -17q-65 -31 -109.5 -48.5t-126.5 -35t-170 -17.5q-151 0 -273.5 46t-211.5 136.5 t-137.5 233t-48.5 326.5z" />
<glyph unicode="D" horiz-adv-x="1486" d="M90 18q0 21 23 21q5 0 26 -2t39 -2q49 0 64.5 14t15.5 55v1229q0 41 -16 55.5t-64 14.5q-18 0 -39 -2t-26 -2q-23 0 -23 20q0 21 25 21q17 0 101 -4t132 -4q42 0 130.5 4t117.5 4q180 0 320.5 -40.5t245 -125.5t159.5 -226.5t55 -334.5q0 -372 -202.5 -543.5 t-591.5 -171.5q-39 0 -118.5 4t-117.5 4q-34 0 -123.5 -4t-101.5 -4q-18 0 -24.5 4t-6.5 16zM438 96q0 -36 26 -47.5t122 -11.5q316 0 456 160.5t140 523.5q0 248 -64.5 398t-194 216t-339.5 66q-68 0 -98.5 -6t-39 -18.5t-8.5 -41.5v-1239z" />
<glyph unicode="E" horiz-adv-x="1263" d="M86 18q0 19 25 19q5 0 27 -2t40 -2q46 0 63 13t17 52v1243q0 40 -16.5 53t-65.5 13q-18 0 -39 -4t-26 -4q-23 0 -23 20q0 23 27 23q16 0 87.5 -1t119.5 -1h725q33 0 43 -10.5t12 -40.5l10 -179q2 -33 5 -58.5t3 -33.5q0 -33 -18 -33t-21 29q-1 5 -1 31t-3 59 q-9 105 -76 150t-243 45h-322v-662h174q102 0 154.5 39t52.5 105q0 13 -1 31.5t-1 23.5q0 11 6.5 19t16.5 8q8 0 14 -8.5t6 -18.5q0 -3 -2 -22.5t-2 -32.5q0 -26 -2 -77t-2 -85t2 -88t2 -80q0 -11 2 -30t2 -23q0 -11 -5.5 -20t-14.5 -9q-10 0 -16.5 8.5t-6.5 20.5 q0 3 1 21.5t1 31.5q0 145 -207 145h-174v-655h244q103 0 180 13.5t123.5 35t76 56.5t41.5 70t17 83q4 31 4 84q0 33 25 33q18 0 18 -35q0 -7 -1 -18t-3 -31t-4 -41l-22 -240q-2 -30 -13 -40.5t-43 -10.5h-757q-48 0 -120 -1t-89 -1q-27 0 -27 20z" />
<glyph unicode="F" horiz-adv-x="1179" d="M86 18q0 9 8 15t17 6q7 0 28.5 -2t38.5 -2q44 0 60.5 11t19.5 42v1253q0 40 -15 52t-65 12q-18 0 -39 -3t-26 -3q-27 0 -27 20q0 23 29 23q16 0 74.5 -1t97.5 -1h770q33 0 44 -10.5t13 -40.5l10 -179q2 -34 5.5 -59.5t3.5 -32.5q0 -33 -19 -33q-17 0 -20 29 q-1 7 -1.5 32.5t-2.5 57.5q-9 103 -81 149t-241 46h-330v-682h203q100 0 149.5 38.5t49.5 104.5q0 13 -2 31.5t-2 23.5q0 11 6.5 19t15.5 8q10 0 16.5 -8.5t6.5 -18.5q0 -3 -2 -22.5t-2 -32.5q0 -26 -2.5 -77t-2.5 -85t2.5 -88t2.5 -80q0 -11 2 -30t2 -23q0 -11 -6.5 -18.5 t-16.5 -7.5q-9 0 -15.5 7.5t-6.5 18.5q0 4 2 23t2 30q0 146 -199 146h-203v-588q1 -31 18.5 -42t61.5 -11q19 0 39.5 2t26.5 2q26 0 26 -21q0 -20 -26 -20q-4 0 -26.5 2t-39.5 2q-45 0 -135 4h-35q-29 0 -86 -2t-84 -2q-16 0 -39 -2t-28 -2q-25 0 -25 20z" />
<glyph unicode="G" horiz-adv-x="1419" d="M111 707q0 346 169 546.5t482 200.5q105 0 191 -21.5t144 -58.5t97.5 -86.5t57.5 -103.5t18 -113q0 -53 -36 -85t-83 -32q-49 0 -81 31t-32 82q0 53 35 87t82 34q27 0 57 -19q-34 103 -150.5 172.5t-289.5 69.5q-244 0 -358.5 -178t-114.5 -531q0 -684 461 -684 q68 0 126.5 15t111.5 49.5t83.5 99t30.5 154.5v272q0 23 -9 32t-28 9h-94q-36 0 -77 -2t-48 -2q-27 0 -27 21q0 13 7.5 17.5t25.5 4.5q5 0 45 -1t74 -1h281q22 0 22 -20v-648q0 -34 -18 -34q-23 0 -23 32q-1 32 -2.5 47.5t-5.5 43t-13.5 40.5t-23.5 13t-32.5 -14t-48 -40.5 t-56.5 -44.5q-136 -88 -318 -88q-139 0 -254 47t-199.5 137.5t-131.5 231t-47 318.5z" />
<glyph unicode="H" horiz-adv-x="1548" d="M88 18q0 9 7 15t18 6q6 0 27 -2t40 -2q47 0 63.5 14.5t16.5 54.5v1229q0 40 -16.5 55t-63.5 15q-19 0 -40 -2t-27 -2q-23 0 -23 20q0 21 23 21q5 0 28 -2t39 -2q26 0 83 -2t85 -2q30 0 87 2t83 2q18 0 40.5 2t27.5 2q22 0 22 -21q0 -20 -22 -20q-6 0 -27.5 2t-40.5 2 q-46 0 -62 -15t-16 -55v-596h670v596q0 40 -16.5 55t-63.5 15q-17 0 -38.5 -2t-28.5 -2q-23 0 -23 20q0 21 23 21q5 0 28 -2t39 -2q26 0 83.5 -2t86.5 -2t85.5 2t82.5 2q18 0 40.5 2t27.5 2q22 0 22 -21q0 -20 -22 -20q-7 0 -28.5 2t-39.5 2q-47 0 -63.5 -15t-16.5 -55 v-1229q0 -40 16.5 -54.5t63.5 -14.5q18 0 39.5 2t28.5 2q26 0 26 -21q0 -20 -26 -20q-5 0 -27.5 2t-40.5 2q-26 0 -82.5 2t-85.5 2t-86.5 -2t-83.5 -2q-16 0 -39 -2t-28 -2q-25 0 -25 20q0 9 7 15t18 6q7 0 28.5 -2t38.5 -2q47 0 63.5 14.5t16.5 54.5v590h-670v-590 q0 -40 15.5 -54.5t62.5 -14.5q19 0 40.5 2t27.5 2q26 0 26 -21q0 -20 -26 -20q-5 0 -27.5 2t-40.5 2q-26 0 -83 2t-87 2q-28 0 -85 -2t-83 -2q-16 0 -39 -2t-28 -2q-25 0 -25 20z" />
<glyph unicode="I" horiz-adv-x="700" d="M88 18q0 9 7 15t18 6q6 0 27 -2t40 -2q47 0 63.5 14.5t16.5 54.5v1229q0 40 -16.5 55t-63.5 15q-19 0 -40 -2t-27 -2q-23 0 -23 20q0 21 23 21q5 0 28 -2t39 -2q26 0 83 -2t85 -2q30 0 87 2t83 2q18 0 40.5 2t27.5 2q22 0 22 -21q0 -20 -22 -20q-6 0 -27.5 2t-40.5 2 q-46 0 -62 -15t-16 -55v-1229q0 -40 15.5 -54.5t62.5 -14.5q19 0 40.5 2t27.5 2q26 0 26 -21q0 -20 -26 -20q-5 0 -27.5 2t-40.5 2q-26 0 -83 2t-87 2q-28 0 -85 -2t-83 -2q-16 0 -39 -2t-28 -2q-25 0 -25 20z" />
<glyph unicode="J" horiz-adv-x="665" d="M-47 -301q-9 22 14 33q4 2 15.5 7t25.5 12t31 18q51 32 85 66t63.5 87t44 129.5t14.5 179.5v1102q0 41 -16 55.5t-64 14.5q-19 0 -40.5 -2t-27.5 -2q-22 0 -22 20q0 21 22 21q5 0 27.5 -2t40.5 -2q26 0 83 -2t87 -2q28 0 85 2t85 2q15 0 37.5 2t27.5 2q23 0 23 -21 q0 -20 -23 -20q-6 0 -27 2t-38 2q-49 0 -65.5 -15t-16.5 -55v-987q0 -115 -25.5 -210.5t-75.5 -169t-113 -129.5t-147 -105q-6 -3 -21.5 -12t-29 -16.5t-16.5 -8.5q-34 -16 -43 4z" />
<glyph unicode="K" horiz-adv-x="1400" d="M88 18q0 9 7 15t18 6q6 0 27 -2t40 -2q47 0 63.5 14.5t16.5 54.5v1229q0 39 -17 54.5t-63 15.5q-19 0 -40 -2t-27 -2q-23 0 -23 20q0 21 23 21q5 0 28 -2t39 -2q26 0 83 -2t85 -2q30 0 87 2t83 2q18 0 40.5 2t27.5 2q22 0 22 -21q0 -20 -22 -20q-6 0 -27.5 2t-40.5 2 q-46 0 -62 -15.5t-16 -54.5v-674l600 656q37 45 37 64q-1 3 -1 5q-6 18 -50 17q-16 0 -42 -1t-32 -1q-30 0 -30 16q0 25 34 25q9 0 65 -6.5t112 -6.5q32 0 96 6.5t94 6.5q31 0 31 -23q0 -18 -31 -18q-12 0 -29 1t-32 1q-55 0 -83.5 -17t-76.5 -73l-457 -500h17 q194 0 289 -93t149 -317q92 -381 221 -381q13 0 23.5 1.5t21 5.5t15 6t17 9t15.5 9q28 17 37 -2q8 -19 -20 -35q-25 -15 -69 -26t-83 -11q-156 0 -234.5 91.5t-132.5 318.5q-17 74 -32.5 125.5t-39.5 104.5t-53 85t-70.5 52t-94.5 20h-11l-170 -188v-482q0 -40 15.5 -54.5 t62.5 -14.5q19 0 40.5 2t27.5 2q26 0 26 -21q0 -20 -26 -20q-5 0 -27.5 2t-40.5 2q-26 0 -83 2t-87 2q-28 0 -85 -2t-83 -2q-16 0 -39 -2t-28 -2q-25 0 -25 20z" />
<glyph unicode="L" horiz-adv-x="1214" d="M90 12q0 21 25 21q4 0 24.5 -2t38.5 -2q49 0 65.5 14.5t16.5 54.5v1245q-1 34 -19.5 47t-62.5 13q-17 0 -38 -2t-27 -2q-23 0 -23 20q0 21 23 21q5 0 27.5 -2t37.5 -2q28 0 85 -2t85 -2q30 0 87 2t83 2q18 0 40.5 2t27.5 2q22 0 22 -21q0 -20 -22 -20q-6 0 -27.5 2 t-40.5 2q-43 0 -59.5 -12t-18.5 -43v-1307h244q100 0 175.5 13.5t122.5 35.5t78 56t44 70t18 83q4 47 4 84q0 33 23 33q20 0 20 -35q0 -7 -4 -35t-6 -55l-22 -240q-2 -30 -12.5 -40.5t-43.5 -10.5h-794q-35 -1 -93 -4.5t-77 -3.5q-27 0 -27 20z" />
<glyph unicode="M" horiz-adv-x="1820" d="M82 1419q0 23 29 23q14 0 74.5 -3t99.5 -3h131q16 0 26.5 -6.5t15.5 -14.5t11 -22l457 -1160l448 1168q10 22 18.5 28.5t30.5 6.5h97q41 0 106 2t84 2q31 0 31 -21q0 -20 -29 -20q-3 0 -25.5 3t-41.5 3q-49 0 -65.5 -15t-16.5 -55v-1231q0 -40 16.5 -54.5t65.5 -14.5 q19 0 41 2t28 2q11 0 18 -6t7 -15q0 -20 -25 -20q-6 0 -29 2t-40 2q-27 0 -77.5 2t-80.5 2q-29 0 -87 -2t-85 -2q-17 0 -40.5 -2t-29.5 -2q-22 0 -22 20q0 21 22 21q7 0 29.5 -2t40.5 -2q49 0 66.5 14.5t17.5 54.5v1203l-512 -1313q-6 -14 -23 -14h-4q-14 0 -22 14 l-525 1302v-84h-2v-1108q0 -40 16.5 -54.5t65.5 -14.5q18 0 40.5 2t29.5 2q22 0 22 -21q0 -20 -22 -20q-5 0 -28.5 2t-41.5 2q-19 0 -51 2t-55 2q-25 0 -59 -2t-52 -2q-16 0 -40.5 -2t-29.5 -2q-22 0 -22 20q0 21 22 21q6 0 28.5 -2t41.5 -2q49 0 65.5 14.5t16.5 54.5v1242 q-1 34 -19 46.5t-63 12.5q-19 0 -41.5 -3t-25.5 -3q-27 0 -27 20z" />
<glyph unicode="N" horiz-adv-x="1499" d="M88 18q0 9 6 15t15 6q7 0 28.5 -2t38.5 -2q49 0 65.5 14.5t16.5 54.5v1229q0 41 -17.5 54.5t-64.5 13.5q-18 0 -39 -1t-26 -1q-23 0 -23 20q0 21 25 21q11 0 66 -4t95 -4h125q37 0 56 -31l747 -1090v1022q0 40 -16 55t-62 15q-19 0 -40 -2t-27 -2q-25 0 -25 20 q0 10 7.5 15.5t17.5 5.5q4 0 27 -2t40 -2q18 0 51.5 -2t53.5 -2q19 0 52 2t54 2q16 0 39 2t29 2q22 0 22 -21q0 -20 -22 -20q-7 0 -29 2t-39 2q-49 0 -65.5 -15t-16.5 -55v-1321q0 -37 -16 -37q-17 0 -39 35l-891 1280v-1186q0 -40 16.5 -54.5t65.5 -14.5q17 0 38.5 2 t27.5 2q22 0 22 -21q0 -20 -22 -20q-4 0 -26.5 2t-39.5 2q-19 0 -53 2t-53 2t-52.5 -2t-54.5 -2q-15 0 -38.5 -2t-28.5 -2q-21 0 -21 20z" />
<glyph unicode="O" horiz-adv-x="1533" d="M109 711q0 76 9.5 148.5t31.5 147.5t56 139.5t86.5 122t119 98t157 64t197.5 23.5q142 0 255.5 -41t188 -110.5t124 -165.5t70.5 -200.5t21 -221.5q0 -107 -18.5 -206.5t-65.5 -199t-119.5 -172.5t-189.5 -118.5t-266 -45.5q-142 0 -255.5 41.5t-187.5 111t-123 166 t-70 200t-21 219.5zM297 715q0 -699 469 -699q82 0 149 20.5t115 55.5t84.5 87.5t59 110.5t36.5 130t19.5 141t5.5 148q0 92 -8 171.5t-26.5 162t-53.5 146.5t-85 115.5t-125.5 79t-170.5 27.5q-92 0 -166 -25.5t-124.5 -74t-86 -110.5t-55.5 -143t-28.5 -163.5t-8.5 -179.5 z" />
<glyph unicode="P" horiz-adv-x="1247" d="M86 18q0 9 8 15t17 6q7 0 28.5 -2t38.5 -2q49 0 64.5 14t15.5 55v1229q0 40 -15.5 54t-64.5 14q-18 0 -39.5 -1t-25.5 -1q-25 0 -25 20q0 21 27 21q21 0 101.5 -3t135.5 -3q40 0 104.5 3t104.5 3h21q300 0 449 -105t149 -344q0 -238 -150 -345t-448 -107h-144v-435 q0 -41 15.5 -55t64.5 -14q19 0 39.5 2t26.5 2q26 0 26 -21q0 -20 -26 -20q-4 0 -26.5 2t-39.5 2q-26 0 -83.5 2t-86.5 2t-86 -2t-84 -2q-15 0 -38.5 -2t-28.5 -2q-25 0 -25 20zM438 582h142q212 0 312.5 100t100.5 311t-101.5 307.5t-316.5 96.5h-22q-75 0 -95 -12.5 t-20 -51.5v-751z" />
<glyph unicode="Q" horiz-adv-x="1533" d="M109 711q0 76 9.5 148.5t31.5 147.5t56 139.5t86.5 122t119 98t157 64t197.5 23.5q142 0 255.5 -41t188 -110.5t124 -165.5t70.5 -200.5t21 -221.5q0 -92 -14 -178.5t-48 -175t-86.5 -159.5t-135 -126t-187.5 -80q85 -9 158.5 -31.5t125 -52t95 -63t77 -66t63 -59.5 t61 -45t63.5 -21h12q45 0 87 20q30 12 39 -10q3 -11 -4 -20.5t-25 -12.5q-60 -14 -164 -14q-84 0 -155.5 19.5t-122 50.5t-95.5 68.5t-86 75t-82.5 68.5t-95 50.5t-114.5 19.5v2q-4 0 -12.5 -1t-12.5 -1q-142 0 -255.5 41.5t-187.5 111t-123 166t-70 200t-21 219.5zM297 715 q0 -699 469 -699q82 0 149 20.5t115 55.5t84.5 87.5t59 110.5t36.5 130t19.5 141t5.5 148q0 92 -8 171.5t-26.5 162t-53.5 146.5t-85 115.5t-125.5 79t-170.5 27.5q-92 0 -166 -25.5t-124.5 -74t-86 -110.5t-55.5 -143t-28.5 -163.5t-8.5 -179.5z" />
<glyph unicode="R" horiz-adv-x="1406" d="M88 18q0 21 25 21q5 0 25.5 -2t39.5 -2q49 0 64.5 14t15.5 55v1229q0 40 -15.5 54t-64.5 14q-19 0 -39.5 -1t-25.5 -1q-25 0 -25 20q0 21 27 21q21 0 101.5 -3t127.5 -3q44 0 110 3t91 3h43q287 0 431 -100t144 -318q0 -181 -98.5 -272.5t-280.5 -114.5 q114 -28 186 -95.5t120 -177.5q85 -198 99 -225q43 -82 89 -100q19 -8 43 -8q15 0 28.5 3.5t20.5 6.5t20 11.5t17 10.5q21 12 31 -4q9 -14 -13 -30q-56 -39 -178 -39q-114 0 -185 70t-151 251q-33 73 -61.5 121t-71 95.5t-99.5 72t-130 27.5h-111v-521q0 -41 15.5 -55 t64.5 -14q19 0 40 2t26 2q24 0 24 -21q0 -20 -26 -20q-7 0 -79 4t-155 4q-77 0 -154 -4t-79 -4q-27 0 -27 20zM438 666h170q181 0 274 93t93 271q0 191 -94.5 280t-286.5 89h-94q-35 0 -48.5 -14t-13.5 -48v-671z" />
<glyph unicode="S" horiz-adv-x="1114" d="M115 412q0 24 18 24q21 0 27 -55q5 -77 33 -138.5t68.5 -100t93.5 -64.5t105 -36.5t105 -10.5q95 0 168.5 28t119.5 91.5t46 156.5q0 64 -25.5 115.5t-69 88t-100 67t-119 57.5t-125 55t-119 65t-100 81.5t-69 109t-25.5 144.5q0 180 112 272t294 92q155 0 270 -76 q47 -32 58 -32q13 0 13 40q0 10 -1 23q0 33 22 33q16 0 19 -23q1 -8 1 -29t1 -40l10 -207q2 -29 4 -47t3.5 -28.5t2.5 -16.5q0 -31 -20 -31q-18 0 -18 22l-7 62q-6 81 -40 142t-86.5 94.5t-110.5 49t-121 15.5q-142 0 -222.5 -60.5t-80.5 -187.5q0 -59 25.5 -106t69 -80 t100 -61t119 -54.5t124.5 -55t118.5 -67.5t100 -87t69 -119t25.5 -158q0 -191 -119 -288t-319 -97q-92 0 -173 22.5t-130 52.5q-54 35 -67 35q-19 0 -19 -53q0 -25 -16 -25q-7 0 -11 2.5t-6 10.5t-2.5 14t-1.5 20l-10 218q-2 48 -7 85.5t-5 45.5z" />
<glyph unicode="T" horiz-adv-x="1171" d="M45 1118q0 8 3 33.5t5 58.5l13 179q2 31 11.5 41t43.5 10h930q33 0 43 -10.5t12 -40.5l12 -179q1 -35 4.5 -60.5t3.5 -31.5q0 -31 -18 -31q-21 0 -21 27l-6 90q-6 70 -29 109t-80.5 61t-160.5 25h-135v-1295q0 -40 16.5 -54.5t63.5 -14.5q17 0 38.5 2t28.5 2q23 0 23 -21 q0 -20 -23 -20q-5 0 -28 2t-39 2q-26 0 -83.5 2t-86.5 2q-28 0 -85 -2t-85 -2q-16 0 -38.5 -2t-27.5 -2q-22 0 -22 20q0 21 22 21q6 0 27.5 -2t38.5 -2q49 0 65.5 14.5t16.5 54.5v1295h-105q-118 0 -182.5 -21t-90 -60.5t-32.5 -113.5q-2 -32 -2.5 -57.5t-1.5 -32.5 q-2 -15 -6.5 -21t-14.5 -6t-14 7t-4 24z" />
<glyph unicode="U" horiz-adv-x="1499" d="M61 1419q0 21 23 21q4 0 27.5 -2t40.5 -2q26 0 83 -2t87 -2q28 0 85 2t85 2q15 0 37.5 2t27.5 2q23 0 23 -21q0 -20 -23 -20q-6 0 -27 2t-38 2q-48 0 -65 -15.5t-17 -54.5v-798q0 -255 85 -380.5t289 -125.5q216 0 324.5 126.5t108.5 372.5v805q0 39 -17 54.5t-63 15.5 q-17 0 -39 -2t-29 -2q-20 0 -20 20q0 21 20 21q5 0 28.5 -2t39.5 -2q19 0 53.5 -2t50.5 -2q19 0 52.5 2t54.5 2q16 0 39 2t28 2q23 0 23 -21q0 -20 -23 -20q-6 0 -27 2t-40 2q-46 0 -63 -15.5t-17 -54.5v-805q0 -280 -126 -417.5t-390 -137.5q-268 0 -395.5 140t-127.5 419 v801q0 40 -15.5 55t-61.5 15q-19 0 -40.5 -2t-27.5 -2q-23 0 -23 20z" />
<glyph unicode="V" horiz-adv-x="1341" d="M-29 1417q0 23 29 23q31 0 118 -5t120 -5q68 0 146.5 5t84.5 5q35 0 35 -23q0 -18 -29 -18q-7 0 -33 2t-43 2q-55 0 -55 -43q0 -31 16 -72l375 -1055l371 1055q18 52 18 76q0 23 -15 31t-50 8q-16 0 -42 -2t-32 -2q-29 0 -29 16q0 25 33 25q7 0 55.5 -5t118.5 -5 q34 0 90 5t86 5q29 0 29 -23q0 -18 -29 -18q-15 0 -33.5 2t-25.5 2q-46 -2 -69.5 -26t-53.5 -105l-459 -1274q-9 -25 -22 -25q-16 0 -25 25l-477 1294q-24 67 -47.5 89t-67.5 22q-15 0 -31 -2t-28 -2q-29 0 -29 18z" />
<glyph unicode="W" horiz-adv-x="1939" d="M-25 1417q0 23 31 23t117.5 -5t130.5 -5q58 0 131.5 5t79.5 5q35 0 35 -23q0 -18 -29 -18q-6 0 -29 2t-45 2q-29 0 -42 -8.5t-13 -32.5q0 -28 14 -74l277 -1007l377 1155q5 16 20 16h4q11 0 19 -16l368 -1162l303 1043q7 24 7 41q0 16 -6 26q-12 20 -52 19 q-18 0 -42.5 -2t-31.5 -2q-28 0 -28 18q0 23 35 23q10 0 63 -5t98 -5q28 0 89 5t86 5q18 0 25 -5t7 -18q0 -18 -26 -18q-12 0 -33 2t-35 2q-76 0 -100 -88l-389 -1309q-7 -31 -21 -31h-2q-9 0 -14 6t-11 25l-376 1157l-371 -1157q-6 -19 -11 -25t-14 -6h-4q-7 0 -11.5 6.5 t-10.5 24.5l-375 1286q-19 66 -42 88.5t-62 22.5q-16 0 -32.5 -2t-29.5 -2q-29 0 -29 18z" />
<glyph unicode="X" horiz-adv-x="1280" d="M-23 20q0 19 29 19q11 0 26 -2t29 -2q45 0 74.5 20t73.5 88l362 549l-346 608q-35 62 -62.5 82.5t-72.5 20.5q-14 0 -30 -2t-27 -2q-27 0 -27 18q0 23 27 23q30 0 125.5 -4t124.5 -4q71 0 147 4t80 4q33 0 33 -23q0 -18 -29 -18q-7 0 -32 2t-40 2q-48 0 -48 -27 q0 -24 36 -88l258 -457l313 486q34 52 34 68q0 18 -34 18q-22 0 -45 -2t-28 -2q-27 0 -27 18q0 23 31 23q15 0 68 -3t77 -3q21 0 80 3t90 3q27 0 27 -23q0 -18 -27 -18q-12 0 -27.5 2t-29.5 2q-45 0 -72 -18t-67 -80l-336 -519l327 -575q34 -62 58.5 -98.5t45.5 -53 t36 -20.5t39 -4q14 0 31.5 2t23.5 2q29 0 29 -19q0 -22 -29 -22q-27 0 -119 5t-133 5q-46 0 -124 -5t-101 -5q-31 0 -31 22q0 19 29 19q5 0 29.5 -2t39.5 -2q47 0 47 26q0 24 -34 91l-281 493l-348 -526q-25 -41 -25 -60q0 -5 1 -7q6 -18 42 -17q22 0 44.5 2t27.5 2 q27 0 27 -16q0 -25 -31 -25q-9 0 -60 5t-106 5q-30 0 -84.5 -5t-79.5 -5q-29 0 -29 22z" />
<glyph unicode="Y" horiz-adv-x="1314" d="M-27 1417q0 23 29 23q32 0 123.5 -4t122.5 -4q70 0 146 4t83 4q33 0 33 -25q0 -16 -29 -16q-5 0 -28 2t-47 2q-23 0 -33 -4t-11.5 -17t6.5 -34.5t27 -59.5l328 -635l350 688q21 38 17 49q-5 13 -39 13q-16 0 -42 -2t-32 -2q-31 0 -31 16q0 25 35 25q5 0 43 -4t109 -4 q31 0 78 4t79 4q29 0 29 -23q0 -18 -29 -18q-12 0 -28.5 2t-26.5 2q-45 0 -67 -13.5t-46 -58.5l-366 -715v-512q0 -41 15.5 -55t64.5 -14q18 0 39 2t28 2q23 0 23 -21q0 -20 -23 -20q-5 0 -27 2t-40 2q-26 0 -83.5 2t-86.5 2q-28 0 -85 -2t-85 -2q-16 0 -38.5 -2t-27.5 -2 q-22 0 -22 20q0 21 22 21q6 0 27.5 -2t38.5 -2q49 0 65.5 14.5t16.5 54.5v474l-404 753q-19 35 -40.5 51.5t-34 18.5t-38.5 2q-13 0 -29 -2t-30 -2q-29 0 -29 18z" />
<glyph unicode="Z" horiz-adv-x="1208" d="M76 20q0 10 20 46l799 1333h-430q-174 0 -242.5 -44t-77.5 -151q-3 -33 -3 -59.5t-1 -30.5q-3 -27 -22 -27t-19 31q0 7 3.5 32.5t5.5 59.5l12 179q2 30 12.5 40.5t44.5 10.5h887q15 0 20 -4t5 -15q0 -25 -15 -47l-794 -1333h481q160 0 236.5 49t84.5 146q3 33 4.5 59 t2.5 31q1 15 6 20.5t16 5.5q18 0 18 -33q0 -7 -1 -16t-4 -29.5t-5 -44.5l-14 -178q-3 -30 -14 -40.5t-45 -10.5h-945q-17 0 -21.5 4t-4.5 16z" />
<glyph unicode="[" horiz-adv-x="659" d="M213 -291v1739q0 19 5.5 26t19.5 7h335q23 0 23 -21q0 -11 -5 -14.5t-18 -3.5h-188v-1718h188q23 0 23 -17q0 -22 -23 -22h-335q-25 0 -25 24z" />
<glyph unicode="\" horiz-adv-x="690" d="M78.5 1467q2.5 10 15.5 14q15 5 23.5 -1t15.5 -28l471 -1460q15 -31 -6 -39q-28 -12 -39 20l-475 1461q-8 23 -5.5 33z" />
<glyph unicode="]" horiz-adv-x="659" d="M63 -293q0 17 23 17h188v1718h-188q-13 0 -18 3.5t-5 14.5q0 21 23 21h336q14 0 19 -7t5 -26v-1739q0 -13 -5 -18.5t-19 -5.5h-336q-23 0 -23 22z" />
<glyph unicode="^" horiz-adv-x="1103" d="M88 854l393 600q14 23 29 29t39 6q25 0 39 -6t28 -29l400 -604q21 -35 -19 -35q-22 0 -32 5t-19 20l-397 596l-393 -592q-13 -19 -23.5 -24t-32.5 -5q-41 0 -12 39z" />
<glyph unicode="_" horiz-adv-x="1597" d="M86 -51q0 20 35 20h1364q24 0 24 -18q0 -11 -6 -16t-24 -5h-1368q-25 0 -25 19z" />
<glyph unicode="`" horiz-adv-x="540" d="M63 1354q17 32 50 32q39 0 106 -49q139 -101 221 -157q22 -15 17 -29q-2 -14 -31 -6q-49 19 -142 49.5t-132 44.5q-66 17 -86 49t-3 66z" />
<glyph unicode="a" horiz-adv-x="1138" d="M92 279q0 170 130.5 240.5t383.5 70.5h156v55q0 210 -73 300.5t-218 90.5q-102 0 -168.5 -37t-95.5 -100q25 19 55 19q42 0 69 -28.5t27 -76.5q0 -49 -29 -78.5t-77 -29.5q-46 0 -73 28.5t-27 75.5q0 128 90 199t266 71q210 0 317 -111.5t107 -351.5v-419q0 -164 98 -164 q14 0 26 3t22.5 9t16 10t14 12t9.5 9q24 20 37 4q6 -8 2.5 -18.5t-14.5 -18.5q-53 -53 -166 -53q-193 0 -213 209q-40 -94 -127 -152.5t-219 -58.5q-146 0 -236 72.5t-90 218.5zM266 276q0 -123 52.5 -181t144.5 -58q94 0 172 63q55 45 89 119.5t38 167.5v162h-156 q-181 0 -260.5 -63.5t-79.5 -209.5z" />
<glyph unicode="b" horiz-adv-x="1189" d="M10 1446q0 18 27 18q8 0 28 -1t29 -1q56 0 114 13.5t91 35.5q27 21 41 21q9 0 11.5 -5.5t2.5 -21.5v-708q46 137 123.5 207.5t212.5 70.5q193 0 296.5 -134t103.5 -404q0 -94 -13.5 -172.5t-50 -153t-94 -125.5t-152.5 -82t-219 -31q-112 0 -218 26t-148 50 q-15 10 -15 33l2 1102v178q-3 39 -21.5 53.5t-66.5 14.5q-10 0 -31 -2.5t-28 -2.5q-25 0 -25 21zM350 47q98 -31 209 -31q96 0 164.5 35.5t108 104t57.5 159.5t18 213q0 488 -260 488q-127 0 -205.5 -127t-91.5 -361v-481z" />
<glyph unicode="c" horiz-adv-x="1046" d="M96 520q0 261 134.5 410t367.5 149q94 0 166.5 -25t112.5 -66t59.5 -87t19.5 -94q0 -54 -28 -85.5t-80 -31.5q-50 0 -80.5 31.5t-30.5 79.5q0 54 31 85.5t80 31.5q22 0 41 -15q-33 60 -101.5 97.5t-164.5 37.5q-344 0 -344 -510q0 -243 85.5 -369t278.5 -126 q123 0 231 55q26 13 50 33q21 14 30.5 15.5t18.5 -9.5q16 -20 -25 -41q-9 -6 -59 -31q-142 -71 -293 -71q-246 0 -373 143t-127 393z" />
<glyph unicode="d" horiz-adv-x="1228" d="M98 483q0 271 125.5 432.5t351.5 161.5q83 0 141.5 -21t121.5 -61v353q0 49 -17.5 65.5t-70.5 16.5q-10 0 -31 -2.5t-29 -2.5q-24 0 -24 21q0 18 26 18q8 0 28.5 -1t29.5 -1q57 0 115 13.5t89 35.5q30 21 41 21q15 0 15 -27v-1308q0 -164 98 -164q16 0 32 5.5t23 10 t20 15.5l13 10q22 22 37 4q10 -17 -14 -37q-64 -51 -168 -51q-109 0 -161 63.5t-52 202.5q-40 -134 -121 -199q-86 -69 -211 -69q-191 0 -299.5 122t-108.5 373zM279 485q0 -205 62.5 -324.5t197.5 -119.5q130 0 206 120t93 353v424q-41 39 -105 65.5t-133 26.5 q-85 0 -149 -44t-100.5 -121.5t-54 -172.5t-17.5 -207z" />
<glyph unicode="e" horiz-adv-x="1067" d="M98 522q0 255 122 406t351 151q183 0 287.5 -85t104.5 -240q0 -308 -474 -308h-208q6 -117 31 -198t69 -127.5t99.5 -67t129.5 -20.5q144 0 269 53q16 6 27 13t21.5 14.5t16.5 11.5q27 12 35 -2q14 -20 -14 -37q-1 -1 -70 -33q-76 -35 -145 -52t-160 -17 q-246 0 -369 142.5t-123 395.5zM279 489h208q163 0 239.5 68t76.5 205q0 135 -59.5 205.5t-172.5 70.5q-292 0 -292 -512v-37z" />
<glyph unicode="f" horiz-adv-x="714" d="M63 997q0 25 29 25h146v135q0 195 89 295t259 100q231 0 237 -206v-9q0 -44 -30 -74t-68 -30q-41 0 -68.5 27.5t-27.5 70.5q0 45 29.5 75t70.5 30q12 0 39 -9q-44 86 -158 86q-99 0 -148.5 -75.5t-49.5 -245.5v-170h254q28 0 28 -25q0 -24 -26 -24h-256v-869 q0 -41 15.5 -55t64.5 -14q18 0 38 2t25 2q25 0 25 -21q0 -20 -25 -20q-4 0 -11 0.5t-21.5 1.5t-30.5 2q-27 0 -82.5 2t-85.5 2q-29 0 -84 -2t-82 -2q-16 -1 -30.5 -2t-22 -1.5t-11.5 -0.5q-24 0 -24 20q0 21 22 21q5 0 26.5 -2t39.5 -2q49 0 64.5 14t15.5 55v869h-146 q-18 0 -23.5 5.5t-5.5 18.5z" />
<glyph unicode="g" horiz-adv-x="1232" d="M106 485q0 270 130.5 432t365.5 162q137 0 244 -96v74q0 22 20 22q15 0 33 -18q39 -49 195 -49h6h12q2 0 12.5 -1t26.5 -1q22 0 29.5 -3.5t7.5 -13.5q0 -22 -25 -22q-5 0 -27 2t-38 2q-45 0 -62.5 -14t-17.5 -50v-835q0 -143 -39.5 -253.5t-111 -179t-167 -103 t-211.5 -34.5q-170 0 -270 72t-100 199q0 50 28.5 81t73.5 31q43 0 72 -28t29 -74q0 -48 -28 -75t-73 -27q-29 0 -47 12q30 -69 110 -106t185 -37q180 0 278.5 116.5t98.5 378.5v223q-33 -135 -123 -213q-83 -69 -217 -69q-184 0 -292 122.5t-108 372.5zM287 487 q0 -135 24.5 -231.5t84 -155.5t151.5 -59q129 0 205.5 120.5t93.5 354.5v399q-40 53 -102.5 85t-133.5 32q-69 0 -124.5 -29.5t-92 -79.5t-61 -120.5t-35 -148.5t-10.5 -167z" />
<glyph unicode="h" horiz-adv-x="1298" d="M49 1446q0 20 27 20q8 0 28 -1t29 -1q57 0 115 12.5t90 34.5q27 21 39 21q10 0 13 -5.5t3 -19.5v-682q38 114 123.5 184t218.5 70q149 0 236.5 -86t87.5 -262v-534q0 -164 98 -164q11 0 22 2.5t18 5.5t15.5 8.5t12.5 8.5t10.5 9t7.5 7q25 21 39 4q6 -8 1.5 -18.5 t-15.5 -18.5q-64 -51 -168 -51q-107 0 -160 64.5t-53 203.5v494q0 268 -203 268q-85 0 -149 -49q-137 -113 -142 -432v-435q0 -41 15.5 -55t64.5 -14q17 0 39 2t29 2q20 0 20 -21q0 -20 -20 -20q-5 0 -28.5 2t-39.5 2q-26 0 -81.5 2t-84.5 2t-84.5 -2t-81.5 -2q-16 0 -39 -2 t-28 -2q-23 0 -23 20q0 21 23 21q7 0 28 -2t39 -2q49 0 64.5 14t15.5 55v1244q0 49 -18 65.5t-72 16.5q-9 0 -29 -2.5t-28 -2.5q-25 0 -25 21z" />
<glyph unicode="i" horiz-adv-x="630" d="M68 989q0 21 26 21q6 0 27 -1t31 -1q57 0 114.5 12.5t89.5 34.5q25 22 41 22q9 0 12 -5.5t3 -20.5v-947q0 -41 15.5 -55t64.5 -14q17 0 38 2t27 2q23 0 23 -21q0 -20 -23 -20q-4 0 -26 2t-39 2q-27 0 -82 2t-84 2t-84 -2t-82 -2q-16 0 -39.5 -2t-28.5 -2q-22 0 -22 20 q0 21 22 21q7 0 28.5 -2t39.5 -2q47 0 63.5 14.5t16.5 54.5v789q0 47 -18 63.5t-72 16.5q-10 0 -30.5 -1t-25.5 -1q-26 0 -26 18zM227 1352q0 46 31 78t72 32t69.5 -28t28.5 -74t-31 -75.5t-75 -29.5q-41 0 -68 27t-27 70z" />
<glyph unicode="j" horiz-adv-x="579" d="M-27 -487q-8 19 15 34q1 1 25.5 14t47.5 29q64 47 98 99t50 134t16 216v856q0 49 -17.5 65.5t-70.5 16.5q-9 0 -30 -2t-27 -2q-27 0 -27 20q0 21 27 21q8 0 29 -1t30 -1q57 0 115 12.5t90 34.5q28 22 39 22q14 0 14 -28v-903q0 -210 -82 -354.5t-231 -241.5 q-62 -41 -72 -46q-27 -17 -39 5zM213 1352q0 46 31.5 78t72.5 32t69 -28t28 -74t-31.5 -75.5t-75.5 -29.5q-39 0 -66.5 27t-27.5 70z" />
<glyph unicode="k" horiz-adv-x="1183" d="M49 1446q0 18 27 18q8 0 29 -1t30 -1q57 0 115.5 13.5t91.5 35.5q27 21 41 21q9 0 11.5 -5.5t2.5 -21.5v-880h25q84 0 145 42t187 187q84 93 84 126q0 8 -5 13q-9 8 -38 8q-16 0 -40 -2t-32 -2q-33 0 -33 21q0 20 43 20q30 0 96 -6t89 -6q24 0 88 6t94 6q35 0 35 -20 q0 -21 -35 -21q-8 0 -28.5 2t-33.5 2q-63 0 -109 -30.5t-145 -145.5q-142 -165 -213 -202q140 -18 312 -328q87 -167 125.5 -216.5t74.5 -49.5q18 0 33 5.5t22.5 11.5t18 16.5t14.5 13.5q25 17 37 2q9 -16 -8 -33q-26 -24 -75.5 -40.5t-104.5 -16.5q-95 0 -161.5 53.5 t-143.5 196.5q-86 158 -136.5 231t-83 94t-79.5 21h-19v-480q0 -40 16.5 -54.5t65.5 -14.5q18 0 40.5 2t29.5 2q22 0 22 -21q0 -20 -22 -20q-6 0 -30 2t-40 2q-26 0 -82.5 2t-85.5 2t-85.5 -2t-82.5 -2q-17 0 -40 -2t-29 -2q-23 0 -23 20q0 21 23 21q8 0 29.5 -2t39.5 -2 q50 0 66 14t16 55v1244q0 49 -18 65.5t-74 16.5q-9 0 -30 -2.5t-29 -2.5q-25 0 -25 21z" />
<glyph unicode="l" horiz-adv-x="612" d="M49 1446q0 18 27 18q8 0 28 -1t29 -1q56 0 114 13.5t91 35.5q27 21 39 21q10 0 13 -5.5t3 -21.5v-1401q0 -41 15.5 -55t64.5 -14q17 0 39 2t29 2q20 0 20 -21q0 -20 -20 -20q-5 0 -28.5 2t-39.5 2q-26 0 -81.5 2t-84.5 2t-84.5 -2t-81.5 -2q-16 0 -39 -2t-28 -2 q-23 0 -23 20q0 21 23 21q7 0 28 -2t39 -2q44 0 60.5 11t19.5 42v1260q0 49 -18 65.5t-72 16.5q-9 0 -29 -2.5t-28 -2.5q-25 0 -25 21z" />
<glyph unicode="m" horiz-adv-x="1914" d="M68 989q0 21 26 21q6 0 27 -1t31 -1q58 0 115.5 12.5t88.5 34.5q25 22 41 22q9 0 12 -5.5t3 -20.5v-197q42 108 126 165.5t193 57.5q117 0 195.5 -57.5t103.5 -175.5q86 233 334 233q144 0 228.5 -87.5t84.5 -268.5v-524q0 -164 97 -164q12 0 23 2.5t18.5 5.5t16 8.5 t12 8.5l10.5 9t8 7q25 21 36 4q5 -8 1.5 -18.5t-13.5 -18.5q-59 -51 -168 -51q-108 0 -160.5 64.5t-52.5 203.5v508q0 120 -46.5 188t-143.5 68q-122 0 -196 -101.5t-77 -283.5v-535q0 -40 15 -54.5t63 -14.5q19 0 38 2t24 2q24 0 24 -21q0 -20 -24 -20q-4 0 -24.5 2 t-37.5 2q-27 0 -80.5 2t-83.5 2q-29 0 -81.5 -2t-79.5 -2q-16 0 -37.5 -2t-26.5 -2q-20 0 -20 20q0 21 20 21q7 0 27 -2t37 -2q48 0 62.5 14.5t14.5 54.5v686q-5 110 -51 172t-139 62q-110 0 -190 -110t-80 -294v-516q0 -41 13 -55t60 -14q17 0 36.5 2t25.5 2q22 0 22 -21 q0 -20 -22 -20q-5 0 -26 2t-36 2q-27 0 -78.5 2t-80.5 2t-83 -2t-81 -2q-17 0 -37.5 -2t-24.5 -2q-22 0 -22 20q0 21 22 21q6 0 25.5 -2t36.5 -2q48 0 63 14.5t15 54.5v791q0 47 -18 63.5t-70 16.5q-11 0 -32.5 -1t-27.5 -1q-24 0 -24 18z" />
<glyph unicode="n" horiz-adv-x="1316" d="M68 989q0 21 26 21q8 0 29 -1t31 -1q57 0 114.5 12.5t89.5 34.5q25 22 39 22q10 0 13.5 -5.5t3.5 -20.5v-222q40 112 124.5 181t215.5 69q148 0 235.5 -91.5t87.5 -276.5v-514q0 -164 99 -164q17 0 32.5 5.5t23 10t19.5 14.5t13 11q25 21 36 4q11 -14 -12 -37 q-59 -51 -168 -51t-162 64.5t-53 203.5v473q0 143 -48.5 216t-154.5 73q-85 0 -149 -49q-139 -110 -139 -469v-398q0 -41 15.5 -55t64.5 -14q18 0 38 2t25 2q25 0 25 -21q0 -20 -25 -20q-4 0 -26 2t-37 2q-27 0 -83 2t-85 2t-84 -2t-82 -2q-16 0 -39.5 -2t-28.5 -2 q-20 0 -20 20q0 21 20 21q7 0 29 -2t39 -2q49 0 64.5 14t15.5 55v789q0 47 -18 63.5t-70 16.5q-10 0 -31.5 -1t-26.5 -1q-26 0 -26 18z" />
<glyph unicode="o" horiz-adv-x="1163" d="M98 528q0 118 27.5 215.5t83.5 174t151 119t222 42.5q101 0 182.5 -28t137 -77.5t93 -119.5t54 -151t16.5 -175t-16.5 -175.5t-54 -151.5t-93 -120t-137 -78t-182.5 -28q-127 0 -222 42.5t-151 119.5t-83.5 174.5t-27.5 216.5zM279 528q0 -512 303 -512t303 512 q0 510 -303 510t-303 -510z" />
<glyph unicode="p" horiz-adv-x="1234" d="M53 -475q0 20 23 20q7 0 28 -2t39 -2q48 0 64 14.5t16 55.5v1282q0 47 -18 63.5t-70 16.5q-11 0 -31 -1t-28 -1q-23 0 -23 18q0 21 25 21q8 0 28 -1t29 -1q56 0 114 13t91 34q28 22 41 22q9 0 11.5 -5.5t2.5 -20.5v-260h2q46 152 132 220t216 68q188 0 288 -133.5 t100 -398.5q0 -574 -455 -574q-144 0 -283 68v-430q0 -41 16 -55.5t64 -14.5q18 0 39.5 2t28.5 2q22 0 22 -20q0 -21 -22 -21q-5 0 -28.5 2t-39.5 2q-26 0 -81.5 2.5t-84.5 2.5t-84.5 -2.5t-81.5 -2.5q-16 0 -39 -2t-28 -2q-23 0 -23 21zM395 98q44 -33 115.5 -56.5 t144.5 -23.5q165 0 233 132t68 397q0 85 -6 152t-22 130.5t-43 105.5t-71.5 67.5t-104.5 25.5q-134 0 -219.5 -134t-94.5 -368v-428z" />
<glyph unicode="q" horiz-adv-x="1224" d="M98 485q0 270 125.5 432t351.5 162q83 0 141.5 -21t121.5 -61v60q0 22 18 22q19 0 35 -16q18 -23 59.5 -34.5t68 -13t85.5 -3.5q16 -2 51 -2q25 0 25 -19q0 -20 -25 -20q-5 0 -27 2t-38 2q-46 0 -63 -12.5t-17 -47.5v-1304q0 -40 16 -55t64 -15q17 0 38.5 2t28.5 2 q23 0 23 -20q0 -21 -23 -21q-5 0 -28 2t-39 2q-27 0 -82 2.5t-84 2.5t-84 -2.5t-82 -2.5q-17 0 -39.5 -2t-26.5 -2q-24 0 -24 21q0 20 24 20q5 0 26 -2t40 -2q48 0 64 15t16 55v647q-40 -134 -121 -199q-86 -69 -211 -69q-191 0 -299.5 121.5t-108.5 373.5zM279 487 q0 -134 24.5 -230.5t84 -156t151.5 -59.5q130 0 206 120.5t93 354.5v426q-40 39 -104.5 64.5t-133.5 25.5q-85 0 -149 -44.5t-100.5 -122t-54 -172t-17.5 -206.5z" />
<glyph unicode="r" horiz-adv-x="948" d="M68 991q0 21 26 21q8 0 29 -1t31 -1q57 0 114.5 12.5t89.5 34.5q28 22 39 22q10 0 13.5 -5.5t3.5 -22.5v-310q9 38 22 75.5t40 87.5t61 86.5t87 62.5t115 26q84 0 127.5 -49t46.5 -129v-8q0 -50 -27.5 -78.5t-78.5 -28.5q-46 0 -73 28t-27 75q0 49 28.5 77.5t71.5 28.5 q26 0 47 -12q-40 57 -115 57q-80 0 -144 -51.5t-102.5 -137t-58.5 -187t-20 -209.5v-351q0 -41 15.5 -55t64.5 -14q18 0 38 2t25 2q25 0 25 -21q0 -20 -25 -20q-4 0 -26 2t-37 2q-27 0 -83 2t-85 2t-84 -2t-82 -2q-16 0 -39.5 -2t-28.5 -2q-20 0 -20 20q0 21 20 21 q7 0 29 -2t39 -2q49 0 64.5 14t15.5 55v789q0 49 -17.5 65.5t-70.5 16.5q-10 0 -31.5 -2t-26.5 -2q-26 0 -26 20z" />
<glyph unicode="s" horiz-adv-x="972" d="M106 369q0 34 23 34q21 0 21 -32q0 -39 4 -74q16 -118 105.5 -193t234.5 -75q132 0 203 56.5t71 154.5q0 52 -22 90t-59 61t-85.5 40t-102 30t-106.5 27.5t-101.5 36.5t-85.5 52.5t-59 80t-22 114.5q0 147 90.5 227t261.5 80q129 0 221 -55q12 -6 23.5 -12.5t16.5 -9.5 t10 -5t10 -2t8 2.5t4 8.5t1 11.5t-0.5 17.5t-0.5 20q3 30 23 30t20 -34q0 -5 -1 -24t-1 -43t2 -50l4 -70q2 -34 7 -73.5t5 -45.5q0 -32 -20 -32q-23 0 -23 32q0 27 -2 54q-8 107 -90.5 172t-218.5 65q-123 0 -185.5 -50.5t-62.5 -133.5q0 -46 22 -79t59.5 -53.5t86 -35.5 t102 -28.5t106.5 -29t101.5 -41t86 -60t59.5 -90.5t22 -128q0 -158 -96 -239.5t-282 -81.5q-138 0 -265 82q-34 22 -47 22q-6 0 -9.5 -2.5t-5 -9.5t-2 -12t-1 -16t-0.5 -17q0 -33 -21 -33q-18 0 -18 31q0 2 0.5 11t1 22.5t0.5 27.5q0 26 -4 76l-2 47q-3 37 -6.5 72t-6 55 t-2.5 27z" />
<glyph unicode="t" horiz-adv-x="708" d="M45 995q0 27 29 27h131q32 0 63.5 53t49.5 124.5t18 129.5q0 33 20 33q21 0 21 -33v-307h270q15 0 21 -6t6 -21q0 -22 -27 -22h-270v-682q0 -138 34 -198t107 -60q83 0 127 41q7 4 18.5 15.5l16.5 16.5q21 21 33 5q13 -13 -11 -37q-11 -14 -36 -29q-77 -57 -179 -57 q-282 0 -282 311v674h-131q-29 0 -29 22z" />
<glyph unicode="u" horiz-adv-x="1300" d="M43 989q0 21 27 21q6 0 26 -1t33 -1q54 0 113 13t90 34q25 22 41 22q12 0 12 -26v-736q0 -268 205 -268q86 0 149 51q140 111 140 469v326q0 47 -17.5 63.5t-68.5 16.5q-11 0 -32.5 -1t-27.5 -1q-24 0 -24 18q0 21 26 21q6 0 26.5 -1t33.5 -1q54 0 111.5 13t88.5 34 q25 22 43 22q9 0 12 -5.5t3 -20.5v-854q0 -164 96 -164q17 0 32.5 5.5t23 10t19.5 14.5t13 11q25 22 37 4q11 -14 -12 -37q-59 -51 -168 -51q-106 0 -159 59.5t-56 188.5q-40 -113 -124 -181.5t-216 -68.5q-148 0 -237 87t-89 261v557q0 47 -18 63.5t-70 16.5q-9 0 -31 -1 t-28 -1q-23 0 -23 18z" />
<glyph unicode="v" horiz-adv-x="1183" d="M2 1020q0 18 23 18q8 0 28 -2t33 -2q26 0 78.5 -2t81.5 -2t94 2t92 2q16 0 37.5 2t26.5 2q26 0 26 -18q0 -23 -26 -23q-7 0 -27 2t-37 2q-50 0 -65 -16.5t2 -56.5l286 -742l277 727q12 33 12 52q0 12 -5 19q-13 17 -65 17q-15 0 -34.5 -2t-26.5 -2q-11 0 -18 6.5t-7 16.5 q0 18 25 18q4 0 25 -2t36 -2q20 0 60 -2t63 -2q22 0 52.5 2t48.5 2q17 0 38 2t27 2q23 0 23 -18q0 -10 -7 -16.5t-16 -6.5q-7 0 -27 2t-38 2q-48 0 -70 -18.5t-47 -79.5l-356 -895q-12 -35 -31 -35q-11 0 -16.5 6t-12.5 27l-366 901q-26 57 -48 75.5t-65 18.5q-13 0 -33 -2 t-28 -2q-23 0 -23 23z" />
<glyph unicode="w" horiz-adv-x="1736" d="M-2 1020q0 18 25 18q5 0 25 -2t36 -2q27 0 77 -2t79 -2q28 0 90 2t90 2q15 0 35.5 2t25.5 2q23 0 23 -18q0 -23 -23 -23q-6 0 -25 2t-36 2q-48 1 -62 -19q-7 -9 -6 -26q0 -18 8 -43l218 -706l311 809q8 24 14.5 33.5t18.5 9.5q9 0 14.5 -9t15.5 -34l320 -801l231 711 q15 46 0 60.5t-71 14.5q-17 0 -36.5 -2t-25.5 -2q-22 0 -22 23q0 18 22 18q5 0 28.5 -2t39.5 -2q18 0 53 -2t59 -2q20 0 55 2t54 2q16 0 37 2t26 2q23 0 23 -18q0 -23 -23 -23q-7 0 -26 2t-37 2q-46 0 -68 -17t-39 -64l-311 -920q-4 -16 -9 -21.5t-15 -5.5q-11 0 -16.5 5 t-12.5 22l-328 819l-315 -817q-10 -29 -27 -29q-18 0 -29 27l-307 911q-21 57 -38.5 73.5t-59.5 16.5q-19 0 -37 -2t-24 -2q-11 0 -18 6.5t-7 16.5z" />
<glyph unicode="x" horiz-adv-x="1116" d="M0 18q0 9 7 15t16 6q7 0 23 -2t30 -2q39 0 68 17.5t61 62.5l270 399l-246 399q-36 56 -58.5 73.5t-59.5 17.5q-17 0 -35.5 -3.5t-24.5 -3.5q-9 0 -15.5 6t-6.5 15q0 18 22 18q4 0 24.5 -1t35.5 -1q159 -6 163 -6q28 0 90.5 3t88.5 3q15 0 39 1t28 1q8 0 15.5 -5t7.5 -13 q0 -9 -7 -15t-16 -6q-5 0 -27 3.5t-40 3.5q-46 0 -53 -17.5t18 -54.5l203 -324l219 324q26 41 18 56.5t-55 15.5q-16 0 -39 -3.5t-29 -3.5q-22 0 -22 21q0 18 22 18q4 0 28.5 -1t39.5 -1t46 -3t52 -3q17 0 49 3t49 3q16 0 36.5 1t25.5 1q20 0 20 -18q0 -21 -20 -21 q-6 0 -25.5 3.5t-36.5 3.5q-41 0 -61.5 -15.5t-54.5 -66.5l-240 -353l260 -413q49 -75 77 -98t69 -23q12 0 29 2t24 2q20 0 20 -21q0 -20 -20 -20q-5 0 -25.5 2t-36.5 2q-26 0 -79.5 2t-81.5 2q-29 0 -93 -2t-90 -2q-16 0 -36 -2t-25 -2q-25 0 -25 20q0 21 25 21q6 0 25 -2 t36 -2q39 0 44 21q1 3 1 6q0 23 -30 75l-209 336l-244 -356q-22 -36 -22 -55q0 -6 2 -10q10 -16 59 -17q17 0 39.5 2t28.5 2q22 0 22 -21q0 -20 -22 -20q-5 0 -29 2t-39 2q-17 0 -58 2t-59 2q-21 0 -51 -2t-47 -2q-15 0 -35 -2t-24 -2q-23 0 -23 20z" />
<glyph unicode="y" horiz-adv-x="1175" d="M4 1018q0 20 25 20q2 0 22.5 -2t38.5 -2q25 0 77.5 -2t80.5 -2q29 0 93 2t91 2q15 0 35.5 2t24.5 2q22 0 22 -20q0 -21 -22 -21q-6 0 -25 2t-35 2q-49 0 -60 -14.5t3 -54.5l293 -750l280 748q15 40 0 55.5t-63 15.5q-18 0 -37.5 -2t-24.5 -2q-22 0 -22 21q0 20 22 20 q4 0 25.5 -2t36.5 -2q26 0 50.5 -2t53.5 -2t54 2t51 2q18 0 37.5 2t23.5 2q25 0 25 -20q0 -9 -7 -15t-18 -6q-6 0 -24 2t-37 2q-45 0 -62 -14.5t-37 -62.5l-395 -1059q-73 -194 -154 -276.5t-194 -82.5q-88 0 -141.5 50t-53.5 139q0 46 29 77t74 31q47 0 73.5 -25.5 t26.5 -74.5q0 -46 -28 -74t-72 -28q-22 0 -37 6q43 -62 131 -62q91 0 161.5 75t141.5 263l27 72l-396 958q-24 57 -41 72.5t-57 15.5q-19 0 -37.5 -2t-23.5 -2q-11 0 -18 6t-7 15z" />
<glyph unicode="z" horiz-adv-x="1058" d="M76 18q0 14 37 62l645 917h-260q-143 0 -232.5 -51t-101.5 -141q-1 -14 -1 -33t-1 -27q-5 -28 -23 -28q-21 0 -18 33l8 69l18 168q3 31 13 41t43 10h721q16 0 21 -4t5 -12q0 -15 -35 -66l-645 -917h9v2h301q156 0 246 59.5t104 137.5q2 12 3 21.5t1.5 18.5t1.5 15 q3 31 22 31q22 0 19 -37q-1 -9 -5.5 -32t-6.5 -38l-25 -166q-3 -31 -13 -41t-44 -10h-787q-20 0 -20 18z" />
<glyph unicode="{" horiz-adv-x="673" d="M37 545q0 18 43 18q39 1 66.5 15t43.5 35t25 55t11.5 66.5t2.5 78.5v225q0 88 6 150t22 110t40 76.5t63 46.5t87 24.5t118 6.5h19q23 0 31 -3.5t8 -14.5q0 -13 -8.5 -17t-28.5 -4q-54 0 -88 -8.5t-59.5 -28t-38 -58.5t-18 -92t-5.5 -136v-228q0 -53 -7.5 -103t-25 -99 t-52 -80t-81.5 -33v-2q47 -1 81.5 -32.5t52 -81.5t25 -100t7.5 -102v-268q0 -118 21 -179.5t64 -83.5t124 -22q21 0 29 -3.5t8 -14.5t-8 -14.5t-31 -3.5h-19q-70 0 -118 6t-88 22.5t-63 42.5t-39 71t-22 103t-6 142v252q0 58 -5 96.5t-19.5 75.5t-45.5 55.5t-79 19.5 q-24 2 -33.5 5.5t-9.5 13.5z" />
<glyph unicode="|" horiz-adv-x="489" d="M213 -481v1994q0 17 12 17h39q12 0 12 -14v-1995q0 -15 -12 -15h-41q-10 0 -10 13z" />
<glyph unicode="}" horiz-adv-x="675" d="M55 -342q0 11 8 14.5t27 3.5q81 0 124.5 22t65 83.5t21.5 179.5v268q0 52 7.5 101.5t24.5 100t51 82t81 32.5v2q-47 2 -80.5 33t-51 80t-25 99t-7.5 103v228q0 83 -6 136.5t-18.5 92t-38 58t-60 28t-88.5 8.5q-19 0 -27 4t-8 17q0 11 7.5 14.5t29.5 3.5h21q70 0 118 -6.5 t87 -24.5t63 -46.5t40 -76.5t22 -110t6 -150v-225q0 -45 2.5 -78t11.5 -67t24.5 -55t43 -35t65.5 -15q45 0 45 -18q0 -16 -45 -19q-38 -1 -65.5 -14.5t-43 -34t-24.5 -54.5t-11.5 -66.5t-2.5 -77.5v-252q0 -125 -14 -198.5t-55 -117t-101.5 -57.5t-165.5 -14h-21 q-22 0 -29.5 3.5t-7.5 14.5z" />
<glyph unicode="~" horiz-adv-x="1007" d="M150 483q0 109 51.5 174.5t142.5 65.5q45 0 98.5 -28.5t95 -62.5t91.5 -62.5t88 -28.5q46 0 73 37t27 102q0 12 12 12h17q14 0 14 -16q0 -118 -47.5 -183t-142.5 -65q-42 0 -87.5 19.5t-83.5 47.5t-73.5 56t-70 47.5t-60.5 19.5q-46 0 -74 -39t-28 -100q0 -16 -17 -16 h-10q-6 0 -9 0.5t-5 5t-2 14.5z" />
<glyph unicode="&#xa1;" horiz-adv-x="530" d="M145 942q0 57 38 97t89 40t86 -35t35 -92t-38.5 -94t-92.5 -37q-50 0 -83.5 34t-33.5 87zM154 -276q0 68 13.5 162t29.5 185.5t29.5 262.5t13.5 375q0 26 20 26q23 0 23 -26q0 -204 15 -375t33 -262.5t33 -185.5t15 -162t-27.5 -100t-87.5 -32q-57 0 -83.5 32t-26.5 100z " />
<glyph unicode="&#xa2;" horiz-adv-x="1050" d="M92 524q0 250 127.5 398t349.5 157v287q0 14 15 14h24q13 0 13 -14v-287q87 -4 154 -30t104 -66.5t55 -84.5t18 -91q0 -52 -29.5 -84.5t-80.5 -32.5q-48 0 -78.5 31t-30.5 82q0 53 33 88t80 35q16 0 28 -6q-36 53 -102 85.5t-156 32.5q-342 0 -342 -508q0 -243 85.5 -370 t271.5 -127q131 0 239 55q42 26 50 33q38 28 49 6q15 -22 -25 -43q-24 -14 -59 -29q-125 -66 -258 -71v-273q0 -14 -15 -14h-24q-13 0 -13 14v273q-241 6 -362 148.5t-121 391.5z" />
<glyph unicode="&#xa3;" horiz-adv-x="1214" d="M96 18q0 21 31 21h16q79 5 143 90.5t64 196.5q0 114 -63 272h-160q-18 0 -18 20q0 12 3.5 15.5t14.5 3.5h143q-30 75 -45.5 120t-31 121.5t-15.5 151.5q0 203 126.5 313.5t350.5 110.5q185 0 290.5 -89.5t105.5 -250.5v-2q0 -54 -35.5 -85.5t-87.5 -31.5 q-46 0 -78.5 31.5t-32.5 83.5t36.5 86.5t82.5 34.5q35 0 61 -23q-28 95 -112.5 148t-214.5 53q-140 0 -222.5 -89t-82.5 -251q0 -57 11.5 -121.5t20.5 -98.5t36 -114.5t32 -97.5h315q19 0 19 -19q0 -20 -21 -20h-301q35 -136 35 -221q0 -124 -55.5 -211t-128.5 -109h436 q156 0 231.5 55.5t83.5 149.5q2 26 2.5 49t1.5 31q3 25 23 25q10 0 14 -7t4 -26q0 -6 -1 -14.5t-3 -26.5t-4 -39l-16 -203q-3 -30 -14 -40.5t-44 -10.5h-909q-22 0 -29.5 3.5t-7.5 14.5z" />
<glyph unicode="&#xa4;" horiz-adv-x="1331" d="M158 395q-30 24 2 56l104 104q-49 101 -49 231q0 161 74 273l-105 106q-31 31 -2 60l66 67q29 26 55 -4l111 -112q111 65 264 65q131 0 231 -49l113 115q27 27 57 0l68 -66q26 -26 -2 -57l-101 -101q91 -120 91 -295q0 -155 -70 -268l94 -92q31 -28 2 -57l-67 -68 q-25 -27 -54 2l-94 92q-107 -69 -268 -69q-184 0 -305 94l-92 -92q-29 -29 -60 -2zM354 799q0 -201 86 -315.5t238 -114.5q150 0 233.5 114.5t83.5 317.5q0 180 -86 289.5t-231 109.5q-147 0 -235.5 -110.5t-88.5 -290.5z" />
<glyph unicode="&#xa5;" horiz-adv-x="1458" d="M51 1417q0 23 29 23q31 0 122.5 -4t123.5 -4q70 0 146 4t83 4q33 0 33 -25q0 -16 -29 -16q-5 0 -28.5 2t-47.5 2q-23 0 -33 -4t-11.5 -17t7 -34t27.5 -60l328 -635l350 688q8 15 10.5 20t6 15.5t0 14.5t-13 8t-26.5 4q-16 0 -41.5 -2t-31.5 -2q-31 0 -31 16q0 25 35 25 q5 0 42 -4t109 -4q32 0 79 4t79 4q29 0 29 -23q0 -18 -29 -18q-12 0 -28.5 2t-26.5 2q-45 0 -67 -13.5t-46 -58.5l-366 -715v-63h370q23 0 31 -4.5t8 -16.5q0 -13 -8 -17.5t-33 -4.5h-368v-131h370q23 0 31 -4.5t8 -16.5q0 -13 -8 -17.5t-33 -4.5h-368v-232q0 -41 15.5 -55 t63.5 -14q18 0 39.5 2t28.5 2q23 0 23 -21q0 -20 -23 -20q-5 0 -27.5 2t-40.5 2q-26 0 -83.5 2t-86.5 2q-27 0 -85 -2t-85 -2q-16 0 -38 -2t-27 -2q-23 0 -23 20q0 21 23 21q6 0 27 -2t38 -2q49 0 65.5 14.5t16.5 54.5v232h-364q-24 0 -31.5 4.5t-7.5 17.5q0 12 8.5 16.5 t30.5 4.5h364v131h-364q-24 0 -31.5 4.5t-7.5 17.5q0 12 8.5 16.5t30.5 4.5h364v25l-403 753q-19 35 -40.5 51.5t-34 18.5t-38.5 2q-13 0 -29 -2t-30 -2q-29 0 -29 18z" />
<glyph unicode="&#xa6;" horiz-adv-x="487" d="M219 -389v801q0 12 14 12h25q10 0 10 -12v-801q0 -14 -14 -14h-25q-10 0 -10 14zM219 764v780q0 15 14 15h25q10 0 10 -15v-780q0 -12 -14 -12h-25q-10 0 -10 12z" />
<glyph unicode="&#xa7;" horiz-adv-x="929" d="M106 47q0 43 25 70.5t66 27.5q39 0 62.5 -25t23.5 -65q0 -44 -27.5 -72t-65.5 -28q-15 0 -26 8q33 -60 105.5 -91.5t164.5 -31.5q128 0 204.5 56t76.5 155q0 54 -19.5 94t-52.5 64t-76 42t-90.5 32.5t-95 30t-90.5 39.5t-76 56.5t-52.5 85.5t-19.5 123q0 213 179 271 q-85 38 -132 103t-47 179q0 136 82 209.5t242 73.5q150 0 233.5 -66t83.5 -182q0 -39 -25 -66.5t-65 -27.5q-36 0 -59 24t-23 66t23 70t61 28h4q-58 113 -231 113q-117 0 -179.5 -52t-62.5 -132q0 -54 19.5 -93.5t52.5 -64t76 -43t90.5 -33.5t95 -31t90.5 -41t76 -59 t52.5 -89t19.5 -126q0 -201 -172 -268q81 -39 126.5 -106.5t45.5 -180.5q0 -145 -95 -222t-270 -77q-144 0 -236 66t-92 186zM227 676q0 -45 15 -81t35 -58.5t59.5 -43t66 -30.5t80 -27t78.5 -26q72 22 113 72t41 122q0 38 -9.5 69t-30 54t-41.5 39t-56 30.5t-60.5 23.5 t-68 22.5t-66.5 21.5q-156 -49 -156 -188z" />
<glyph unicode="&#xa8;" horiz-adv-x="987" d="M92 1270q0 45 28.5 74.5t69.5 29.5q39 0 66 -26.5t27 -71.5q0 -43 -30 -72.5t-69 -29.5q-40 0 -66 26t-26 70zM410 1270q0 45 29.5 74.5t68.5 29.5q40 0 66 -26t26 -72q0 -43 -29.5 -72.5t-70.5 -29.5q-39 0 -64.5 26.5t-25.5 69.5z" />
<glyph unicode="&#xa9;" horiz-adv-x="1701" d="M106 723q0 213 85.5 378t256.5 262t406 97q176 0 318 -55.5t233.5 -154.5t140.5 -233t49 -292q0 -161 -47 -296.5t-137 -238t-233 -160t-324 -57.5q-183 0 -327 58t-235 160t-138.5 237.5t-47.5 294.5zM205 731q0 -345 172.5 -531t476.5 -186q303 0 473 186.5t170 532.5 q0 334 -172 511t-471 177q-300 0 -474.5 -178t-174.5 -512zM432 713q0 203 112.5 324.5t311.5 121.5q84 0 145 -22t93 -59t46 -75.5t15 -80.5v-9q0 -40 -28.5 -65t-65.5 -25q-38 0 -63 25t-25 65q0 43 26 70t64 27q25 0 55 -19q-21 62 -84 102t-157 40q-77 0 -134 -33.5 t-89.5 -93.5t-48 -133.5t-15.5 -161.5q0 -206 70.5 -309t224.5 -103q119 0 223 53q2 1 41 27q13 9 20 -2q6 -12 -10 -23l-45 -20q-40 -20 -66.5 -31.5t-77 -22t-106.5 -10.5q-198 0 -315 113t-117 330z" />
<glyph unicode="&#xaa;" horiz-adv-x="882" d="M154 975q0 55 22.5 92t68.5 57.5t103.5 28.5t138.5 8h68v35q0 125 -44 178t-134 53q-100 0 -141 -61q21 14 43 14q28 0 51.5 -23t23.5 -59q0 -37 -23.5 -59t-58.5 -22q-34 0 -56.5 20t-22.5 51v6q3 160 215 160q144 0 216 -69.5t72 -217.5v-241q0 -95 56 -95q33 0 53 25 q15 11 22 2q7 -11 -8 -22q-45 -35 -117 -35q-66 0 -101 30.5t-44 96.5q-48 -129 -203 -129q-92 0 -146 45t-54 131zM297 975q0 -141 102 -141q52 0 90 38q66 66 66 191v74h-68q-102 0 -146 -37t-44 -125z" />
<glyph unicode="&#xab;" horiz-adv-x="1095" d="M72 520q0 14 30 35q104 71 229.5 184.5t215.5 221.5q21 27 37 20q18 -9 -4 -41q-10 -14 -49 -69.5t-52 -73t-45 -62.5t-49 -66t-42.5 -53t-46 -54.5t-40.5 -41.5q16 -16 32 -33.5t35 -40.5t32.5 -40t36.5 -47.5t35 -46t38.5 -53t36 -50.5t40 -56.5t38.5 -54.5 q21 -30 6 -39q-17 -9 -39 19q-87 106 -213 219.5t-232 185.5q-30 21 -30 37zM471 520q0 12 33 35q104 71 228.5 184.5t213.5 221.5q20 28 39 20q16 -10 -6 -41q-175 -251 -241 -331q-44 -54 -81 -89q65 -65 138.5 -164t183.5 -258q20 -29 6 -39q-9 -5 -16.5 -1.5t-22.5 20.5 q-88 107 -212.5 220.5t-229.5 184.5q-33 23 -33 37z" />
<glyph unicode="&#xac;" horiz-adv-x="1130" d="M147 700v23q0 22 29 22h778q11 0 17 -5.5t6 -12.5v-383q0 -22 -21 -22h-32q-8 0 -14.5 6t-6.5 16v332h-727q-15 0 -22 4t-7 20z" />
<glyph unicode="&#xad;" horiz-adv-x="825" d="M137 625q0 12 10 16t35 4h463q29 0 36 -4t7 -16t-10 -16.5t-41 -4.5h-455q-29 0 -37 3.5t-8 17.5z" />
<glyph unicode="&#xae;" horiz-adv-x="1701" d="M106 723q0 213 85.5 378t256.5 262t406 97q176 0 318 -55.5t233.5 -154.5t140.5 -233t49 -292q0 -161 -47 -296.5t-137 -238t-233 -160t-324 -57.5q-183 0 -327 58t-235 160t-138.5 237.5t-47.5 294.5zM205 731q0 -345 172.5 -531t476.5 -186q303 0 473 186.5t170 532.5 q0 334 -172 511t-471 177q-300 0 -474.5 -178t-174.5 -512zM467 319q0 15 14 15q3 0 15 -2t22 -2q30 0 39.5 9.5t9.5 35.5v731q0 25 -9.5 34t-39.5 9h-37q-14 0 -14 12q0 13 16 13q12 0 49.5 -3.5t63.5 -3.5h197q191 0 282.5 -53.5t91.5 -187.5q0 -198 -221 -228 q70 -18 113 -57.5t71 -103.5q9 -22 22.5 -55.5t19.5 -48.5t16 -36.5t16.5 -30.5t16 -19t20 -13.5t23.5 -3.5q12 0 21 3t19 9t15 8q13 6 16 -4q6 -9 -6 -18q-39 -27 -129 -27q-80 0 -127 41.5t-94 155.5q-16 37 -27 59.5t-30 51.5t-38.5 44.5t-49 27t-64.5 11.5h-51v-317 q0 -26 9.5 -35.5t37.5 -9.5q12 0 24 2t15 2q14 0 14 -15q0 -12 -14 -12q-1 0 -13 1t-26 1q-16 0 -60 2t-63 2t-63.5 -2t-61.5 -2q-12 0 -24 -1l-11 -1q-16 0 -16 12zM719 719h90q99 0 150 57.5t51 155.5q0 111 -52 161t-157 50h-82v-424z" />
<glyph unicode="&#xaf;" horiz-adv-x="624" d="M43 1274q0 20 25 20h479q24 0 24 -20q0 -12 -5 -17.5t-21 -5.5h-475q-14 0 -20.5 7t-6.5 16z" />
<glyph unicode="&#xb0;" horiz-adv-x="811" d="M94 1169q0 135 86.5 223.5t225.5 88.5q142 0 225.5 -87.5t83.5 -222.5q0 -138 -87 -227.5t-225 -89.5t-223.5 89t-85.5 226zM209 1169q0 -138 52 -207t145 -69t145.5 70.5t52.5 205.5q0 137 -51.5 206t-146.5 69q-93 0 -145 -69.5t-52 -205.5z" />
<glyph unicode="&#xb1;" horiz-adv-x="1142" d="M72 -39q0 12 8.5 16.5t30.5 4.5h913q23 0 31 -4.5t8 -16.5q0 -13 -8 -17.5t-33 -4.5h-911q-24 0 -31.5 4.5t-7.5 17.5zM174 578q0 22 25 22h350v348q0 25 22 25q18 0 22.5 -6t4.5 -27v-340h356q16 0 20.5 -5t4.5 -15q0 -14 -6.5 -18.5t-26.5 -4.5h-348v-373 q0 -16 -5.5 -21t-17.5 -5q-17 0 -21.5 5t-4.5 19v375h-348q-18 0 -22.5 3t-4.5 18z" />
<glyph unicode="&#xb2;" horiz-adv-x="722" d="M63 729q0 8 23 31l86 92q168 180 231.5 294.5t63.5 217.5q0 92 -43 140t-121 48q-140 0 -182 -114q20 20 53 20q38 0 63 -26t25 -68q0 -41 -27 -66.5t-65 -25.5q-36 0 -61 25t-25 65q0 102 61.5 164.5t194.5 62.5q129 0 202.5 -61t73.5 -170q0 -67 -43.5 -138t-95 -122.5 t-185.5 -172.5q-15 -14 -23.5 -22t-22 -20t-25.5 -23l-37 -37h301q66 0 92 17.5t35 62.5q4 29 4 49q0 23 15 23q10 0 10 -19q0 -8 -3 -21.5t-3 -16.5l-23 -170q-3 -20 -8.5 -25.5t-23.5 -5.5h-502q-15 0 -15 12z" />
<glyph unicode="&#xb3;" horiz-adv-x="724" d="M70 897h2q0 90 80 90q40 0 64 -24t24 -62q0 -42 -27 -69t-63 -27q-19 0 -31 6q28 -38 75 -60t103 -22q90 0 141 56t51 167q0 109 -48.5 159t-129.5 50q-9 0 -22.5 -1t-16.5 -1q-20 0 -20 12q0 13 18 13h39q77 0 122.5 51t45.5 141q0 88 -43.5 136.5t-116.5 48.5 q-105 0 -159 -74q15 6 32 6q36 0 63.5 -27.5t27.5 -68.5q0 -39 -24.5 -63.5t-63.5 -24.5q-40 0 -64.5 25.5t-24.5 64.5q0 88 64.5 139t179.5 51q126 0 198 -58t72 -159q0 -51 -19.5 -90t-51.5 -61.5t-64.5 -34.5t-66.5 -15q100 -10 161.5 -64t61.5 -155q0 -117 -83 -184.5 t-230 -67.5q-121 0 -188.5 53t-67.5 144z" />
<glyph unicode="&#xb4;" horiz-adv-x="546" d="M2 1147q-4 15 16 29q39 25 75.5 50.5t82.5 59t66 47.5q64 49 104 49q35 0 49 -32q19 -34 -1.5 -65.5t-86.5 -49.5q-32 -12 -127.5 -40.5t-146.5 -51.5q-25 -13 -31 4z" />
<glyph unicode="&#xb5;" d="M70 983q0 18 24 18q7 0 25 -1t26 -1q59 2 119 18.5t94 43.5q18 16 35 16q19 0 19 -22v-731q0 -152 49 -224.5t164 -72.5q134 0 209 92t79 266v516q0 36 -17 50t-62 14q-16 0 -39 -1t-29 -1q-23 0 -23 20q0 18 25 18q8 0 25.5 -1t25.5 -1q59 2 119 18.5t94 43.5 q18 16 35 16q18 0 18 -22v-891q0 -70 24.5 -99.5t76.5 -29.5q19 0 42.5 2t31.5 2q24 0 24 -21q0 -20 -24 -20q-13 0 -65 1t-87 1q-101 0 -147.5 39t-47.5 127q-49 -95 -126.5 -142t-211.5 -47q-93 0 -163 25v-414q0 -22 -19 -22h-137q-16 0 -16 20v1315q0 36 -17.5 50 t-62.5 14q-17 0 -39.5 -1t-26.5 -1q-24 0 -24 20z" />
<glyph unicode="&#xb6;" horiz-adv-x="964" d="M70 942q0 232 114.5 363.5t304.5 134.5h369q23 0 23 -21q0 -20 -23 -20q-6 0 -27 3t-38 3q-49 0 -64.5 -13t-15.5 -53v-1581q0 -26 -31 -26t-31 26v1639h-102v-1637q0 -28 -29 -28q-31 0 -31 28v734q-189 2 -304 113.5t-115 334.5z" />
<glyph unicode="&#xb7;" horiz-adv-x="479" d="M131 584q0 50 33.5 84t77.5 34q46 0 76 -30.5t30 -81.5q0 -50 -33.5 -81.5t-81.5 -31.5q-43 0 -72.5 29t-29.5 78z" />
<glyph unicode="&#xb8;" horiz-adv-x="577" d="M43 -352q6 14 27 6l41 -14q30 -9 73 -9q123 0 123 119q0 57 -36.5 84t-118.5 27q-27 0 -15 24l64 133l39 -2l-54 -114q242 0 242 -154t-231 -154q-76 0 -144 29q-19 7 -10 25z" />
<glyph unicode="&#xb9;" horiz-adv-x="546" d="M63 1419q0 16 17 19q33 4 63 12q53 17 104.5 53t86.5 72q14 14 24 14q13 0 13 -18v-772q0 -35 14.5 -48.5t48.5 -13.5q17 0 40.5 2t29.5 2q14 0 14 -14q0 -12 -14 -12q-3 0 -29.5 1t-40.5 1q-20 0 -68 2t-71 2t-71.5 -1t-69.5 -1q-14 0 -39.5 -2t-28.5 -2q-16 0 -16 12 q0 14 16 14q5 0 27.5 -2t40.5 -2q36 0 50.5 13.5t14.5 48.5v592q0 33 -14 42t-58 -1q-10 -3 -33.5 -12.5t-31.5 -10.5q-16 -3 -19 10z" />
<glyph unicode="&#xba;" horiz-adv-x="1005" d="M80 1008q0 65 12 125.5t43 120t77.5 103t121 70.5t168.5 27q113 0 197.5 -37t132.5 -101.5t71 -141t23 -164.5q0 -64 -12 -123.5t-42.5 -119.5t-77 -103.5t-121 -71t-169.5 -27.5q-91 0 -164 25t-121 66.5t-80 99.5t-45.5 120.5t-13.5 131.5zM240 1010q0 -89 11.5 -158 t39 -131t81.5 -95.5t132 -33.5q77 0 130 31t81 90.5t39.5 130t11.5 164.5q0 71 -6 127.5t-23.5 113t-46 94t-76.5 61t-112 23.5q-75 0 -127.5 -30.5t-81.5 -89t-41 -130.5t-12 -167z" />
<glyph unicode="&#xbb;" horiz-adv-x="1167" d="M111 59q-16 10 4 39q180 258 249 342q39 47 72 80q-16 15 -32 32t-34.5 39.5t-32.5 40t-36.5 47.5l-34.5 46t-38 52.5t-36 51t-39 57t-38 54.5q-21 31 -4 41q13 7 34 -20q89 -107 215.5 -220.5t231.5 -185.5q29 -20 29 -35q0 -17 -29 -37q-106 -72 -232 -185.5 t-213 -219.5q-14 -16 -21.5 -19.5t-14.5 0.5zM582 59q-14 9 4 39q84 120 120.5 171.5t97 128.5t105.5 122q-23 22 -50.5 53.5t-47.5 56.5t-56.5 74t-51.5 70.5t-60 85t-57 80.5q-19 32 -4 41q19 8 39 -20q89 -108 213.5 -221.5t228.5 -184.5q31 -22 31 -35q0 -18 -31 -37 q-106 -72 -231 -185.5t-211 -219.5q-24 -28 -39 -19z" />
<glyph unicode="&#xbf;" horiz-adv-x="1013" d="M66 -29q0 73 26 137.5t68 112.5t92.5 92t101.5 84.5t93 80t68 88t26 100.5v18q0 37 16 37q14 0 19.5 -7t5.5 -28v-27q0 -76 -34 -146t-82 -128t-96 -117t-82 -138t-34 -167q0 -137 76 -224t219 -87q128 0 214.5 52.5t123.5 133.5q-32 -14 -60 -14q-49 0 -84.5 34.5 t-35.5 90.5q0 57 38 90t91 33q51 0 85.5 -33t34.5 -88q0 -63 -25.5 -123t-77 -112.5t-141.5 -84.5t-206 -32q-207 0 -323.5 103t-116.5 269zM432 954q0 58 37.5 91.5t91.5 33.5q51 0 85 -33t34 -90q0 -55 -38 -91t-87 -36q-52 0 -87.5 34.5t-35.5 90.5z" />
<glyph unicode="&#xc0;" d="M-23 20q0 19 29 19q9 0 30.5 -2t29.5 -2q38 0 66 25.5t56 103.5l447 1233q11 32 19 44.5t18 12.5t17 -11t18 -44l450 -1217q36 -98 58.5 -122.5t70.5 -24.5q14 0 32 2t25 2q31 0 31 -19q0 -22 -31 -22q-28 0 -106.5 4t-108.5 4q-74 0 -164 -4t-98 -4q-30 0 -30 22 q0 7 7 13t19 6q7 0 31 -2t41 -2q63 0 63 47q0 22 -16 68l-109 301h-526l-108 -304q-17 -44 -17 -69t15.5 -34t50.5 -9q16 0 40.5 3t32.5 3q29 0 29 -18q0 -25 -33 -25q-8 0 -60 4t-126 4q-30 0 -83 -4t-81 -4q-29 0 -29 22zM334 1743q17 33 49 33q38 0 106 -50 q125 -91 222 -157q21 -14 16 -29q-2 -14 -31 -6q-49 19 -142 49.5t-132 44.5q-66 17 -85.5 49t-2.5 66zM362 496h494l-248 688z" />
<glyph unicode="&#xc1;" d="M-23 20q0 19 29 19q9 0 30.5 -2t29.5 -2q38 0 66 25.5t56 103.5l447 1233q11 32 19 44.5t18 12.5t17 -11t18 -44l450 -1217q36 -98 58.5 -122.5t70.5 -24.5q14 0 32 2t25 2q31 0 31 -19q0 -22 -31 -22q-28 0 -106.5 4t-108.5 4q-74 0 -164 -4t-98 -4q-30 0 -30 22 q0 7 7 13t19 6q7 0 31 -2t41 -2q63 0 63 47q0 22 -16 68l-109 301h-526l-108 -304q-17 -44 -17 -69t15.5 -34t50.5 -9q16 0 40.5 3t32.5 3q29 0 29 -18q0 -25 -33 -25q-8 0 -60 4t-126 4q-30 0 -83 -4t-81 -4q-29 0 -29 22zM362 496h494l-248 688zM590 1536q-4 15 16 29 q38 25 75.5 51t81.5 58l66 48q65 50 105 50q35 0 49 -33q19 -34 -1.5 -65.5t-86.5 -49.5q-32 -12 -127.5 -40.5t-146.5 -51.5q-25 -13 -31 4z" />
<glyph unicode="&#xc2;" d="M-23 20q0 19 29 19q9 0 30.5 -2t29.5 -2q38 0 66 25.5t56 103.5l447 1233q11 32 19 44.5t18 12.5t17 -11t18 -44l450 -1217q36 -98 58.5 -122.5t70.5 -24.5q14 0 32 2t25 2q31 0 31 -19q0 -22 -31 -22q-28 0 -106.5 4t-108.5 4q-74 0 -164 -4t-98 -4q-30 0 -30 22 q0 7 7 13t19 6q7 0 31 -2t41 -2q63 0 63 47q0 22 -16 68l-109 301h-526l-108 -304q-17 -44 -17 -69t15.5 -34t50.5 -9q16 0 40.5 3t32.5 3q29 0 29 -18q0 -25 -33 -25q-8 0 -60 4t-126 4q-30 0 -83 -4t-81 -4q-29 0 -29 22zM362 496h494l-248 688zM369 1526q-8 8 12 26 l246 220q26 26 43 26q15 0 45 -26l243 -220q18 -18 11 -26q-7 -11 -31 4l-268 135l-271 -135q-22 -16 -30 -4z" />
<glyph unicode="&#xc3;" d="M-23 20q0 19 29 19q9 0 30.5 -2t29.5 -2q38 0 66 25.5t56 103.5l447 1233q11 32 19 44.5t18 12.5t17 -11t18 -44l450 -1217q36 -98 58.5 -122.5t70.5 -24.5q14 0 32 2t25 2q31 0 31 -19q0 -22 -31 -22q-28 0 -106.5 4t-108.5 4q-74 0 -164 -4t-98 -4q-30 0 -30 22 q0 7 7 13t19 6q7 0 31 -2t41 -2q63 0 63 47q0 22 -16 68l-109 301h-526l-108 -304q-17 -44 -17 -69t15.5 -34t50.5 -9q16 0 40.5 3t32.5 3q29 0 29 -18q0 -25 -33 -25q-8 0 -60 4t-126 4q-30 0 -83 -4t-81 -4q-29 0 -29 22zM362 496h494l-248 688zM418 1577q0 87 30.5 134.5 t92.5 47.5q44 0 97 -26.5t101 -53t80 -26.5q55 0 55 82q0 24 19 24q18 0 18 -33q0 -188 -123 -188q-51 0 -106.5 27t-102.5 53.5t-77 26.5q-45 0 -45 -84q0 -23 -23 -23q-9 0 -12.5 8t-3.5 31z" />
<glyph unicode="&#xc4;" d="M-23 20q0 19 29 19q9 0 30.5 -2t29.5 -2q38 0 66 25.5t56 103.5l447 1233q11 32 19 44.5t18 12.5t17 -11t18 -44l450 -1217q36 -98 58.5 -122.5t70.5 -24.5q14 0 32 2t25 2q31 0 31 -19q0 -22 -31 -22q-28 0 -106.5 4t-108.5 4q-74 0 -164 -4t-98 -4q-30 0 -30 22 q0 7 7 13t19 6q7 0 31 -2t41 -2q63 0 63 47q0 22 -16 68l-109 301h-526l-108 -304q-17 -44 -17 -69t15.5 -34t50.5 -9q16 0 40.5 3t32.5 3q29 0 29 -18q0 -25 -33 -25q-8 0 -60 4t-126 4q-30 0 -83 -4t-81 -4q-29 0 -29 22zM362 496h494l-248 688zM416 1642q0 45 29 75 t69 30q39 0 65.5 -26.5t26.5 -71.5q0 -43 -29.5 -73t-68.5 -30q-40 0 -66 26t-26 70zM733 1642q0 45 29.5 75t68.5 30q40 0 66.5 -26t26.5 -72q0 -43 -30 -73t-71 -30q-39 0 -64.5 26.5t-25.5 69.5z" />
<glyph unicode="&#xc5;" d="M-23 20q0 19 29 19q9 0 30.5 -2t29.5 -2q38 0 66 25.5t56 103.5l447 1233q11 32 19 44.5t18 12.5t17 -11t18 -44l450 -1217q36 -98 58.5 -122.5t70.5 -24.5q14 0 32 2t25 2q31 0 31 -19q0 -22 -31 -22q-28 0 -106.5 4t-108.5 4q-74 0 -164 -4t-98 -4q-30 0 -30 22 q0 7 7 13t19 6q7 0 31 -2t41 -2q63 0 63 47q0 22 -16 68l-109 301h-526l-108 -304q-17 -44 -17 -69t15.5 -34t50.5 -9q16 0 40.5 3t32.5 3q29 0 29 -18q0 -25 -33 -25q-8 0 -60 4t-126 4q-30 0 -83 -4t-81 -4q-29 0 -29 22zM362 496h494l-248 688zM434 1675q0 76 65.5 123 t170.5 47t170 -47t65 -123q0 -78 -65 -126t-170 -48q-103 0 -169.5 48.5t-66.5 125.5zM555 1675q0 -71 32.5 -108t82.5 -37t82 36.5t32 108.5q0 70 -31.5 107t-82.5 37q-52 0 -83.5 -37t-31.5 -107z" />
<glyph unicode="&#xc6;" horiz-adv-x="1837" d="M-31 20q0 19 31 19q10 0 26.5 -2.5t32.5 -1.5q62 0 101 88l649 1263q1 2 2 6t2 5q-12 4 -29 4q-19 0 -39.5 -1t-25.5 -1q-25 0 -25 20q0 21 27 21q16 0 64.5 -4t86.5 -4h754q33 0 43 -10.5t12 -41.5l11 -178q2 -33 5 -58.5t3 -33.5q0 -31 -21 -31q-19 0 -22 27 q-1 7 -1.5 32.5t-2.5 57.5q-9 108 -75.5 151.5t-240.5 43.5h-319v-666h244q64 0 99.5 37.5t35.5 93.5q0 15 -1 39t-1 29q0 22 22 22q10 0 15.5 -7t5.5 -15q0 -5 -1 -29t-1 -39q0 -28 -2 -73t-2 -76q0 -32 2 -79.5t2 -76.5q0 -15 1 -38.5t1 -27.5q0 -24 -21 -24q-22 0 -22 24 q0 4 1 27.5t1 38.5q0 61 -34 97t-101 36h-244v-643h362q158 0 230 49t80 146q5 34 5.5 61t0.5 29q1 15 6.5 20.5t17.5 5.5q21 0 21 -33q0 -7 -1 -16t-4 -29.5t-5 -44.5l-17 -178q-2 -30 -12.5 -40.5t-42.5 -10.5h-758q-47 0 -118.5 -4t-90.5 -4q-24 0 -24 20q0 21 22 21 q5 0 26.5 -2t39.5 -2q49 0 64.5 14t15.5 55v426h-408l-211 -413q-22 -44 -11 -60t58 -16q24 -1 47.5 1.5t26.5 2.5q29 0 29 -19q0 -24 -31 -24q-10 0 -65 6t-109 6q-32 0 -82 -6t-80 -6q-31 0 -31 24zM449 563h387v752z" />
<glyph unicode="&#xc7;" horiz-adv-x="1333" d="M109 715q0 218 76.5 384t227.5 260.5t359 94.5q105 0 188.5 -24t135.5 -62t86 -89.5t47.5 -103t13.5 -106.5q0 -53 -33.5 -85t-85.5 -32q-50 0 -80 31t-30 84q0 54 31.5 86.5t82.5 32.5q28 0 58 -15q-30 104 -130.5 172t-262.5 68q-105 0 -189 -37t-140.5 -100.5 t-94 -153t-54 -190.5t-16.5 -217q0 -165 28 -290.5t87 -217.5t155.5 -139.5t229.5 -47.5q195 0 377 91q14 7 32 19.5t29 18.5q25 17 37 -4q5 -11 -1.5 -21.5t-17.5 -15.5q-6 -4 -32 -15t-37 -17q-61 -30 -106 -48t-123.5 -35t-163.5 -18l-35 -77q241 0 241 -154t-231 -154 q-75 0 -143 29q-20 8 -11 25q6 14 27 6l41 -15q27 -8 74 -8q123 0 123 119q0 56 -37 83.5t-119 27.5q-26 0 -14 24l45 94q-146 4 -263.5 52t-203 139t-132 231t-46.5 320z" />
<glyph unicode="&#xc8;" horiz-adv-x="1263" d="M86 18q0 19 25 19q5 0 27 -2t40 -2q46 0 63 13t17 52v1243q0 40 -16.5 53t-65.5 13q-18 0 -39 -4t-26 -4q-23 0 -23 20q0 23 27 23q16 0 87.5 -1t119.5 -1h725q33 0 43 -10.5t12 -40.5l10 -179q2 -33 5 -58.5t3 -33.5q0 -33 -18 -33t-21 29q-1 5 -1 31t-3 59 q-9 105 -76 150t-243 45h-322v-662h174q102 0 154.5 39t52.5 105q0 13 -1 31.5t-1 23.5q0 11 6.5 19t16.5 8q8 0 14 -8.5t6 -18.5q0 -3 -2 -22.5t-2 -32.5q0 -26 -2 -77t-2 -85t2 -88t2 -80q0 -11 2 -30t2 -23q0 -11 -5.5 -20t-14.5 -9q-10 0 -16.5 8.5t-6.5 20.5 q0 3 1 21.5t1 31.5q0 145 -207 145h-174v-655h244q103 0 180 13.5t123.5 35t76 56.5t41.5 70t17 83q4 31 4 84q0 33 25 33q18 0 18 -35q0 -7 -1 -18t-3 -31t-4 -41l-22 -240q-2 -30 -13 -40.5t-43 -10.5h-757q-48 0 -120 -1t-89 -1q-27 0 -27 20zM326 1731q17 32 49 32 q39 0 106 -49q160 -116 221 -158q22 -14 17 -28q-2 -14 -31 -6q-49 19 -142 49.5t-132 44.5q-66 17 -85.5 49t-2.5 66z" />
<glyph unicode="&#xc9;" horiz-adv-x="1263" d="M86 18q0 19 25 19q5 0 27 -2t40 -2q46 0 63 13t17 52v1243q0 40 -16.5 53t-65.5 13q-18 0 -39 -4t-26 -4q-23 0 -23 20q0 23 27 23q16 0 87.5 -1t119.5 -1h725q33 0 43 -10.5t12 -40.5l10 -179q2 -33 5 -58.5t3 -33.5q0 -33 -18 -33t-21 29q-1 5 -1 31t-3 59 q-9 105 -76 150t-243 45h-322v-662h174q102 0 154.5 39t52.5 105q0 13 -1 31.5t-1 23.5q0 11 6.5 19t16.5 8q8 0 14 -8.5t6 -18.5q0 -3 -2 -22.5t-2 -32.5q0 -26 -2 -77t-2 -85t2 -88t2 -80q0 -11 2 -30t2 -23q0 -11 -5.5 -20t-14.5 -9q-10 0 -16.5 8.5t-6.5 20.5 q0 3 1 21.5t1 31.5q0 145 -207 145h-174v-655h244q103 0 180 13.5t123.5 35t76 56.5t41.5 70t17 83q4 31 4 84q0 33 25 33q18 0 18 -35q0 -7 -1 -18t-3 -31t-4 -41l-22 -240q-2 -30 -13 -40.5t-43 -10.5h-757q-48 0 -120 -1t-89 -1q-27 0 -27 20zM557 1524q-4 15 16 28 q38 25 75.5 51t81.5 58.5t67 48.5q64 49 104 49q35 0 49 -33q19 -34 -1.5 -65t-86.5 -49q-32 -12 -127.5 -40.5t-146.5 -51.5q-25 -13 -31 4z" />
<glyph unicode="&#xca;" horiz-adv-x="1263" d="M86 18q0 19 25 19q5 0 27 -2t40 -2q46 0 63 13t17 52v1243q0 40 -16.5 53t-65.5 13q-18 0 -39 -4t-26 -4q-23 0 -23 20q0 23 27 23q16 0 87.5 -1t119.5 -1h725q33 0 43 -10.5t12 -40.5l10 -179q2 -33 5 -58.5t3 -33.5q0 -33 -18 -33t-21 29q-1 5 -1 31t-3 59 q-9 105 -76 150t-243 45h-322v-662h174q102 0 154.5 39t52.5 105q0 13 -1 31.5t-1 23.5q0 11 6.5 19t16.5 8q8 0 14 -8.5t6 -18.5q0 -3 -2 -22.5t-2 -32.5q0 -26 -2 -77t-2 -85t2 -88t2 -80q0 -11 2 -30t2 -23q0 -11 -5.5 -20t-14.5 -9q-10 0 -16.5 8.5t-6.5 20.5 q0 3 1 21.5t1 31.5q0 145 -207 145h-174v-655h244q103 0 180 13.5t123.5 35t76 56.5t41.5 70t17 83q4 31 4 84q0 33 25 33q18 0 18 -35q0 -7 -1 -18t-3 -31t-4 -41l-22 -240q-2 -30 -13 -40.5t-43 -10.5h-757q-48 0 -120 -1t-89 -1q-27 0 -27 20zM336 1513q-9 9 12 27 l246 219q27 27 43 27q14 0 45 -27l244 -219q18 -18 10 -27q-7 -10 -31 5l-268 135l-270 -135q-23 -17 -31 -5z" />
<glyph unicode="&#xcb;" horiz-adv-x="1263" d="M86 18q0 19 25 19q5 0 27 -2t40 -2q46 0 63 13t17 52v1243q0 40 -16.5 53t-65.5 13q-18 0 -39 -4t-26 -4q-23 0 -23 20q0 23 27 23q16 0 87.5 -1t119.5 -1h725q33 0 43 -10.5t12 -40.5l10 -179q2 -33 5 -58.5t3 -33.5q0 -33 -18 -33t-21 29q-1 5 -1 31t-3 59 q-9 105 -76 150t-243 45h-322v-662h174q102 0 154.5 39t52.5 105q0 13 -1 31.5t-1 23.5q0 11 6.5 19t16.5 8q8 0 14 -8.5t6 -18.5q0 -3 -2 -22.5t-2 -32.5q0 -26 -2 -77t-2 -85t2 -88t2 -80q0 -11 2 -30t2 -23q0 -11 -5.5 -20t-14.5 -9q-10 0 -16.5 8.5t-6.5 20.5 q0 3 1 21.5t1 31.5q0 145 -207 145h-174v-655h244q103 0 180 13.5t123.5 35t76 56.5t41.5 70t17 83q4 31 4 84q0 33 25 33q18 0 18 -35q0 -7 -1 -18t-3 -31t-4 -41l-22 -240q-2 -30 -13 -40.5t-43 -10.5h-757q-48 0 -120 -1t-89 -1q-27 0 -27 20zM381 1630q0 45 29 75t69 30 q39 0 65.5 -26.5t26.5 -72.5q0 -43 -29.5 -72.5t-68.5 -29.5q-40 0 -66 26t-26 70zM698 1630q0 45 30 75t69 30q40 0 66 -26.5t26 -72.5q0 -43 -30 -72.5t-71 -29.5q-39 0 -64.5 26.5t-25.5 69.5z" />
<glyph unicode="&#xcc;" horiz-adv-x="700" d="M-6 1700q17 33 49 33q39 0 107 -50q139 -101 221 -157q21 -14 16 -29q-2 -14 -31 -6q-49 19 -142 49.5t-132 44.5q-66 17 -85.5 49t-2.5 66zM88 18q0 9 7 15t18 6q6 0 27 -2t40 -2q47 0 63.5 14.5t16.5 54.5v1221q0 40 -16.5 55t-63.5 15q-19 0 -40 -2t-27 -2 q-23 0 -23 20q0 21 23 21q5 0 28 -2.5t39 -2.5q26 0 83 -2t85 -2q30 0 87 2t83 2q18 0 40.5 2.5t27.5 2.5q22 0 22 -21q0 -20 -22 -20q-6 0 -27.5 2t-40.5 2q-46 0 -62 -15t-16 -55v-1221q0 -40 15.5 -54.5t62.5 -14.5q19 0 40.5 2t27.5 2q26 0 26 -21q0 -20 -26 -20 q-5 0 -27.5 2t-40.5 2q-26 0 -83 2t-87 2q-28 0 -85 -2t-83 -2q-16 0 -39 -2t-28 -2q-25 0 -25 20z" />
<glyph unicode="&#xcd;" horiz-adv-x="700" d="M88 18q0 9 7 15t18 6q6 0 27 -2t40 -2q47 0 63.5 14.5t16.5 54.5v1221q0 40 -16.5 55t-63.5 15q-19 0 -40 -2t-27 -2q-23 0 -23 20q0 21 23 21q5 0 28 -2.5t39 -2.5q26 0 83 -2t85 -2q30 0 87 2t83 2q18 0 40.5 2.5t27.5 2.5q22 0 22 -21q0 -20 -22 -20q-6 0 -27.5 2 t-40.5 2q-46 0 -62 -15t-16 -55v-1221q0 -40 15.5 -54.5t62.5 -14.5q19 0 40.5 2t27.5 2q26 0 26 -21q0 -20 -26 -20q-5 0 -27.5 2t-40.5 2q-26 0 -83 2t-87 2q-28 0 -85 -2t-83 -2q-16 0 -39 -2t-28 -2q-25 0 -25 20zM279 1493q-4 15 16 29q38 25 75.5 51t81.5 58l66 48 q65 50 105 50q35 0 49 -33q19 -34 -1.5 -65.5t-86.5 -49.5q-32 -12 -128 -40.5t-147 -51.5q-25 -12 -30 4z" />
<glyph unicode="&#xce;" horiz-adv-x="700" d="M45 1505q-9 9 12 27l246 219q27 27 43 27q14 0 45 -27l244 -219q19 -18 10 -27q-7 -11 -31 4l-268 136l-270 -136q-23 -16 -31 -4zM88 18q0 9 7 15t18 6q6 0 27 -2t40 -2q47 0 63.5 14.5t16.5 54.5v1221q0 40 -16.5 55t-63.5 15q-19 0 -40 -2t-27 -2q-23 0 -23 20 q0 21 23 21q5 0 28 -2.5t39 -2.5q26 0 83 -2t85 -2q30 0 87 2t83 2q18 0 40.5 2.5t27.5 2.5q22 0 22 -21q0 -20 -22 -20q-6 0 -27.5 2t-40.5 2q-46 0 -62 -15t-16 -55v-1221q0 -40 15.5 -54.5t62.5 -14.5q19 0 40.5 2t27.5 2q26 0 26 -21q0 -20 -26 -20q-5 0 -27.5 2 t-40.5 2q-26 0 -83 2t-87 2q-28 0 -85 -2t-83 -2q-16 0 -39 -2t-28 -2q-25 0 -25 20z" />
<glyph unicode="&#xcf;" horiz-adv-x="700" d="M88 18q0 9 7 15t18 6q6 0 27 -2t40 -2q47 0 63.5 14.5t16.5 54.5v1221q0 40 -16.5 55t-63.5 15q-19 0 -40 -2t-27 -2q-23 0 -23 20q0 21 23 21q5 0 28 -2.5t39 -2.5q26 0 83 -2t85 -2q30 0 87 2t83 2q18 0 40.5 2.5t27.5 2.5q22 0 22 -21q0 -20 -22 -20q-6 0 -27.5 2 t-40.5 2q-46 0 -62 -15t-16 -55v-1221q0 -40 15.5 -54.5t62.5 -14.5q19 0 40.5 2t27.5 2q26 0 26 -21q0 -20 -26 -20q-5 0 -27.5 2t-40.5 2q-26 0 -83 2t-87 2q-28 0 -85 -2t-83 -2q-16 0 -39 -2t-28 -2q-25 0 -25 20zM92 1622q0 45 28.5 74.5t69.5 29.5q39 0 66 -26.5 t27 -71.5q0 -43 -30 -72.5t-69 -29.5q-40 0 -66 26t-26 70zM410 1622q0 45 29.5 74.5t68.5 29.5q40 0 66 -26t26 -72q0 -43 -29.5 -72.5t-70.5 -29.5q-39 0 -64.5 26.5t-25.5 69.5z" />
<glyph unicode="&#xd0;" horiz-adv-x="1486" d="M90 18q0 21 25 21q4 0 24.5 -2t38.5 -2q49 0 65.5 14.5t16.5 54.5v603h-135q-16 0 -21.5 4.5t-5.5 19.5q0 17 25 17h137v581q0 42 -16.5 56t-65.5 14q-18 0 -38.5 -2t-24.5 -2q-25 0 -25 20q0 23 27 23q17 0 101 -4t132 -4q67 0 144.5 3t101.5 3q180 0 320.5 -40.5 t245 -125.5t159.5 -225.5t55 -331.5q0 -713 -780 -713q-43 0 -126.5 3t-121.5 3q-34 0 -124 -4t-103 -4q-18 0 -24.5 4t-6.5 16zM440 96q0 -21 8 -32t40.5 -18t97.5 -7q316 0 457 159.5t141 522.5q0 249 -65.5 397.5t-198.5 213.5t-351 65q-60 0 -87 -6t-34.5 -18t-7.5 -40 v-585h426q27 0 27 -17q0 -14 -6.5 -19t-22.5 -5h-424v-611z" />
<glyph unicode="&#xd1;" horiz-adv-x="1499" d="M88 18q0 9 6 15t15 6q7 0 28.5 -2t38.5 -2q49 0 65.5 14.5t16.5 54.5v1229q0 40 -16.5 54t-65.5 14q-18 0 -39 -1t-26 -1q-23 0 -23 20q0 21 25 21q11 0 66 -4t95 -4h109q20 0 31.5 -6.5t23.5 -24.5l764 -1090v1016q0 40 -16 55t-62 15q-19 0 -40 -2t-27 -2q-23 0 -23 20 q0 21 23 21q4 0 27 -2t40 -2q18 0 51.5 -2.5t53.5 -2.5q19 0 52 2.5t54 2.5q16 0 39 2t29 2q22 0 22 -21q0 -20 -22 -20q-7 0 -29 2t-39 2q-49 0 -65.5 -15t-16.5 -55v-1315q0 -37 -16 -37q-17 0 -39 35l-891 1266v-1172q0 -40 16.5 -54.5t65.5 -14.5q17 0 38.5 2t27.5 2 q22 0 22 -21q0 -20 -22 -20q-4 0 -26.5 2t-39.5 2q-19 0 -53 2t-53 2t-52.5 -2t-54.5 -2q-15 0 -38.5 -2t-28.5 -2q-21 0 -21 20zM489 1563q0 87 30.5 134.5t92.5 47.5q35 0 76.5 -16.5t73 -37t67.5 -37t62 -16.5q55 0 55 82q0 25 19 25q18 0 18 -33q0 -188 -123 -188 q-51 0 -106.5 26.5t-103 53t-77.5 26.5q-45 0 -45 -84q0 -22 -22 -22q-17 0 -17 39z" />
<glyph unicode="&#xd2;" horiz-adv-x="1533" d="M109 711q0 76 9.5 148.5t31.5 147.5t56 139.5t86.5 122t119 98t157 64t197.5 23.5q142 0 255.5 -41t188 -110.5t124 -165.5t70.5 -200.5t21 -221.5q0 -107 -18.5 -206.5t-65.5 -199t-119.5 -172.5t-189.5 -118.5t-266 -45.5q-142 0 -255.5 41.5t-187.5 111t-123 166 t-70 200t-21 219.5zM297 715q0 -699 469 -699q82 0 149 20.5t115 55.5t84.5 87.5t59 110.5t36.5 130t19.5 141t5.5 148q0 92 -8 171.5t-26.5 162t-53.5 146.5t-85 115.5t-125.5 79t-170.5 27.5q-92 0 -166 -25.5t-124.5 -74t-86 -110.5t-55.5 -143t-28.5 -163.5t-8.5 -179.5 zM430 1743q17 33 49 33q39 0 107 -50q139 -101 221 -157q21 -14 16 -29q-2 -14 -30 -6q-49 19 -142.5 49.5t-132.5 44.5q-66 17 -85.5 49t-2.5 66z" />
<glyph unicode="&#xd3;" horiz-adv-x="1533" d="M109 711q0 76 9.5 148.5t31.5 147.5t56 139.5t86.5 122t119 98t157 64t197.5 23.5q142 0 255.5 -41t188 -110.5t124 -165.5t70.5 -200.5t21 -221.5q0 -107 -18.5 -206.5t-65.5 -199t-119.5 -172.5t-189.5 -118.5t-266 -45.5q-142 0 -255.5 41.5t-187.5 111t-123 166 t-70 200t-21 219.5zM297 715q0 -699 469 -699q82 0 149 20.5t115 55.5t84.5 87.5t59 110.5t36.5 130t19.5 141t5.5 148q0 92 -8 171.5t-26.5 162t-53.5 146.5t-85 115.5t-125.5 79t-170.5 27.5q-92 0 -166 -25.5t-124.5 -74t-86 -110.5t-55.5 -143t-28.5 -163.5t-8.5 -179.5 zM686 1536q-4 15 16 29q39 25 75.5 50.5t82.5 59t66 47.5q65 50 104 50q35 0 49 -33q19 -34 -1.5 -65.5t-86.5 -49.5q-32 -12 -127.5 -40.5t-146.5 -51.5q-25 -13 -31 4z" />
<glyph unicode="&#xd4;" horiz-adv-x="1533" d="M109 711q0 76 9.5 148.5t31.5 147.5t56 139.5t86.5 122t119 98t157 64t197.5 23.5q142 0 255.5 -41t188 -110.5t124 -165.5t70.5 -200.5t21 -221.5q0 -107 -18.5 -206.5t-65.5 -199t-119.5 -172.5t-189.5 -118.5t-266 -45.5q-142 0 -255.5 41.5t-187.5 111t-123 166 t-70 200t-21 219.5zM297 715q0 -699 469 -699q82 0 149 20.5t115 55.5t84.5 87.5t59 110.5t36.5 130t19.5 141t5.5 148q0 92 -8 171.5t-26.5 162t-53.5 146.5t-85 115.5t-125.5 79t-170.5 27.5q-92 0 -166 -25.5t-124.5 -74t-86 -110.5t-55.5 -143t-28.5 -163.5t-8.5 -179.5 zM465 1528q-8 8 12 26l246 220q26 26 43 26q15 0 45 -26l244 -220q18 -18 10 -26q-7 -11 -31 4l-268 135l-270 -135q-23 -16 -31 -4z" />
<glyph unicode="&#xd5;" horiz-adv-x="1533" d="M109 711q0 76 9.5 148.5t31.5 147.5t56 139.5t86.5 122t119 98t157 64t197.5 23.5q142 0 255.5 -41t188 -110.5t124 -165.5t70.5 -200.5t21 -221.5q0 -107 -18.5 -206.5t-65.5 -199t-119.5 -172.5t-189.5 -118.5t-266 -45.5q-142 0 -255.5 41.5t-187.5 111t-123 166 t-70 200t-21 219.5zM297 715q0 -699 469 -699q82 0 149 20.5t115 55.5t84.5 87.5t59 110.5t36.5 130t19.5 141t5.5 148q0 92 -8 171.5t-26.5 162t-53.5 146.5t-85 115.5t-125.5 79t-170.5 27.5q-92 0 -166 -25.5t-124.5 -74t-86 -110.5t-55.5 -143t-28.5 -163.5t-8.5 -179.5 zM514 1577q0 87 30.5 134.5t92.5 47.5q44 0 97 -26.5t101 -53t80 -26.5q56 0 56 82q0 24 18 24q19 0 19 -33q0 -188 -123 -188q-51 0 -106.5 27t-103 53.5t-77.5 26.5q-45 0 -45 -84q0 -23 -23 -23q-9 0 -12.5 8t-3.5 31z" />
<glyph unicode="&#xd6;" horiz-adv-x="1533" d="M109 711q0 76 9.5 148.5t31.5 147.5t56 139.5t86.5 122t119 98t157 64t197.5 23.5q142 0 255.5 -41t188 -110.5t124 -165.5t70.5 -200.5t21 -221.5q0 -107 -18.5 -206.5t-65.5 -199t-119.5 -172.5t-189.5 -118.5t-266 -45.5q-142 0 -255.5 41.5t-187.5 111t-123 166 t-70 200t-21 219.5zM297 715q0 -699 469 -699q82 0 149 20.5t115 55.5t84.5 87.5t59 110.5t36.5 130t19.5 141t5.5 148q0 92 -8 171.5t-26.5 162t-53.5 146.5t-85 115.5t-125.5 79t-170.5 27.5q-92 0 -166 -25.5t-124.5 -74t-86 -110.5t-55.5 -143t-28.5 -163.5t-8.5 -179.5 zM512 1645q0 45 28.5 74.5t69.5 29.5q39 0 65.5 -26.5t26.5 -71.5q0 -43 -29.5 -73t-68.5 -30q-40 0 -66 26.5t-26 70.5zM829 1645q0 45 29.5 74.5t69.5 29.5t66 -26t26 -72q0 -43 -30 -73t-70 -30q-39 0 -65 27t-26 70z" />
<glyph unicode="&#xd7;" horiz-adv-x="948" d="M72 578q0 22 24 22h350v348q0 25 23 25q18 0 22.5 -6t4.5 -27v-340h356q16 0 20.5 -5t4.5 -15q0 -14 -6.5 -18.5t-26.5 -4.5h-348v-373q0 -16 -5.5 -21t-17.5 -5q-17 0 -22 5t-5 19v375h-348q-18 0 -22 3t-4 18z" />
<glyph unicode="&#xd8;" horiz-adv-x="1533" d="M109 711q0 76 9.5 148.5t31.5 147.5t56 139.5t86.5 122t119 98t157 64t197.5 23.5q146 0 264 -45l49 119q10 23 16.5 28.5t24.5 -0.5q13 -3 13.5 -14t-9.5 -33l-49 -118q92 -43 161 -115.5t109.5 -163t60 -189.5t19.5 -208q0 -107 -18.5 -206.5t-65.5 -199t-119.5 -172.5 t-189.5 -118.5t-266 -45.5q-141 0 -262 43l-51 -127q-7 -16 -16.5 -18.5t-20.5 2.5q-21 8 -8 39l51 123q-93 44 -162 116.5t-109.5 163t-59.5 189t-19 207.5zM297 715q0 -450 190 -609l519 1244q-99 61 -240 61q-92 0 -166 -25.5t-124.5 -74t-86 -110.5t-55.5 -143 t-28.5 -163.5t-8.5 -179.5zM530 76q94 -60 236 -60q82 0 149 20.5t115 55.5t84.5 87.5t59 110.5t36.5 130t19.5 141t5.5 148q0 448 -191 610z" />
<glyph unicode="&#xd9;" horiz-adv-x="1499" d="M61 1411q0 21 23 21q4 0 27.5 -2.5t40.5 -2.5q26 0 83 -2t87 -2q28 0 85 2t85 2q15 0 37.5 2.5t27.5 2.5q23 0 23 -21q0 -20 -23 -20q-6 0 -27 2t-38 2q-49 0 -65.5 -15t-16.5 -55v-790q0 -255 87 -380.5t296 -125.5q211 0 317.5 126.5t106.5 372.5v797q0 40 -16.5 55 t-63.5 15q-17 0 -39 -2t-29 -2q-20 0 -20 20q0 21 20 21q5 0 28.5 -2.5t39.5 -2.5q19 0 53.5 -2t50.5 -2q19 0 52.5 2t54.5 2q16 0 39 2.5t28 2.5q23 0 23 -21q0 -20 -23 -20q-6 0 -27 2t-40 2q-47 0 -63.5 -15t-16.5 -55v-797q0 -280 -126 -417.5t-390 -137.5 q-268 0 -395.5 140t-127.5 419v793q0 41 -15.5 55.5t-61.5 14.5q-19 0 -40.5 -2t-27.5 -2q-23 0 -23 20zM467 1720q17 33 49 33q40 0 107 -49q160 -116 221 -158q21 -14 16 -28q-3 -15 -31 -7q-49 19 -142.5 50t-131.5 45q-66 17 -85.5 48.5t-2.5 65.5z" />
<glyph unicode="&#xda;" horiz-adv-x="1499" d="M61 1411q0 21 23 21q4 0 27.5 -2.5t40.5 -2.5q26 0 83 -2t87 -2q28 0 85 2t85 2q15 0 37.5 2.5t27.5 2.5q23 0 23 -21q0 -20 -23 -20q-6 0 -27 2t-38 2q-49 0 -65.5 -15t-16.5 -55v-790q0 -255 87 -380.5t296 -125.5q211 0 317.5 126.5t106.5 372.5v797q0 40 -16.5 55 t-63.5 15q-17 0 -39 -2t-29 -2q-20 0 -20 20q0 21 20 21q5 0 28.5 -2.5t39.5 -2.5q19 0 53.5 -2t50.5 -2q19 0 52.5 2t54.5 2q16 0 39 2.5t28 2.5q23 0 23 -21q0 -20 -23 -20q-6 0 -27 2t-40 2q-47 0 -63.5 -15t-16.5 -55v-797q0 -280 -126 -417.5t-390 -137.5 q-268 0 -395.5 140t-127.5 419v793q0 41 -15.5 55.5t-61.5 14.5q-19 0 -40.5 -2t-27.5 -2q-23 0 -23 20zM723 1513q-4 15 16 29q38 25 75.5 51t81.5 58.5t67 48.5q64 49 104 49q35 0 49 -33q19 -34 -1.5 -65t-86.5 -49q-31 -12 -127 -41t-147 -52q-25 -13 -31 4z" />
<glyph unicode="&#xdb;" horiz-adv-x="1499" d="M61 1411q0 21 23 21q4 0 27.5 -2.5t40.5 -2.5q26 0 83 -2t87 -2q28 0 85 2t85 2q15 0 37.5 2.5t27.5 2.5q23 0 23 -21q0 -20 -23 -20q-6 0 -27 2t-38 2q-49 0 -65.5 -15t-16.5 -55v-790q0 -255 87 -380.5t296 -125.5q211 0 317.5 126.5t106.5 372.5v797q0 40 -16.5 55 t-63.5 15q-17 0 -39 -2t-29 -2q-20 0 -20 20q0 21 20 21q5 0 28.5 -2.5t39.5 -2.5q19 0 53.5 -2t50.5 -2q19 0 52.5 2t54.5 2q16 0 39 2.5t28 2.5q23 0 23 -21q0 -20 -23 -20q-6 0 -27 2t-40 2q-47 0 -63.5 -15t-16.5 -55v-797q0 -280 -126 -417.5t-390 -137.5 q-268 0 -395.5 140t-127.5 419v793q0 41 -15.5 55.5t-61.5 14.5q-19 0 -40.5 -2t-27.5 -2q-23 0 -23 20zM502 1505q-9 9 12 27l246 219q27 27 43 27q14 0 45 -27l244 -219q18 -18 10 -27q-7 -11 -31 4l-268 136l-271 -136q-22 -16 -30 -4z" />
<glyph unicode="&#xdc;" horiz-adv-x="1499" d="M61 1411q0 21 23 21q4 0 27.5 -2.5t40.5 -2.5q26 0 83 -2t87 -2q28 0 85 2t85 2q15 0 37.5 2.5t27.5 2.5q23 0 23 -21q0 -20 -23 -20q-6 0 -27 2t-38 2q-49 0 -65.5 -15t-16.5 -55v-790q0 -255 87 -380.5t296 -125.5q211 0 317.5 126.5t106.5 372.5v797q0 40 -16.5 55 t-63.5 15q-17 0 -39 -2t-29 -2q-20 0 -20 20q0 21 20 21q5 0 28.5 -2.5t39.5 -2.5q19 0 53.5 -2t50.5 -2q19 0 52.5 2t54.5 2q16 0 39 2.5t28 2.5q23 0 23 -21q0 -20 -23 -20q-6 0 -27 2t-40 2q-47 0 -63.5 -15t-16.5 -55v-797q0 -280 -126 -417.5t-390 -137.5 q-268 0 -395.5 140t-127.5 419v793q0 41 -15.5 55.5t-61.5 14.5q-19 0 -40.5 -2t-27.5 -2q-23 0 -23 20zM549 1622q0 45 28.5 74.5t69.5 29.5q39 0 65.5 -26.5t26.5 -71.5q0 -43 -29.5 -72.5t-68.5 -29.5q-40 0 -66 26t-26 70zM866 1622q0 44 30 74t69 30q40 0 66 -26 t26 -72q0 -43 -30 -72.5t-71 -29.5q-39 0 -64.5 26.5t-25.5 69.5z" />
<glyph unicode="&#xdd;" horiz-adv-x="1314" d="M-27 1417q0 23 29 23q32 0 123.5 -4t122.5 -4q70 0 146 4t83 4q33 0 33 -25q0 -16 -29 -16q-5 0 -28 2t-47 2q-23 0 -33 -4t-11.5 -17t6.5 -34.5t27 -59.5l328 -635l350 688q21 38 17 49q-5 13 -39 13q-16 0 -42 -2t-32 -2q-31 0 -31 16q0 25 35 25q5 0 43 -4t109 -4 q31 0 78 4t79 4q29 0 29 -23q0 -18 -29 -18q-12 0 -28.5 2t-26.5 2q-45 0 -67 -13.5t-46 -58.5l-366 -715v-512q0 -41 15.5 -55t64.5 -14q18 0 39 2t28 2q23 0 23 -21q0 -20 -23 -20q-5 0 -27 2t-40 2q-26 0 -83.5 2t-86.5 2q-28 0 -85 -2t-85 -2q-16 0 -38.5 -2t-27.5 -2 q-22 0 -22 20q0 21 22 21q6 0 27.5 -2t38.5 -2q49 0 65.5 14.5t16.5 54.5v474l-404 753q-19 35 -40.5 51.5t-34 18.5t-38.5 2q-13 0 -29 -2t-30 -2q-29 0 -29 18zM569 1513q-4 15 17 29q38 24 76 51t80.5 58.5t66.5 48.5q64 49 104 49q36 0 50 -33q19 -34 -2 -65t-87 -49 q-31 -12 -127 -41t-147 -52q-25 -13 -31 4z" />
<glyph unicode="&#xde;" horiz-adv-x="1275" d="M88 18q0 9 7 15t18 6q6 0 27 -2t40 -2q47 0 63.5 14.5t16.5 54.5v1221q0 40 -16.5 55t-63.5 15q-19 0 -40 -2t-27 -2q-23 0 -23 20q0 21 23 21q5 0 28 -2.5t39 -2.5q26 0 83 -2t85 -2q30 0 87 2t83 2q18 0 40.5 2.5t27.5 2.5q22 0 22 -21q0 -20 -22 -20q-6 0 -27.5 2 t-40.5 2q-46 0 -62 -15t-16 -55v-133h144q302 0 450 -101t148 -339q0 -239 -150 -346t-448 -107h-144v-195q0 -40 15.5 -54.5t62.5 -14.5q19 0 40.5 2t27.5 2q26 0 26 -21q0 -20 -26 -20q-5 0 -27.5 2t-40.5 2q-26 0 -83 2t-87 2q-28 0 -85 -2t-83 -2q-16 0 -39 -2t-28 -2 q-25 0 -25 20zM440 340h142q212 0 311.5 100.5t99.5 313.5q0 210 -99.5 303.5t-315.5 93.5h-138v-811z" />
<glyph unicode="&#xdf;" horiz-adv-x="1224" d="M70 18q0 21 20 21q4 0 21 -2t34 -2q42 0 56 14.5t14 54.5v1047q0 88 23 159t71.5 126.5t132 85.5t197.5 30q206 0 314 -100.5t108 -267.5q0 -103 -48 -181t-122 -119t-164 -50q63 -5 118 -20.5t108.5 -48t91.5 -79.5t61.5 -119.5t23.5 -163.5q0 -194 -105 -303.5 t-282 -109.5q-130 0 -204 71l-3 3q-14 14 -18 21t0 21q15 20 47 -12q67 -61 148 -61q105 0 171 94.5t66 275.5q0 406 -334 406h-41q-30 0 -30 22q0 21 35 21h28q56 0 103.5 17.5t87 54t62 100.5t22.5 150q0 160 -66.5 247.5t-177.5 87.5q-252 0 -252 -356v-1049 q0 -40 14.5 -54.5t55.5 -14.5q17 0 34 2t21 2q20 0 20 -21q0 -20 -20 -20q-2 0 -7 1t-17.5 2t-30.5 1q-15 0 -75 2t-79 2q-20 0 -81 -2t-77 -2q-17 -1 -29 -2t-17 -1.5t-7 -0.5q-22 0 -22 20z" />
<glyph unicode="&#xe0;" horiz-adv-x="1138" d="M92 276q0 71 23 125t65.5 89.5t107 58t142 32t176.5 9.5h156v55q0 208 -75.5 299.5t-227.5 91.5q-98 0 -161.5 -34t-90.5 -93q27 17 53 17q36 0 67 -29.5t31 -77.5q0 -46 -31.5 -76t-76.5 -30q-41 0 -69.5 28t-28.5 68v8q3 126 87.5 194t249.5 68q219 0 331 -112.5 t112 -350.5v-419q0 -164 100 -164q16 0 32 5.5t23 10t20 15.5l13 10q22 22 37 4q12 -15 -14 -37q-64 -51 -168 -51q-95 0 -148 50t-63 157q-40 -92 -127 -150.5t-217 -58.5q-148 0 -238 72t-90 216zM209 1407q17 33 49 33q40 0 107 -49q160 -116 221 -158q21 -14 16 -29 q-2 -14 -31 -6q-49 19 -142 49.5t-132 44.5q-66 17 -85.5 49t-2.5 66zM264 274q0 -121 54 -179t149 -58q91 0 168 65q60 48 93.5 127.5t33.5 178.5v141h-156q-182 0 -262 -64t-80 -211z" />
<glyph unicode="&#xe1;" horiz-adv-x="1138" d="M92 276q0 71 23 125t65.5 89.5t107 58t142 32t176.5 9.5h156v55q0 208 -75.5 299.5t-227.5 91.5q-98 0 -161.5 -34t-90.5 -93q27 17 53 17q36 0 67 -29.5t31 -77.5q0 -46 -31.5 -76t-76.5 -30q-41 0 -69.5 28t-28.5 68v8q3 126 87.5 194t249.5 68q219 0 331 -112.5 t112 -350.5v-419q0 -164 100 -164q16 0 32 5.5t23 10t20 15.5l13 10q22 22 37 4q12 -15 -14 -37q-64 -51 -168 -51q-95 0 -148 50t-63 157q-40 -92 -127 -150.5t-217 -58.5q-148 0 -238 72t-90 216zM264 274q0 -121 54 -179t149 -58q91 0 168 65q60 48 93.5 127.5 t33.5 178.5v141h-156q-182 0 -262 -64t-80 -211zM465 1200q-4 15 16 29q39 25 75.5 50.5t82.5 59t66 47.5q65 50 104 50q35 0 49 -33q19 -34 -1.5 -65.5t-86.5 -49.5q-32 -12 -127.5 -40.5t-146.5 -51.5q-25 -13 -31 4z" />
<glyph unicode="&#xe2;" horiz-adv-x="1138" d="M92 276q0 71 23 125t65.5 89.5t107 58t142 32t176.5 9.5h156v55q0 208 -75.5 299.5t-227.5 91.5q-98 0 -161.5 -34t-90.5 -93q27 17 53 17q36 0 67 -29.5t31 -77.5q0 -46 -31.5 -76t-76.5 -30q-41 0 -69.5 28t-28.5 68v8q3 126 87.5 194t249.5 68q219 0 331 -112.5 t112 -350.5v-419q0 -164 100 -164q16 0 32 5.5t23 10t20 15.5l13 10q22 22 37 4q12 -15 -14 -37q-64 -51 -168 -51q-95 0 -148 50t-63 157q-40 -92 -127 -150.5t-217 -58.5q-148 0 -238 72t-90 216zM244 1192q-9 9 12 27l246 219q26 26 43 26q15 0 45 -26l244 -219 q18 -19 10 -27q-7 -11 -31 4l-268 135l-271 -135q-22 -16 -30 -4zM264 274q0 -121 54 -179t149 -58q91 0 168 65q60 48 93.5 127.5t33.5 178.5v141h-156q-182 0 -262 -64t-80 -211z" />
<glyph unicode="&#xe3;" horiz-adv-x="1138" d="M92 276q0 71 23 125t65.5 89.5t107 58t142 32t176.5 9.5h156v55q0 208 -75.5 299.5t-227.5 91.5q-98 0 -161.5 -34t-90.5 -93q27 17 53 17q36 0 67 -29.5t31 -77.5q0 -46 -31.5 -76t-76.5 -30q-41 0 -69.5 28t-28.5 68v8q3 126 87.5 194t249.5 68q219 0 331 -112.5 t112 -350.5v-419q0 -164 100 -164q16 0 32 5.5t23 10t20 15.5l13 10q22 22 37 4q12 -15 -14 -37q-64 -51 -168 -51q-95 0 -148 50t-63 157q-40 -92 -127 -150.5t-217 -58.5q-148 0 -238 72t-90 216zM264 274q0 -121 54 -179t149 -58q91 0 168 65q60 48 93.5 127.5 t33.5 178.5v141h-156q-182 0 -262 -64t-80 -211zM293 1241q0 87 30.5 134.5t92.5 47.5q44 0 97 -26.5t101 -53t80 -26.5q56 0 56 82q0 24 18 24t18 -32q0 -189 -122 -189q-51 0 -106.5 27t-103 53.5t-77.5 26.5q-45 0 -45 -84q0 -23 -23 -23q-9 0 -12.5 8t-3.5 31z" />
<glyph unicode="&#xe4;" horiz-adv-x="1138" d="M92 276q0 71 23 125t65.5 89.5t107 58t142 32t176.5 9.5h156v55q0 208 -75.5 299.5t-227.5 91.5q-98 0 -161.5 -34t-90.5 -93q27 17 53 17q36 0 67 -29.5t31 -77.5q0 -46 -31.5 -76t-76.5 -30q-41 0 -69.5 28t-28.5 68v8q3 126 87.5 194t249.5 68q219 0 331 -112.5 t112 -350.5v-419q0 -164 100 -164q16 0 32 5.5t23 10t20 15.5l13 10q22 22 37 4q12 -15 -14 -37q-64 -51 -168 -51q-95 0 -148 50t-63 157q-40 -92 -127 -150.5t-217 -58.5q-148 0 -238 72t-90 216zM264 274q0 -121 54 -179t149 -58q91 0 168 65q60 48 93.5 127.5 t33.5 178.5v141h-156q-182 0 -262 -64t-80 -211zM291 1309q0 45 28.5 74.5t69.5 29.5q39 0 65.5 -26.5t26.5 -71.5q0 -43 -29.5 -73t-68.5 -30q-40 0 -66 26.5t-26 70.5zM608 1309q0 45 30 74.5t69 29.5q40 0 66 -26t26 -72q0 -43 -30 -73t-71 -30q-39 0 -64.5 26.5 t-25.5 70.5z" />
<glyph unicode="&#xe5;" horiz-adv-x="1138" d="M92 276q0 71 23 125t65.5 89.5t107 58t142 32t176.5 9.5h156v55q0 208 -75.5 299.5t-227.5 91.5q-98 0 -161.5 -34t-90.5 -93q27 17 53 17q36 0 67 -29.5t31 -77.5q0 -46 -31.5 -76t-76.5 -30q-41 0 -69.5 28t-28.5 68v8q3 126 87.5 194t249.5 68q219 0 331 -112.5 t112 -350.5v-419q0 -164 100 -164q16 0 32 5.5t23 10t20 15.5l13 10q22 22 37 4q12 -15 -14 -37q-64 -51 -168 -51q-95 0 -148 50t-63 157q-40 -92 -127 -150.5t-217 -58.5q-148 0 -238 72t-90 216zM264 274q0 -121 54 -179t149 -58q91 0 168 65q60 48 93.5 127.5 t33.5 178.5v141h-156q-182 0 -262 -64t-80 -211zM309 1341q0 76 65.5 123t170.5 47t170 -47t65 -123q0 -78 -65 -126t-170 -48q-103 0 -169.5 48.5t-66.5 125.5zM430 1341q0 -71 32.5 -108t82.5 -37t82 36.5t32 108.5q0 70 -31.5 107t-82.5 37t-83 -37t-32 -107z" />
<glyph unicode="&#xe6;" horiz-adv-x="1763" d="M92 262q0 92 37.5 156.5t113.5 101.5t179 53.5t246 16.5h94v65q0 205 -71.5 294t-215.5 89q-209 0 -264 -133q19 13 45 13q41 0 71.5 -29t30.5 -78q0 -48 -32.5 -78.5t-75.5 -30.5q-42 0 -70 28.5t-28 74.5v8q3 266 352 266q285 0 379 -190q125 190 381 190 q192 0 293.5 -78t101.5 -225q0 -327 -451 -327q-141 0 -241 18q5 -123 31 -208.5t73.5 -134.5t107.5 -70t142 -21q129 0 256 55q19 7 37 20.5t24 16.5q30 13 37 -2q14 -21 -14 -37q-13 -8 -39 -19t-33 -14q-138 -69 -297 -69q-324 0 -444 243q-44 -105 -156 -172t-289 -67 q-152 0 -231.5 70t-79.5 204zM264 258q0 -221 180 -221q117 0 191 65q127 111 127 330v117h-94q-213 0 -308.5 -67t-95.5 -224zM967 512q114 -20 237 -20q295 0 295 294q0 123 -60 187.5t-175 64.5q-141 0 -219 -127t-78 -385v-14z" />
<glyph unicode="&#xe7;" horiz-adv-x="1046" d="M96 520q0 261 134.5 410t367.5 149q94 0 166.5 -25t112.5 -66t59.5 -87t19.5 -94q0 -54 -28 -85.5t-80 -31.5q-50 0 -80.5 31.5t-30.5 79.5q0 54 31 85.5t80 31.5q22 0 41 -15q-33 60 -101.5 97.5t-164.5 37.5q-344 0 -344 -510q0 -243 85.5 -369t278.5 -126 q123 0 231 55q26 13 50 33q21 14 30.5 15.5t18.5 -9.5q16 -20 -25 -41q-9 -6 -59 -31q-136 -66 -264 -71l-37 -82q241 0 241 -154t-231 -154q-75 0 -143 29q-20 8 -11 25q6 14 27 6l41 -14q30 -9 74 -9q123 0 123 119q0 56 -37 83.5t-119 27.5q-26 0 -14 24l47 99 q-242 3 -366 145.5t-124 390.5z" />
<glyph unicode="&#xe8;" horiz-adv-x="1067" d="M98 522q0 255 122 406t351 151q183 0 287.5 -85t104.5 -240q0 -308 -474 -308h-208q6 -117 31 -198t69 -127.5t99.5 -67t129.5 -20.5q144 0 269 53q16 6 27 13t21.5 14.5t16.5 11.5q27 12 35 -2q14 -20 -14 -37q-1 -1 -70 -33q-76 -35 -145 -52t-160 -17 q-246 0 -369 142.5t-123 395.5zM238 1407q17 33 49 33q39 0 106 -49q160 -116 221 -158q22 -15 17 -29q-2 -14 -31 -6q-49 19 -142 49.5t-132 44.5q-66 17 -85.5 49t-2.5 66zM279 489h208q163 0 239.5 68t76.5 205q0 135 -59.5 205.5t-172.5 70.5q-292 0 -292 -512v-37z" />
<glyph unicode="&#xe9;" horiz-adv-x="1067" d="M98 522q0 255 122 406t351 151q183 0 287.5 -85t104.5 -240q0 -308 -474 -308h-208q6 -117 31 -198t69 -127.5t99.5 -67t129.5 -20.5q144 0 269 53q16 6 27 13t21.5 14.5t16.5 11.5q27 12 35 -2q14 -20 -14 -37q-1 -1 -70 -33q-76 -35 -145 -52t-160 -17 q-246 0 -369 142.5t-123 395.5zM279 489h208q163 0 239.5 68t76.5 205q0 135 -59.5 205.5t-172.5 70.5q-292 0 -292 -512v-37zM496 1200q-4 15 16 29q38 25 75.5 51t81.5 58l66 48q65 50 105 50q35 0 49 -33q19 -34 -1.5 -65.5t-86.5 -49.5q-32 -12 -128 -40.5t-147 -51.5 q-25 -12 -30 4z" />
<glyph unicode="&#xea;" horiz-adv-x="1067" d="M98 522q0 255 122 406t351 151q183 0 287.5 -85t104.5 -240q0 -308 -474 -308h-208q6 -117 31 -198t69 -127.5t99.5 -67t129.5 -20.5q144 0 269 53q16 6 27 13t21.5 14.5t16.5 11.5q27 12 35 -2q14 -20 -14 -37q-1 -1 -70 -33q-76 -35 -145 -52t-160 -17 q-246 0 -369 142.5t-123 395.5zM272 1192q-9 9 13 27l245 219q26 26 43 26q15 0 45 -26l244 -219q18 -19 10 -27q-7 -10 -30 4l-269 135l-270 -135q-23 -16 -31 -4zM279 489h208q163 0 239.5 68t76.5 205q0 135 -59.5 205.5t-172.5 70.5q-292 0 -292 -512v-37z" />
<glyph unicode="&#xeb;" horiz-adv-x="1067" d="M98 522q0 255 122 406t351 151q183 0 287.5 -85t104.5 -240q0 -308 -474 -308h-208q6 -117 31 -198t69 -127.5t99.5 -67t129.5 -20.5q144 0 269 53q16 6 27 13t21.5 14.5t16.5 11.5q27 12 35 -2q14 -20 -14 -37q-1 -1 -70 -33q-76 -35 -145 -52t-160 -17 q-246 0 -369 142.5t-123 395.5zM279 489h208q163 0 239.5 68t76.5 205q0 135 -59.5 205.5t-172.5 70.5q-292 0 -292 -512v-37zM319 1309q0 45 29 74.5t70 29.5q39 0 65.5 -26.5t26.5 -71.5q0 -43 -29.5 -73t-68.5 -30q-40 0 -66.5 26.5t-26.5 70.5zM637 1309q0 45 29.5 74.5 t68.5 29.5q40 0 66 -26t26 -72q0 -43 -29.5 -73t-70.5 -30q-39 0 -64.5 26.5t-25.5 70.5z" />
<glyph unicode="&#xec;" horiz-adv-x="630" d="M-8 1386q17 33 49 33q39 0 106 -49q146 -106 222 -158q21 -14 16 -28q-2 -14 -31 -6q-49 19 -142 49.5t-132 44.5q-66 17 -85.5 48.5t-2.5 65.5zM68 989q0 21 26 21q6 0 27 -1t31 -1q57 0 114.5 12.5t89.5 34.5q25 22 41 22q9 0 12 -5.5t3 -20.5v-947q0 -41 15.5 -55 t64.5 -14q17 0 38 2t27 2q23 0 23 -21q0 -20 -23 -20q-4 0 -26 2t-39 2q-27 0 -82 2t-84 2t-84 -2t-82 -2q-16 0 -39.5 -2t-28.5 -2q-22 0 -22 20q0 21 22 21q7 0 28.5 -2t39.5 -2q47 0 63.5 14.5t16.5 54.5v789q0 47 -18 63.5t-72 16.5q-10 0 -30.5 -1t-25.5 -1 q-26 0 -26 18z" />
<glyph unicode="&#xed;" horiz-adv-x="630" d="M68 989q0 21 26 21q6 0 27 -1t31 -1q57 0 114.5 12.5t89.5 34.5q25 22 41 22q9 0 12 -5.5t3 -20.5v-947q0 -41 15.5 -55t64.5 -14q17 0 38 2t27 2q23 0 23 -21q0 -20 -23 -20q-4 0 -26 2t-39 2q-27 0 -82 2t-84 2t-84 -2t-82 -2q-16 0 -39.5 -2t-28.5 -2q-22 0 -22 20 q0 21 22 21q7 0 28.5 -2t39.5 -2q47 0 63.5 14.5t16.5 54.5v789q0 47 -18 63.5t-72 16.5q-10 0 -30.5 -1t-25.5 -1q-26 0 -26 18zM248 1180q-4 15 16 28q38 24 76 51t80.5 58.5t66.5 48.5q64 49 105 49q35 0 49 -33q19 -34 -1.5 -65t-86.5 -49q-32 -12 -127.5 -40.5 t-146.5 -51.5q-25 -13 -31 4z" />
<glyph unicode="&#xee;" horiz-adv-x="630" d="M27 1169q-9 9 12 27l246 219q27 27 43 27q14 0 45 -27l243 -219q19 -19 11 -27q-7 -10 -31 5l-268 135l-271 -135q-23 -16 -30 -5zM68 989q0 21 26 21q6 0 27 -1t31 -1q57 0 114.5 12.5t89.5 34.5q25 22 41 22q9 0 12 -5.5t3 -20.5v-947q0 -41 15.5 -55t64.5 -14 q17 0 38 2t27 2q23 0 23 -21q0 -20 -23 -20q-4 0 -26 2t-39 2q-27 0 -82 2t-84 2t-84 -2t-82 -2q-16 0 -39.5 -2t-28.5 -2q-22 0 -22 20q0 21 22 21q7 0 28.5 -2t39.5 -2q47 0 63.5 14.5t16.5 54.5v789q0 47 -18 63.5t-72 16.5q-10 0 -30.5 -1t-25.5 -1q-26 0 -26 18z" />
<glyph unicode="&#xef;" horiz-adv-x="630" d="M68 989q0 21 26 21q6 0 27 -1t31 -1q57 0 114.5 12.5t89.5 34.5q25 22 41 22q9 0 12 -5.5t3 -20.5v-947q0 -41 15.5 -55t64.5 -14q17 0 38 2t27 2q23 0 23 -21q0 -20 -23 -20q-4 0 -26 2t-39 2q-27 0 -82 2t-84 2t-84 -2t-82 -2q-16 0 -39.5 -2t-28.5 -2q-22 0 -22 20 q0 21 22 21q7 0 28.5 -2t39.5 -2q47 0 63.5 14.5t16.5 54.5v789q0 47 -18 63.5t-72 16.5q-10 0 -30.5 -1t-25.5 -1q-26 0 -26 18zM74 1286q0 45 29 75t69 30q38 0 65 -26.5t27 -72.5q0 -43 -29.5 -72.5t-68.5 -29.5q-40 0 -66 26t-26 70zM391 1286q0 45 29.5 75t68.5 30 q40 0 66.5 -26.5t26.5 -72.5q0 -43 -30 -72.5t-71 -29.5q-39 0 -64.5 26.5t-25.5 69.5z" />
<glyph unicode="&#xf0;" horiz-adv-x="1198" d="M92 436q0 203 128 331t349 128q105 0 199.5 -69.5t138.5 -178.5q-33 312 -184 537l-258 -99q-52 -20 -59 0q-4 14 3 21t35 18l254 97q-75 105 -196 211q-19 16 -23.5 23.5t0.5 17.5q7 8 16 6.5t29 -13.5q146 -91 267 -209l253 97q35 13 47.5 13.5t20.5 -13.5 q4 -13 -7 -21t-50 -22l-232 -88q273 -291 273 -635q0 -66 -10 -131t-31.5 -136t-62 -131t-96.5 -109t-139.5 -76.5t-185.5 -27.5q-120 0 -214 38t-150.5 103t-85.5 145.5t-29 172.5zM274 432q0 -196 74 -305t223 -109q102 0 173 58.5t103 151t32 208.5q0 198 -89 308 t-229 110q-141 0 -214 -109t-73 -313z" />
<glyph unicode="&#xf1;" horiz-adv-x="1316" d="M68 989q0 21 26 21q8 0 29 -1t31 -1q57 0 114.5 12.5t89.5 34.5q25 22 39 22q10 0 13.5 -5.5t3.5 -20.5v-222q40 112 124.5 181t215.5 69q148 0 235.5 -86t87.5 -262v-534q0 -164 99 -164q17 0 32.5 5.5t23 10t19.5 14.5t13 11q25 21 36 4q11 -14 -12 -37 q-59 -51 -168 -51t-162 64.5t-53 203.5v494q0 133 -48.5 200.5t-154.5 67.5q-85 0 -149 -49q-139 -110 -139 -469v-398q0 -41 15.5 -55t64.5 -14q18 0 38 2t25 2q25 0 25 -21q0 -20 -25 -20q-4 0 -26 2t-37 2q-27 0 -83 2t-85 2t-84 -2t-82 -2q-16 0 -39.5 -2t-28.5 -2 q-20 0 -20 20q0 21 20 21q7 0 29 -2t39 -2q49 0 64.5 14t15.5 55v789q0 47 -18 63.5t-70 16.5q-10 0 -31.5 -1t-26.5 -1q-26 0 -26 18zM426 1241q0 87 30.5 134.5t92.5 47.5q44 0 97 -26.5t101 -53t80 -26.5q56 0 56 82q0 24 18 24q19 0 19 -32q0 -189 -123 -189 q-51 0 -106.5 27t-103 53.5t-77.5 26.5q-45 0 -45 -84q0 -23 -23 -23q-9 0 -12.5 8t-3.5 31z" />
<glyph unicode="&#xf2;" horiz-adv-x="1163" d="M98 528q0 118 27.5 215.5t83.5 174t151 119t222 42.5q101 0 182.5 -28t137 -77.5t93 -119.5t54 -151t16.5 -175t-16.5 -175.5t-54 -151.5t-93 -120t-137 -78t-182.5 -28q-127 0 -222 42.5t-151 119.5t-83.5 174.5t-27.5 216.5zM246 1407q17 33 49 33q39 0 106 -49 q146 -106 222 -158q21 -14 16 -29q-2 -14 -31 -6q-49 19 -142 49.5t-132 44.5q-66 17 -85.5 49t-2.5 66zM279 528q0 -512 303 -512t303 512q0 510 -303 510t-303 -510z" />
<glyph unicode="&#xf3;" horiz-adv-x="1163" d="M98 528q0 118 27.5 215.5t83.5 174t151 119t222 42.5q101 0 182.5 -28t137 -77.5t93 -119.5t54 -151t16.5 -175t-16.5 -175.5t-54 -151.5t-93 -120t-137 -78t-182.5 -28q-127 0 -222 42.5t-151 119.5t-83.5 174.5t-27.5 216.5zM279 528q0 -512 303 -512t303 512 q0 510 -303 510t-303 -510zM504 1200q-4 15 16 29q38 25 75.5 51t81.5 58l66 48q65 50 105 50q35 0 49 -33q19 -34 -1.5 -65.5t-86.5 -49.5q-32 -12 -127.5 -40.5t-146.5 -51.5q-25 -13 -31 4z" />
<glyph unicode="&#xf4;" horiz-adv-x="1163" d="M98 528q0 118 27.5 215.5t83.5 174t151 119t222 42.5q101 0 182.5 -28t137 -77.5t93 -119.5t54 -151t16.5 -175t-16.5 -175.5t-54 -151.5t-93 -120t-137 -78t-182.5 -28q-127 0 -222 42.5t-151 119.5t-83.5 174.5t-27.5 216.5zM279 528q0 -512 303 -512t303 512 q0 510 -303 510t-303 -510zM283 1192q-9 9 12 27l246 219q26 26 43 26q15 0 45 -26l243 -219q19 -19 11 -27q-7 -11 -31 4l-268 135l-271 -135q-22 -16 -30 -4z" />
<glyph unicode="&#xf5;" horiz-adv-x="1163" d="M98 528q0 118 27.5 215.5t83.5 174t151 119t222 42.5q101 0 182.5 -28t137 -77.5t93 -119.5t54 -151t16.5 -175t-16.5 -175.5t-54 -151.5t-93 -120t-137 -78t-182.5 -28q-127 0 -222 42.5t-151 119.5t-83.5 174.5t-27.5 216.5zM279 528q0 -512 303 -512t303 512 q0 510 -303 510t-303 -510zM330 1243q0 87 30.5 134.5t92.5 47.5q44 0 97 -26.5t101 -53t80 -26.5q55 0 55 82q0 24 19 24q18 0 18 -32q0 -189 -123 -189q-51 0 -106.5 27t-102.5 53.5t-77 26.5q-45 0 -45 -84q0 -23 -23 -23q-9 0 -12.5 8t-3.5 31z" />
<glyph unicode="&#xf6;" horiz-adv-x="1163" d="M98 528q0 118 27.5 215.5t83.5 174t151 119t222 42.5q101 0 182.5 -28t137 -77.5t93 -119.5t54 -151t16.5 -175t-16.5 -175.5t-54 -151.5t-93 -120t-137 -78t-182.5 -28q-127 0 -222 42.5t-151 119.5t-83.5 174.5t-27.5 216.5zM279 528q0 -512 303 -512t303 512 q0 510 -303 510t-303 -510zM328 1309q0 45 28.5 74.5t69.5 29.5q39 0 65.5 -26.5t26.5 -71.5q0 -43 -29.5 -73t-68.5 -30q-40 0 -66 26.5t-26 70.5zM645 1309q0 45 29.5 74.5t68.5 29.5q40 0 66.5 -26t26.5 -72q0 -43 -30 -73t-71 -30q-39 0 -64.5 26.5t-25.5 70.5z" />
<glyph unicode="&#xf7;" horiz-adv-x="1239" d="M123 561q0 12 8.5 16.5t30.5 4.5h913q23 0 31 -4.5t8 -16.5q0 -13 -8 -17.5t-33 -4.5h-911q-24 0 -31.5 4.5t-7.5 17.5zM508 84q0 51 34.5 86t78.5 35t74 -31t30 -82q0 -50 -33.5 -82.5t-81.5 -32.5q-43 0 -72.5 29.5t-29.5 77.5zM508 1018q0 51 34.5 85t78.5 34t74 -30 t30 -81q0 -50 -33.5 -81.5t-81.5 -31.5q-43 0 -72.5 28.5t-29.5 76.5z" />
<glyph unicode="&#xf8;" horiz-adv-x="1163" d="M98 528q0 118 27.5 215.5t83.5 174t151 119t222 42.5q108 0 188 -30l66 149q14 38 45 27q32 -7 18 -47l-68 -156q119 -65 176.5 -194.5t57.5 -299.5q0 -94 -16.5 -175.5t-54 -151.5t-93 -120t-137 -78t-182.5 -28q-108 0 -193 31l-80 -182q-11 -25 -49 -12 q-12 3 -14.5 10t4.5 26l80 185q-118 65 -175 194t-57 301zM279 528q0 -279 90 -405l374 864q-66 51 -161 51q-303 0 -303 -510zM416 70q66 -54 166 -54q303 0 303 512q0 283 -92 406z" />
<glyph unicode="&#xf9;" horiz-adv-x="1296" d="M43 989q0 21 25 21q9 0 30 -1t29 -1q56 0 115 13t90 34q25 22 41 22q12 0 12 -26v-721q0 -151 49.5 -223t165.5 -72q139 0 214 97.5t75 279.5v493q-3 39 -21.5 53.5t-66.5 14.5q-11 0 -32 -1t-26 -1q-26 0 -26 18q0 21 26 21q7 0 28 -1t32 -1q55 0 113.5 13t89.5 34 q25 22 41 22q9 0 11.5 -5.5t2.5 -20.5v-887q0 -70 24 -99.5t76 -29.5q21 0 43.5 2t30.5 2q27 0 27 -21q0 -20 -27 -20q-12 0 -63.5 1t-88.5 1q-105 0 -149.5 41t-44.5 133q-50 -95 -127 -141.5t-211 -46.5q-168 0 -252 82.5t-84 275.5v549q0 47 -18 63.5t-70 16.5 q-9 0 -31 -1t-28 -1q-25 0 -25 18zM307 1405q17 33 49 33q40 0 107 -49q160 -116 221 -158q21 -14 16 -29q-2 -14 -30 -6q-49 19 -142.5 49.5t-132.5 44.5q-66 17 -85.5 49t-2.5 66z" />
<glyph unicode="&#xfa;" horiz-adv-x="1296" d="M43 989q0 21 25 21q9 0 30 -1t29 -1q56 0 115 13t90 34q25 22 41 22q12 0 12 -26v-727q0 -152 49.5 -224.5t165.5 -72.5q139 0 214 97t75 279v490q0 47 -18 63.5t-70 16.5q-11 0 -32 -1t-26 -1q-26 0 -26 18q0 21 26 21q7 0 28 -1t32 -1q55 0 113.5 13t89.5 34 q25 22 41 22q9 0 11.5 -5.5t2.5 -20.5v-887q0 -70 24 -99.5t76 -29.5q21 0 43.5 2t30.5 2q27 0 27 -21q0 -20 -27 -20q-12 0 -63.5 1t-88.5 1q-102 0 -147 39.5t-47 126.5q-51 -96 -127.5 -142.5t-210.5 -46.5q-168 0 -252 83.5t-84 277.5v555q0 47 -18 63.5t-70 16.5 q-9 0 -31 -1t-28 -1q-25 0 -25 18zM563 1198q-4 15 17 29q38 25 75.5 51t81.5 58l66 48q65 50 104 50q35 0 49 -33q19 -34 -1.5 -65.5t-86.5 -49.5q-32 -12 -127.5 -40.5t-146.5 -51.5q-25 -13 -31 4z" />
<glyph unicode="&#xfb;" horiz-adv-x="1296" d="M43 989q0 21 25 21q9 0 30 -1t29 -1q56 0 115 13t90 34q25 22 41 22q12 0 12 -26v-727q0 -152 49.5 -224.5t165.5 -72.5q139 0 214 97t75 279v490q0 47 -18 63.5t-70 16.5q-11 0 -32 -1t-26 -1q-26 0 -26 18q0 21 26 21q7 0 28 -1t32 -1q55 0 113.5 13t89.5 34 q25 22 41 22q9 0 11.5 -5.5t2.5 -20.5v-887q0 -70 24 -99.5t76 -29.5q21 0 43.5 2t30.5 2q27 0 27 -21q0 -20 -27 -20q-12 0 -63.5 1t-88.5 1q-102 0 -147 39.5t-47 126.5q-51 -96 -127.5 -142.5t-210.5 -46.5q-168 0 -252 83.5t-84 277.5v555q0 47 -18 63.5t-70 16.5 q-9 0 -31 -1t-28 -1q-25 0 -25 18zM340 1190q-9 9 12 27l246 219q26 26 43 26q15 0 45 -26l244 -219q18 -19 10 -27q-7 -11 -31 4l-268 135l-270 -135q-23 -16 -31 -4z" />
<glyph unicode="&#xfc;" horiz-adv-x="1296" d="M43 989q0 21 25 21q9 0 30 -1t29 -1q56 0 115 13t90 34q25 22 41 22q12 0 12 -26v-727q0 -152 49.5 -224.5t165.5 -72.5q139 0 214 97t75 279v490q0 47 -18 63.5t-70 16.5q-11 0 -32 -1t-26 -1q-26 0 -26 18q0 21 26 21q7 0 28 -1t32 -1q55 0 113.5 13t89.5 34 q25 22 41 22q9 0 11.5 -5.5t2.5 -20.5v-887q0 -70 24 -99.5t76 -29.5q21 0 43.5 2t30.5 2q27 0 27 -21q0 -20 -27 -20q-12 0 -63.5 1t-88.5 1q-102 0 -147 39.5t-47 126.5q-51 -96 -127.5 -142.5t-210.5 -46.5q-168 0 -252 83.5t-84 277.5v555q0 47 -18 63.5t-70 16.5 q-9 0 -31 -1t-28 -1q-25 0 -25 18zM387 1307q0 45 28.5 74.5t69.5 29.5q39 0 66 -26.5t27 -71.5q0 -43 -30 -73t-69 -30q-40 0 -66 26.5t-26 70.5zM705 1307q0 45 29.5 74.5t68.5 29.5q40 0 66 -26t26 -72q0 -43 -29.5 -73t-70.5 -30q-39 0 -64.5 26.5t-25.5 70.5z" />
<glyph unicode="&#xfd;" horiz-adv-x="1191" d="M2 1024q0 20 25 20q4 0 24 -2t37 -2q27 0 80 -2t82 -2t93 2t91 2q17 0 37.5 2t24.5 2q24 0 24 -20t-24 -20q-6 0 -25.5 2t-36.5 2q-49 0 -62 -16t5 -54l299 -756l287 756q13 39 -1.5 54.5t-64.5 15.5q-19 0 -38 -2t-25 -2q-23 0 -23 20t23 20q5 0 26 -2t37 -2q26 0 52 -2 t55 -2t54.5 2t51.5 2q16 0 37.5 2t26.5 2q22 0 22 -20t-22 -20q-7 0 -26.5 2t-37.5 2q-45 0 -62 -15.5t-36 -62.5l-408 -1065q-75 -193 -154.5 -276t-189.5 -83q-89 0 -141.5 50t-52.5 139v2q0 40 30.5 69t71.5 29q42 0 72 -27t30 -71t-30.5 -73.5t-71.5 -29.5q-9 0 -29 5 q41 -54 123 -54q83 0 154.5 76t146.5 262l27 74l-400 961q-22 55 -41 72.5t-61 17.5q-19 0 -37 -2t-24 -2q-25 0 -25 20zM512 1167q-4 15 16 29q38 25 75.5 51t81.5 58.5t67 48.5q64 49 104 49q35 0 49 -33q19 -34 -1.5 -65.5t-86.5 -49.5q-32 -12 -127.5 -40.5 t-146.5 -51.5q-25 -13 -31 4z" />
<glyph unicode="&#xfe;" horiz-adv-x="1202" d="M14 1446q0 20 27 20q8 0 28 -1t29 -1q56 0 115 13t90 34q27 21 41 21q9 0 11.5 -5.5t2.5 -19.5v-716h7q44 151 130 217.5t216 66.5q189 0 289 -131.5t100 -396.5q0 -574 -457 -574q-148 0 -285 70v-432q0 -40 16.5 -55t65.5 -15q16 0 37 2t27 2q22 0 22 -20 q0 -21 -22 -21q-4 0 -26.5 2t-37.5 2q-27 0 -83 2.5t-85 2.5t-84 -2.5t-82 -2.5q-16 0 -39 -2t-28 -2q-9 0 -16 5.5t-7 15.5q0 20 23 20q6 0 28 -2t39 -2q47 0 63.5 15t16.5 55v1737q0 49 -18 65.5t-70 16.5q-11 0 -31.5 -2.5t-25.5 -2.5q-27 0 -27 21zM362 98 q43 -33 114.5 -56.5t144.5 -23.5q68 0 119 23t85 66t55.5 109t30.5 146.5t9 184.5q0 70 -4 127.5t-14 113.5t-28 97.5t-45 74.5t-66 49.5t-89 16.5q-135 0 -220 -133t-92 -367v-428z" />
<glyph unicode="&#xff;" horiz-adv-x="1191" d="M2 1024q0 20 25 20q4 0 24 -2t37 -2q27 0 80 -2t82 -2t93 2t91 2q17 0 37.5 2t24.5 2q24 0 24 -20t-24 -20q-6 0 -25.5 2t-36.5 2q-49 0 -62 -16t5 -54l299 -756l287 756q13 39 -1.5 54.5t-64.5 15.5q-19 0 -38 -2t-25 -2q-23 0 -23 20t23 20q5 0 26 -2t37 -2q26 0 52 -2 t55 -2t54.5 2t51.5 2q16 0 37.5 2t26.5 2q22 0 22 -20t-22 -20q-7 0 -26.5 2t-37.5 2q-45 0 -62 -15.5t-36 -62.5l-408 -1065q-75 -193 -154.5 -276t-189.5 -83q-89 0 -141.5 50t-52.5 139v2q0 40 30.5 69t71.5 29q42 0 72 -27t30 -71t-30.5 -73.5t-71.5 -29.5q-9 0 -29 5 q41 -54 123 -54q83 0 154.5 76t146.5 262l27 74l-400 961q-22 55 -41 72.5t-61 17.5q-19 0 -37 -2t-24 -2q-25 0 -25 20zM336 1276q0 45 28.5 74.5t69.5 29.5q39 0 65.5 -26.5t26.5 -71.5q0 -43 -29.5 -72.5t-68.5 -29.5q-40 0 -66 26t-26 70zM653 1276q0 44 29.5 74 t69.5 30t66 -26t26 -72q0 -43 -30 -72.5t-71 -29.5q-39 0 -64.5 26.5t-25.5 69.5z" />
<glyph unicode="&#x152;" horiz-adv-x="2246" d="M109 711q0 76 9.5 148.5t31.5 147.5t56 139.5t86.5 122t119 98t157 64t197.5 23.5q309 0 481 -190v168h791q33 0 43 -10.5t12 -41.5l12 -178q2 -34 5.5 -59.5t3.5 -32.5q0 -31 -23 -31q-20 0 -23 27l-6 90q-8 108 -73.5 151.5t-239.5 43.5h-322v-666h246q65 0 100 37 t35 94q0 15 -2 39t-2 29q0 22 25 22q20 0 20 -22q0 -5 -1 -29t-1 -39q-4 -114 -4 -149q0 -32 2 -79.5t2 -76.5q0 -15 1 -38.5t1 -27.5q0 -24 -20 -24q-25 0 -25 24q0 4 2 27.5t2 38.5q0 61 -34 97t-101 36h-246v-643h365q157 0 229 48.5t80 146.5q5 34 7 62l1 28 q1 15 5.5 20.5t15.5 5.5q22 0 22 -33q0 -7 -1 -16t-4 -29.5t-5 -44.5l-16 -178q-2 -30 -13.5 -40.5t-44.5 -10.5h-821v164q-169 -191 -481 -191q-142 0 -255.5 41.5t-187.5 111t-123 166t-70 200t-21 219.5zM297 715q0 -699 469 -699q82 0 149 20.5t115 55.5t84.5 87.5 t59 110.5t36.5 130t19.5 141t5.5 148q0 92 -8 171.5t-26.5 162t-53.5 146.5t-85 115.5t-125.5 79t-170.5 27.5q-92 0 -166 -25.5t-124.5 -74t-86 -110.5t-55.5 -143t-28.5 -163.5t-8.5 -179.5z" />
<glyph unicode="&#x153;" horiz-adv-x="1900" d="M98 528q0 118 27.5 215.5t83.5 174t151 119t222 42.5q294 0 413 -229q122 229 406 229q192 0 293.5 -78t101.5 -225q0 -327 -453 -327q-137 0 -237 18q5 -123 31 -208.5t72.5 -134.5t106 -70t140.5 -21q125 0 260 55q19 8 36 20.5t24 16.5q28 12 39 -2q13 -19 -17 -37 q-11 -6 -34.5 -16t-37.5 -17q-135 -69 -296 -69q-309 0 -433 221q-119 -230 -415 -230q-127 0 -222 42.5t-151 119.5t-83.5 174.5t-27.5 216.5zM279 528q0 -512 303 -512t303 512q0 510 -303 510t-303 -510zM1106 512q111 -20 235 -20q295 0 295 294q0 123 -60 187.5 t-175 64.5q-141 0 -218 -126.5t-77 -385.5v-14z" />
<glyph unicode="&#x178;" horiz-adv-x="1314" d="M-27 1417q0 23 29 23q32 0 123.5 -4t122.5 -4q70 0 146 4t83 4q33 0 33 -25q0 -16 -29 -16q-5 0 -28 2t-47 2q-23 0 -33 -4t-11.5 -17t6.5 -34.5t27 -59.5l328 -635l350 688q21 38 17 49q-5 13 -39 13q-16 0 -42 -2t-32 -2q-31 0 -31 16q0 25 35 25q5 0 43 -4t109 -4 q31 0 78 4t79 4q29 0 29 -23q0 -18 -29 -18q-12 0 -28.5 2t-26.5 2q-45 0 -67 -13.5t-46 -58.5l-366 -715v-512q0 -41 15.5 -55t64.5 -14q18 0 39 2t28 2q23 0 23 -21q0 -20 -23 -20q-5 0 -27 2t-40 2q-26 0 -83.5 2t-86.5 2q-28 0 -85 -2t-85 -2q-16 0 -38.5 -2t-27.5 -2 q-22 0 -22 20q0 21 22 21q6 0 27.5 -2t38.5 -2q49 0 65.5 14.5t16.5 54.5v474l-404 753q-19 35 -40.5 51.5t-34 18.5t-38.5 2q-13 0 -29 -2t-30 -2q-29 0 -29 18zM410 1622q0 45 28.5 74.5t69.5 29.5q39 0 65.5 -26.5t26.5 -71.5q0 -43 -29.5 -72.5t-68.5 -29.5 q-40 0 -66 26t-26 70zM727 1622q0 45 29.5 74.5t68.5 29.5q40 0 66.5 -26t26.5 -72q0 -43 -30 -72.5t-71 -29.5q-39 0 -64.5 26.5t-25.5 69.5z" />
<glyph unicode="&#x2c6;" horiz-adv-x="724" d="M-12 1141q-8 8 12 26l246 219q27 27 43 27q14 0 45 -27l244 -219q18 -18 10 -26q-7 -11 -31 4l-268 135l-271 -135q-22 -16 -30 -4z" />
<glyph unicode="&#x2dc;" horiz-adv-x="698" d="M57 1184q0 87 30.5 134.5t92.5 47.5q44 0 97.5 -26.5t101.5 -53t80 -26.5q55 0 55 81q0 25 18 25q19 0 19 -33q0 -188 -123 -188q-51 0 -106.5 26.5t-103 53t-77.5 26.5q-45 0 -45 -84q0 -22 -22 -22q-17 0 -17 39z" />
<glyph unicode="&#x2000;" horiz-adv-x="922" />
<glyph unicode="&#x2001;" horiz-adv-x="1845" />
<glyph unicode="&#x2002;" horiz-adv-x="922" />
<glyph unicode="&#x2003;" horiz-adv-x="1845" />
<glyph unicode="&#x2004;" horiz-adv-x="615" />
<glyph unicode="&#x2005;" horiz-adv-x="461" />
<glyph unicode="&#x2006;" horiz-adv-x="307" />
<glyph unicode="&#x2007;" horiz-adv-x="307" />
<glyph unicode="&#x2008;" horiz-adv-x="230" />
<glyph unicode="&#x2009;" horiz-adv-x="369" />
<glyph unicode="&#x200a;" horiz-adv-x="102" />
<glyph unicode="&#x2010;" horiz-adv-x="825" d="M137 625q0 12 10 16t35 4h463q29 0 36 -4t7 -16t-10 -16.5t-41 -4.5h-455q-29 0 -37 3.5t-8 17.5z" />
<glyph unicode="&#x2011;" horiz-adv-x="825" d="M137 625q0 12 10 16t35 4h463q29 0 36 -4t7 -16t-10 -16.5t-41 -4.5h-455q-29 0 -37 3.5t-8 17.5z" />
<glyph unicode="&#x2012;" horiz-adv-x="825" d="M137 625q0 12 10 16t35 4h463q29 0 36 -4t7 -16t-10 -16.5t-41 -4.5h-455q-29 0 -37 3.5t-8 17.5z" />
<glyph unicode="&#x2013;" horiz-adv-x="1265" d="M137 625q0 12 8.5 16t30.5 4h914q23 0 30.5 -4t7.5 -16q0 -13 -8 -18t-33 -5h-911q-24 0 -31.5 5t-7.5 18z" />
<glyph unicode="&#x2014;" horiz-adv-x="2220" d="M139 623q0 14 6 18t21 4h1890q15 0 21 -5.5t6 -18.5q0 -21 -27 -21h-1890q-15 0 -21 5t-6 18z" />
<glyph unicode="&#x2018;" horiz-adv-x="440" d="M98 1118q0 91 62 183t125 139q25 20 39 6q13 -17 -13 -37q-50 -40 -96 -106.5t-57 -131.5q25 48 78 48q35 0 59 -30.5t24 -78.5q0 -53 -29.5 -85t-80.5 -32q-49 0 -80 34.5t-31 90.5z" />
<glyph unicode="&#x2019;" horiz-adv-x="446" d="M133 961q-13 16 12 36q51 40 97 106.5t57 131.5q-24 -47 -78 -47q-35 0 -59.5 30t-24.5 78q0 53 30 85t81 32q49 0 79.5 -34.5t30.5 -90.5q0 -91 -61.5 -182.5t-124.5 -138.5q-25 -20 -39 -6z" />
<glyph unicode="&#x201a;" horiz-adv-x="442" d="M109 -242q-14 17 12 37q50 40 96 106.5t57 131.5q-24 -47 -77 -47q-35 0 -59.5 30t-24.5 78q0 53 29.5 85t80.5 32q49 0 80 -34.5t31 -90.5q0 -91 -62 -183t-125 -139q-25 -19 -38 -6z" />
<glyph unicode="&#x201c;" horiz-adv-x="765" d="M98 1120q0 91 62 183t125 139q25 20 39 6q13 -17 -13 -37q-51 -40 -96.5 -106t-56.5 -131q24 47 78 47q35 0 59 -30.5t24 -78.5q0 -53 -29.5 -85t-80.5 -32q-49 0 -80 34.5t-31 90.5zM432 1120q0 91 62 183t124 139q25 20 39 6q14 -17 -12 -37q-51 -40 -96.5 -106 t-56.5 -131q24 47 77 47q35 0 59.5 -30.5t24.5 -78.5q0 -53 -29.5 -85t-80.5 -32q-49 0 -80 34.5t-31 90.5z" />
<glyph unicode="&#x201d;" horiz-adv-x="765" d="M129 1001q-14 17 12 37q51 40 97 106.5t57 131.5q-24 -47 -78 -47q-35 0 -59.5 30t-24.5 78q0 53 30 85t81 32q49 0 79.5 -34.5t30.5 -90.5q0 -91 -61.5 -182.5t-124.5 -138.5q-26 -20 -39 -7zM461 1001q-14 17 12 37q51 40 97 106.5t57 131.5q-24 -47 -78 -47 q-35 0 -59.5 30t-24.5 78q0 53 29.5 85t80.5 32q49 0 80 -34.5t31 -90.5q0 -91 -61.5 -182.5t-124.5 -138.5q-26 -20 -39 -7z" />
<glyph unicode="&#x201e;" horiz-adv-x="778" d="M109 -242q-14 17 12 37q50 40 96 106.5t57 131.5q-24 -47 -77 -47q-35 0 -59.5 30t-24.5 78q0 53 29.5 85t80.5 32q49 0 80 -34.5t31 -90.5q0 -91 -62 -183t-125 -139q-25 -19 -38 -6zM444 -242q-13 17 13 37q50 40 96 106.5t57 131.5q-24 -47 -78 -47q-35 0 -59 30 t-24 78q0 53 29.5 85t80.5 32q49 0 80 -34.5t31 -90.5q0 -91 -62 -183t-125 -139q-25 -20 -39 -6z" />
<glyph unicode="&#x2022;" horiz-adv-x="702" d="M176 705q0 85 55 141.5t129 56.5q72 0 120 -51t48 -137q0 -85 -56.5 -142t-129.5 -57q-71 0 -118.5 51.5t-47.5 137.5z" />
<glyph unicode="&#x2026;" horiz-adv-x="1626" d="M115 100q0 58 37.5 97t89.5 39q49 0 83.5 -34t34.5 -91t-37.5 -94t-91.5 -37q-50 0 -83 33.5t-33 86.5zM690 100q0 58 37.5 97t89.5 39q49 0 84 -34.5t35 -90.5q0 -57 -37.5 -94t-91.5 -37q-50 0 -83.5 33.5t-33.5 86.5zM1264 100q0 57 38 96.5t89 39.5q49 0 84.5 -34.5 t35.5 -90.5q0 -57 -38 -94t-91 -37q-50 0 -84 33.5t-34 86.5z" />
<glyph unicode="&#x202f;" horiz-adv-x="369" />
<glyph unicode="&#x2039;" horiz-adv-x="694" d="M72 520q0 14 30 35q106 72 231.5 185.5t213.5 220.5q21 27 37 20q18 -9 -4 -41q-10 -14 -49 -69.5t-52 -73t-45 -62.5t-49 -66t-42.5 -53t-46 -54.5t-40.5 -41.5q16 -16 32 -33.5t35 -40.5t32.5 -40t36.5 -47.5t35 -46t38.5 -53t36 -50.5t40 -56.5t38.5 -54.5 q21 -30 6 -39q-17 -9 -39 19q-87 106 -213 219.5t-232 185.5q-30 18 -30 37z" />
<glyph unicode="&#x203a;" horiz-adv-x="696" d="M111 59q-15 9 6 39q219 320 321 422q-45 43 -104 117.5t-100.5 134t-116.5 168.5q-22 31 -6 41q15 9 36 -20q88 -106 214 -218.5t233 -187.5q29 -19 29 -35q0 -18 -29 -37q-105 -71 -231 -184t-216 -221q-15 -17 -22 -20.5t-14 1.5z" />
<glyph unicode="&#x205f;" horiz-adv-x="461" />
<glyph unicode="&#x20ac;" horiz-adv-x="1568" d="M66 539q0 12 6.5 16t23.5 4h172q-6 62 -6 131v21h-158q-38 0 -38 20q0 12 7.5 15.5t28.5 3.5h162q10 210 93 367t239 247t369 90q106 0 192 -21t143 -55.5t95.5 -81t55.5 -95t17 -99.5q0 -58 -36.5 -90.5t-90.5 -32.5q-52 0 -86 32.5t-34 88.5t37.5 91.5t89.5 35.5 q27 0 53 -15q-41 88 -148.5 143.5t-275.5 55.5q-105 0 -191 -34.5t-146 -94.5t-102 -144t-63.5 -181t-25.5 -207h626q20 0 25.5 -4t5.5 -13q0 -14 -7.5 -19t-31.5 -5l-618 2v-19q0 -72 6 -133h481q35 0 35 -14q0 -15 -6.5 -21t-32.5 -6h-473q65 -500 530 -500q193 0 352 70 q15 7 36.5 20.5t29.5 16.5q27 17 37 -2q11 -21 -17 -37q-38 -19 -73 -33q-176 -80 -373 -80q-291 0 -476.5 138t-230.5 407h-176q-32 0 -32 21z" />
<glyph unicode="&#x2122;" horiz-adv-x="1845" d="M49 1225q0 4 0.5 10t1.5 18.5t2 28.5l8 121q2 19 8 25t29 6h586q24 0 30.5 -6t8.5 -25l6 -121q1 -21 3.5 -37.5t2.5 -19.5q0 -21 -12 -21t-12 19q-1 4 -1 10v18.5t-1 26.5q-6 68 -47.5 98t-147.5 33h-47v-768q0 -25 10 -35t39 -10q11 0 23 2t16 2q14 0 14 -14 q0 -13 -14 -13q-3 0 -16.5 1t-22.5 1q-19 0 -60 2.5t-63 2.5t-64 -1t-61 -1q-8 0 -21.5 -2.5t-15.5 -2.5q-14 0 -14 13q0 14 14 14q4 0 15.5 -2t21.5 -2q30 0 39.5 9.5t9.5 35.5v768h-49q-106 -3 -146 -33t-46 -98q-2 -19 -2.5 -35t-1.5 -20q-3 -19 -11 -19q-12 0 -12 21z M795 586q0 14 12 14q4 0 16.5 -2t22.5 -2q30 0 39.5 9.5t9.5 35.5v735q-2 20 -11.5 27.5t-37.5 7.5h-37q-14 0 -14 12q0 13 16 13q13 0 39.5 -2t60.5 -2h123q20 0 31 -29l250 -627l246 633q7 14 12.5 18.5t19.5 4.5h84q26 0 65 2t56 2t17 -13q0 -12 -17 -12h-39 q-27 0 -37.5 -6.5t-11.5 -26.5v-737q0 -25 10 -35t39 -10q10 0 22.5 2t16.5 2q14 0 14 -14q0 -13 -14 -13q-3 0 -16.5 1t-22.5 1q-19 0 -53 2.5t-57 2.5q-21 0 -62.5 -1t-60.5 -1q-9 0 -23.5 -2.5t-17.5 -2.5q-12 0 -12 13q0 14 12 14q5 0 17.5 -2t23.5 -2q29 0 39 10t10 35 v707l-305 -777q-3 -8 -15 -8h-2q-11 0 -14 8l-311 766v-696q0 -26 9.5 -35.5t39.5 -9.5q10 0 22.5 2t16.5 2q12 0 12 -14q0 -13 -12 -13q-3 0 -17 1t-22 1q-12 0 -31.5 2.5t-34.5 2.5q-17 0 -36 -2.5t-29 -2.5q-8 0 -22 -1t-17 -1q-12 0 -12 13z" />
<glyph unicode="&#x25fc;" horiz-adv-x="1034" d="M0 0v1034h1034v-1034h-1034z" />
</font>
</defs>
</svg>
